<svg xmlns="http://www.w3.org/2000/svg" width="155" height="156" viewBox="0 0 155 156">
  <g id="Group_320" data-name="Group 320" transform="translate(-1208 -4205)">
    <ellipse id="Ellipse_67" data-name="Ellipse 67" cx="77.5" cy="78" rx="77.5" ry="78" transform="translate(1208 4205)" fill="#fff"/>
    <g id="Group_305" data-name="Group 305" transform="translate(1237.353 4234.342)">
      <path id="Path_249" data-name="Path 249" d="M-477.49-114.692c-23.339,1.37-45.286-16.165-49.276-39.37a48.245,48.245,0,0,1,40.4-56.423c25.331-3.989,50.275,14.014,54.429,39.288a38.121,38.121,0,0,1,.688,8.408c-1.139.111-1.619-.841-2.25-1.47q-14.916-14.864-29.794-29.766c-.709-.709-1.408-1.428-2.171-2.082-2.159-1.553-2.29-1.525-3.67.77-.193.321-.384.644-.582.963-1.2,1.935-1.5,2.07-3.651,1.462a32.529,32.529,0,0,0-5.907-.969,4.813,4.813,0,0,0-2.036.23c-1.422.109-2.776.663-4.217.656-1.35-.509-2.073-1.753-3.092-2.651a6.444,6.444,0,0,0-1.74-1.393c-1.988,0-2.3.475-1.374,2.135,2,3.6,1.982,3.58-.988,6.554a18.6,18.6,0,0,0-5.588,10.421c-.3,1.943-.109,2.183,1.875,2.181,5.827-.005,11.654.045,17.484-.032,5.416-.11,10.829-.029,16.242-.043a7.1,7.1,0,0,0,3.264-.6c1.3.81.821,1.494-.223,1.974a6.127,6.127,0,0,1-2.6.236q-16.038.008-32.075,0c-.375,0-.75,0-1.126,0-1.712.021-1.712.022-1.112,1.715-.189,1.126-1.823.458-1.989,1.614-.25,3.746-.075,7.489-.1,11.23-.035,5.24,0,10.48-.017,15.72a4.489,4.489,0,0,1-.51,2.89c-1.306.055-1.034-1.016-1.074-1.684-.138-2.3-.093-4.618-.049-6.926.124-6.553.008-13.107.07-19.66a2.819,2.819,0,0,0-1.011-2.649,8.1,8.1,0,0,1-1.208-1.17,3.82,3.82,0,0,0-3.953-1.074,3.74,3.74,0,0,0-2.694,3.073,4.967,4.967,0,0,0-.152,1.114q-.08,8.724,0,17.448a5.513,5.513,0,0,0,2.118,4.222c4.934,5.373,10.214,10.4,15.407,15.521a4.161,4.161,0,0,1,.522.53,6.8,6.8,0,0,0,2.9,5.309c1.562,2.165,3.543,3.961,5.3,5.958,1.39,1.583,2.982,2.99,4.451,4.506C-478.068-116.013-477.351-115.592-477.49-114.692Z" transform="translate(527.509 211.039)" fill="#98c943"/>
      <path id="Path_250" data-name="Path 250" d="M-429.869-90.343c-3.361-3.522-6.735-7.031-10.065-10.582-.351-.375-1.253-.537-.823-1.405.461-.525,1.116-.483,1.721-.6a3.592,3.592,0,0,0,3.267-3.705c.11-2.18.026-4.365.038-6.548.021-3.679.436-4.083,4.114-3.987,3.083-.093,3.467.273,3.5,3.361.024,2.255-.063,4.512.039,6.765.112,2.468,1.326,3.9,3.332,4.046,2.114.156,3.666-1.1,4.166-3.494.491-2.352.2-4.747.246-7.123.06-3.265.349-3.583,3.516-3.618,4.771-.053,4.38.546,4.39-4.5q.022-11.37,0-22.741c0-2.623-.119-2.752-2.769-2.741-10.4.044-20.8-.136-31.2-.1-.9,0-1.908.266-2.644-.579l-2.084-2.307a3.227,3.227,0,0,1,1.981-.251q17.992-.019,35.984-.011c.987,0,2.257.209,1.418-1.52-.734-.551-.727-1.416-.894-2.189a18.188,18.188,0,0,0-6.215-10.409c-.431-.361-.819-.773-1.266-1.113a1.574,1.574,0,0,1-.432-2.432c.976-1.3,1.207-3.189,3-3.852.567.485,1.169.935,1.7,1.46q15.36,15.337,30.706,30.686c.485.485,1.009.932,1.515,1.4a46.134,46.134,0,0,1-10.843,30.506c-8.852,10.758-20.4,16.516-34.272,17.622A10.114,10.114,0,0,1-429.869-90.343Z" transform="translate(479.888 186.69)" fill="#84aa2d"/>
      <path id="Path_251" data-name="Path 251" d="M-449.886-108.026q16.909.039,33.818.076c3.463.007,3.463,0,3.463,3.415,0,8.705-.032,17.41.032,26.115.011,1.407-.369,1.9-1.783,1.774-1.368-.119-2.769.1-4.128-.056-1.9-.223-2.326.564-2.233,2.32a72.593,72.593,0,0,1-.039,7.7,4.28,4.28,0,0,1-3.906,4.313,4.277,4.277,0,0,1-4.914-4.211c-.087-2.565-.13-5.14,0-7.7.089-1.762-.223-2.813-2.28-2.4a2.541,2.541,0,0,1-.742-.077c-.8-.889-.63-1.994-.632-3.039-.018-8.128,0-16.256-.013-24.383,0-2.694-.069-2.757-2.7-2.765-4.564-.013-9.13.01-13.694-.014-.982-.005-2.025.155-2.846-.629C-451.724-108.379-450.722-107.707-449.886-108.026Z" transform="translate(480.734 146.817)" fill="#e5e5e5"/>
      <path id="Path_252" data-name="Path 252" d="M-452.537-106.926c6.012,0,12.025.052,18.037-.032,1.529-.021,1.89.486,1.881,1.931-.058,9.643-.033,19.287-.035,28.93-3.232.161-3.232.161-3.232,3.509,0,1.81.008,3.62,0,5.431-.021,4.133-1.631,5.626-5.771,5.365-2.438-1.1-3.273-3.088-3.105-5.628-.988-1.692-.461-3.546-.528-5.325-.1-2.667-.065-2.634-2.755-2.731-1.517-.055-3.139.481-4.524-.611Q-452.554-91.507-452.537-106.926Z" transform="translate(480.79 146.152)" fill="#fefefe"/>
      <path id="Path_253" data-name="Path 253" d="M-388.723-174.809a6.271,6.271,0,0,0-.455.589c-.841,1.395-2.228,2.747-2.356,4.208-.142,1.624,2.1,2.126,3.14,3.288a20.7,20.7,0,0,1,5.478,11.91c.03.808-.23,1.229-1.168,1.22-6.283-.059-12.565-.07-18.848-.1a3.651,3.651,0,0,1-.614-2.668c-.017-4.246-.046-8.493.016-12.738a3.952,3.952,0,0,0-1.358-3.468c2.968-.689,5.822-.021,8.6.891,1.123.368,1.731.252,2.216-.819a20.338,20.338,0,0,1,1.143-1.929C-391.314-177.133-391.028-177.16-388.723-174.809Z" transform="translate(451.064 189.517)" fill="#e5e5e5"/>
      <path id="Path_254" data-name="Path 254" d="M-434.327-172.548c1.432-.085,2.042.4,2.01,2.017-.113,5.617-.049,11.238-.053,16.857-6.208.019-12.416.021-18.624.075-1.054.009-1.193-.34-1.082-1.327a19.2,19.2,0,0,1,7.568-13.548c1.115-.865,1.442-1.506.521-2.68a23.223,23.223,0,0,1-1.662-2.726c-.322-.554-1.008-1.2.065-1.643.822-.341,1.558-1.78,2.623-.338a13.024,13.024,0,0,1,2.108,2.844,2.224,2.224,0,0,0,2.088,1.265A20.312,20.312,0,0,1-434.327-172.548Z" transform="translate(480.502 189.5)" fill="#fefefe"/>
      <path id="Path_255" data-name="Path 255" d="M-477.937-88.21a5.544,5.544,0,0,1-2.606-5.22c.064-5.558.013-11.117.024-16.675.005-2.74,1.008-4.442,2.967-5.115,2.1-.723,3.859-.027,5.6,2.218a4.028,4.028,0,0,1,.985,2.75c-.032,5.761-.023,11.522-.011,17.283a5.408,5.408,0,0,1-2,4.462C-474.255-87.475-476.4-86.685-477.937-88.21Z" transform="translate(498.229 151.474)" fill="#fefefe"/>
      <path id="Path_256" data-name="Path 256" d="M-473.622-84.084c4.169.833,6.351-.929,6.359-5.161.01-5.371-.011-10.743.013-16.114a13.022,13.022,0,0,0-.387-3.517,2.822,2.822,0,0,1,1.569,2.9c-.045,8.859-.031,17.719-.01,26.578,0,.71-.3,1.513.383,2.116,2.172.017,4.345.086,6.515.027,1.068-.029,1.4.332,1.363,1.381-.079,2.418-.054,4.839-.072,7.258a1.6,1.6,0,0,1-1.118-.615q-7.107-7.114-14.213-14.229A3.471,3.471,0,0,1-473.622-84.084Z" transform="translate(493.914 147.347)" fill="#85ab2d"/>
      <path id="Path_257" data-name="Path 257" d="M-423.622-170.711c-.943.725-1.625.615-2.181-.523-.6-1.229-1.337-2.393-2.014-3.585A22.883,22.883,0,0,1-423.622-170.711Z" transform="translate(465.358 188.458)" fill="#8baf37"/>
      <path id="Path_258" data-name="Path 258" d="M-342.632-101.838c0-2.885-.021-5.769.006-8.654.029-2.983,1.853-5,4.462-5.008s4.45,2.006,4.468,5.01q.055,8.747,0,17.5c-.016,3.089-1.944,5.2-4.565,5.122-2.589-.079-4.347-2.118-4.37-5.122C-342.649-95.943-342.632-98.891-342.632-101.838Z" transform="translate(412.256 151.477)" fill="#e5e5e5"/>
      <path id="Path_259" data-name="Path 259" d="M-379.2-146.272c1.223.1,2.02.723,2.012,1.974a1.817,1.817,0,0,1-1.862,1.92,1.781,1.781,0,0,1-2-1.941A1.882,1.882,0,0,1-379.2-146.272Z" transform="translate(436.202 170.661)" fill="#86ab2f"/>
      <path id="Path_260" data-name="Path 260" d="M-426.681-142.33a1.9,1.9,0,0,1-1.951-2.011,1.819,1.819,0,0,1,2.03-1.947,1.826,1.826,0,0,1,1.912,1.9A1.9,1.9,0,0,1-426.681-142.33Z" transform="translate(465.866 170.671)" fill="#86ab2f"/>
    </g>
  </g>
</svg>
