<svg xmlns="http://www.w3.org/2000/svg" width="156" height="156" viewBox="0 0 156 156">
  <g id="Group_313" data-name="Group 313" transform="translate(-762 -3996)">
    <circle id="Ellipse_61" data-name="Ellipse 61" cx="78" cy="78" r="78" transform="translate(762 3996)" fill="#fff"/>
    <g id="Group_297" data-name="Group 297" transform="translate(795.226 4029.891)">
      <path id="Path_166" data-name="Path 166" d="M2295.61-25.993q0,14.514,0,29.028c-.009,9.094-6.433,15.562-15.482,15.567q-29.29.015-58.58,0c-9.043,0-15.476-6.484-15.478-15.57q-.008-29.2,0-58.406c0-9.09,6.429-15.559,15.482-15.563q29.29-.016,58.58,0c9.054,0,15.473,6.471,15.479,15.567Q2295.618-40.682,2295.61-25.993Zm-31.679-1.4c.654-.359,1.118-.6,1.566-.864,4.309-2.564,6-6.424,5.742-11.335a11.089,11.089,0,0,0-6.887-10.272,20.154,20.154,0,0,0-8.519-1.585c-7.928.012-15.857.033-23.785-.03-1.323-.011-1.651.375-1.647,1.668q.063,24.485,0,48.97c0,1.33.371,1.643,1.661,1.632,7.636-.063,15.273-.039,22.91-.034a27.023,27.023,0,0,0,6.585-.738c5.132-1.282,9.514-3.589,11.322-9.038C2275.571-17.147,2272.2-24.13,2263.931-27.392Z" transform="translate(-2206.064 70.946)" fill="#64397e"/>
      <path id="Path_167" data-name="Path 167" d="M2309.129,8.767c8.266,3.261,11.639,10.245,8.943,18.374-1.807,5.449-6.19,7.756-11.322,9.038a27.022,27.022,0,0,1-6.585.738c-7.637-.005-15.273-.029-22.91.034-1.29.01-1.665-.3-1.661-1.632q.072-24.485,0-48.97c0-1.293.325-1.678,1.647-1.668,7.929.063,15.857.042,23.785.03a20.154,20.154,0,0,1,8.519,1.585,11.088,11.088,0,0,1,6.887,10.272c.255,4.911-1.433,8.771-5.742,11.335C2310.247,8.169,2309.782,8.407,2309.129,8.767Zm-15.021,4.376v-.007q-4.022,0-8.043,0c-.616,0-1.3-.171-1.3.877.027,4.837.016,9.675.006,14.513,0,.638.207.97.9.958,5.592-.094,11.2.32,16.773-.195,4.988-.461,7.494-3.73,7.215-8.895-.235-4.365-3.279-7.136-8.039-7.243C2299.122,13.1,2296.614,13.142,2294.108,13.142Zm-.561-20.987V-7.86h-7.5c-.634,0-1.285-.129-1.277.9.032,4.189.021,8.378.005,12.567,0,.662.233.928.91.924,5.119-.034,10.249.146,15.355-.123,4.171-.22,6.433-3.357,6.246-7.911-.17-4.108-2.366-6.2-6.753-6.33C2298.2-7.9,2295.875-7.844,2293.547-7.844Z" transform="translate(-2251.261 34.787)" fill="#f5f5f5"/>
      <path id="Path_168" data-name="Path 168" d="M2311.144,65.972c2.506,0,5.014-.047,7.519.01,4.76.108,7.8,2.879,8.039,7.243.279,5.165-2.227,8.434-7.215,8.895-5.574.515-11.181.1-16.773.195-.7.012-.906-.32-.9-.958.01-4.838.021-9.676-.006-14.513-.005-1.048.681-.875,1.3-.877q4.022-.009,8.043,0Z" transform="translate(-2268.297 -18.042)" fill="#64397e"/>
      <path id="Path_169" data-name="Path 169" d="M2310.58,6c2.327,0,4.656-.056,6.981.012,4.388.128,6.583,2.221,6.753,6.33.188,4.554-2.074,7.691-6.245,7.911-5.106.268-10.236.089-15.355.123-.677,0-.913-.262-.91-.924.016-4.189.027-8.378,0-12.567-.008-1.028.643-.9,1.276-.9h7.505Z" transform="translate(-2268.293 20.943)" fill="#64397e"/>
    </g>
  </g>
</svg>
