<svg xmlns="http://www.w3.org/2000/svg" width="156" height="156" viewBox="0 0 156 156">
  <g id="Group_311" data-name="Group 311" transform="translate(-339 -3996)">
    <circle id="Ellipse_59" data-name="Ellipse 59" cx="78" cy="78" r="78" transform="translate(339 3996)" fill="#fff"/>
    <g id="Group_296" data-name="Group 296" transform="translate(382.433 4029.891)">
      <path id="Path_159" data-name="Path 159" d="M1680.681,441.5c-.408-5.322-.789-10.646-1.229-15.965-.524-6.337-1.1-12.669-1.649-19q-.838-9.592-1.679-19.183c-.147-1.673-.285-3.348-.472-5.017-.1-.866.208-1.233,1.082-1.135a8.046,8.046,0,0,0,.9,0h63.08c2.152,0,2.061-.005,1.853,2.2-.6,6.331-1.111,12.669-1.661,19-.544,6.275-1.114,12.548-1.633,18.824-.559,6.754-1.071,13.512-1.6,20.268a2.6,2.6,0,0,1-1.175,1.508,46.158,46.158,0,0,1-54.64,0A2.6,2.6,0,0,1,1680.681,441.5Zm28.46-8c-1.376-.351-2.757-.679-4.125-1.058-1.671-.463-3.814-.5-4.864-1.585-1.132-1.168-.427-3.413-.659-5.176a.807.807,0,0,1-.009-.18c.093-.943-.338-1.235-1.263-1.208q-3.062.089-6.127,0c-1-.029-1.4.223-1.281,1.307.372,3.46.728,6.924.949,10.4.073,1.144.555,1.477,1.545,1.75,5.3,1.463,10.578,3,15.863,4.514,0,2.283.039,4.566-.007,6.848-.026,1.259.37,1.552,1.616,1.189q9.563-2.787,19.17-5.426c.794-.219,1.214-.454,1.281-1.372.3-4.108.669-8.211,1.043-12.313.7-7.669,1.463-15.332,2.115-23,.563-6.607.96-13.229,1.555-19.833.1-1.132-.122-1.33-1.135-1.327q-12.073.037-24.146-.009c-1.227-.007-1.538.461-1.506,1.592.059,2.1,0,4.2-.008,6.306-6.478.02-12.955.068-19.432.032-1.194-.007-1.552.288-1.365,1.5a33.049,33.049,0,0,1,.526,5.539c-.026,1.589.718,1.662,1.94,1.647,4.319-.051,8.638-.026,12.957-.01.419,0,.9-.167,1.4.3-4.808,2.4-9.489,4.786-14.218,7.072a1.809,1.809,0,0,0-1.2,2.211,35.7,35.7,0,0,1,.526,5.54c-.022,1.705.745,1.854,2.152,1.841,5.577-.051,11.154.016,16.731.039Q1709.155,427.064,1709.14,433.5Z" transform="translate(-1675.635 -362.409)" fill="#016ec0"/>
      <path id="Path_160" data-name="Path 160" d="M1801.6,331.065c.1,1.19-.35,1.641-1.628,1.556-1.973-.13-3.959-.039-5.941-.03-.522,0-1.119-.12-1.129.741s.577.761,1.1.763c2.1.008,4.2.04,6.3-.013.908-.023,1.381.216,1.231,1.2-.009.059,0,.12,0,.18-.136,2.073.874,4.785-.419,6.029-1.045,1-3.752.29-5.723.316-1.5.019-3.006-.071-4.5.024-1.557.1-1.147-.963-1.207-1.791-.066-.913-.057-1.62,1.254-1.55,2.036.107,4.08.031,6.121.024.535,0,1.139.071,1.144-.753s-.6-.756-1.138-.759c-1.981-.008-3.963-.048-5.942.014-1.03.032-1.536-.176-1.463-1.369.1-1.735.076-3.482.007-5.22-.038-.964.308-1.24,1.234-1.215,1.617.043,3.237-.03,4.855-.055a31.638,31.638,0,0,0,3.886.039C1801.177,329.028,1801.831,329.519,1801.6,331.065Z" transform="translate(-1748.515 -329.152)" fill="#050505"/>
      <path id="Path_161" data-name="Path 161" d="M1720.177,329.152c1.676.025,3.354.1,5.028.058,1.5-.041.976,1.031,1.02,1.745s.292,1.6-1.034,1.558c-2.095-.073-4.2.022-6.292-.037-.955-.027-1.33.181-1.353,1.254-.106,4.785-.145,4.784,4.678,4.784a12.982,12.982,0,0,0,2.154-.02c1.714-.292,1.981.541,1.9,2.009-.053,1.014-.326,1.343-1.346,1.324q-4.673-.084-9.349,0c-.966.017-1.213-.318-1.2-1.237.028-3.175-.023-6.35-.043-9.525-.232-1.546.424-2.037,1.952-1.875A31.636,31.636,0,0,0,1720.177,329.152Z" transform="translate(-1700.344 -329.152)" fill="#050505"/>
      <path id="Path_162" data-name="Path 162" d="M1757.99,341.886q-1.979,0-3.959,0A1.916,1.916,0,0,1,1752.2,339c.278-.635.81-.388,1.234-.394,1.979-.03,3.958-.011,5.938-.016.59,0,1.27.109,1.211-.843-.053-.85-.7-.662-1.2-.666-1.979-.018-3.961-.063-5.937.013-1.046.04-1.332-.328-1.289-1.329.074-1.736.057-3.479.005-5.217-.026-.863.114-1.289,1.144-1.268,3.178.067,6.359.085,9.536,0,1.4-.039,1.2.8,1.168,1.626s.361,1.859-1.2,1.788c-2.095-.1-4.2-.026-6.3-.021-.529,0-1.116-.114-1.126.744s.563.762,1.1.764c2.1,0,4.2.037,6.3-.013.925-.022,1.28.271,1.245,1.229-.064,1.737-.074,3.481,0,5.217.047,1.07-.384,1.334-1.365,1.293C1761.111,341.838,1759.549,341.885,1757.99,341.886Z" transform="translate(-1724.422 -329.231)" fill="#050505"/>
      <path id="Path_163" data-name="Path 163" d="M1731.611,466.586c-5.285-1.512-10.564-3.05-15.862-4.514-.991-.274-1.472-.607-1.546-1.75-.221-3.472-.578-6.936-.949-10.4-.116-1.084.285-1.336,1.281-1.307q3.061.089,6.127,0c.925-.027,1.356.266,1.263,1.208a.779.779,0,0,0,.009.18c.231,1.762-.474,4.007.659,5.176,1.05,1.084,3.193,1.122,4.864,1.585,1.368.38,2.75.708,4.125,1.058,2.7-.7,5.394-1.443,8.113-2.067.868-.2,1-.7,1.061-1.395.289-3.094.583-6.188.889-9.417h-10.032c-5.577-.023-11.155-.09-16.731-.039-1.408.013-2.175-.136-2.153-1.841a35.723,35.723,0,0,0-.526-5.54,1.809,1.809,0,0,1,1.2-2.211c4.729-2.286,9.411-4.67,14.219-7.072-.5-.463-.98-.294-1.4-.3-4.319-.015-8.638-.041-12.957.01-1.222.015-1.967-.058-1.941-1.647a32.986,32.986,0,0,0-.526-5.539c-.187-1.214.171-1.508,1.365-1.5,6.478.035,12.955-.013,19.432-.032,6.486.02,12.972.066,19.458.038,1.16-.005,1.583.227,1.378,1.491a43.516,43.516,0,0,0-.562,5.722,1.87,1.87,0,0,1-1.265,1.864c-4.385,2.184-8.737,4.432-13.1,6.662-.6.305-1.183.633-1.774.95l.127.286h11.853c3.189,0,3.263.006,3.019,3.132-.546,6.992-1.2,13.975-1.733,20.968a1.54,1.54,0,0,1-1.383,1.657C1742.261,463.482,1736.941,465.051,1731.611,466.586Z" transform="translate(-1698.076 -386.732)" fill="#fcfdfe"/>
      <path id="Path_164" data-name="Path 164" d="M1768.534,452.6c5.33-1.536,10.65-3.1,16-4.578a1.54,1.54,0,0,0,1.383-1.657c.533-6.993,1.188-13.977,1.733-20.968.244-3.127.171-3.132-3.019-3.132h-11.853l-.127-.286c.591-.317,1.177-.644,1.774-.95,4.362-2.23,8.714-4.478,13.1-6.662a1.869,1.869,0,0,0,1.265-1.864,43.556,43.556,0,0,1,.562-5.722c.206-1.264-.217-1.5-1.378-1.491-6.486.028-12.972-.018-19.458-.038.009-2.1.068-4.206.008-6.306-.032-1.131.28-1.6,1.506-1.592q12.073.065,24.146.009c1.013,0,1.236.2,1.135,1.327-.595,6.6-.992,13.226-1.555,19.833-.653,7.672-1.417,15.335-2.116,23-.374,4.1-.742,8.205-1.043,12.313-.067.918-.488,1.152-1.281,1.372q-9.6,2.654-19.17,5.426c-1.246.363-1.642.07-1.616-1.189C1768.573,457.162,1768.536,454.878,1768.534,452.6Z" transform="translate(-1734.999 -372.741)" fill="#0199dc"/>
      <path id="Path_165" data-name="Path 165" d="M1768.52,490.487h10.032c-.305,3.229-.6,6.323-.888,9.417-.065.69-.193,1.2-1.061,1.395-2.719.624-5.41,1.369-8.113,2.068Q1768.5,496.926,1768.52,490.487Z" transform="translate(-1734.985 -432.272)" fill="#0199dc"/>
    </g>
  </g>
</svg>
