<svg xmlns="http://www.w3.org/2000/svg" width="99.176" height="94.594" viewBox="0 0 99.176 94.594">
  <g id="Group_297" data-name="Group 297" transform="translate(1744.688 -982.282)">
    <path id="Path_104" data-name="Path 104" d="M-1680.046,1070.367a6.669,6.669,0,0,1-10.41-4.2,4.062,4.062,0,0,1,.484-3.1c1.6-1.652.428-2.967-.19-4.3-.192-.416-1.148-.661-1.759-.67-4.322-.056-8.646-.03-12.969-.031-.516,0-1.033,0-1.548-.011-1.243-.036-2.2-.516-2.217-1.889-.022-1.482.994-2,2.3-2.018,2.774-.028,5.549-.012,8.324-.014h2.569c0-1.277-.023-2.414,0-3.55.065-2.774,1.386-4.22,4.075-4.8a3.128,3.128,0,0,0,1.511-1.349,9.9,9.9,0,0,0,.837-1.94c-2.586-4.1-2.38-5.128,1.825-9.116,2.225-2.109,4.065-2.092,7.079.1a13.535,13.535,0,0,0,2.259-.993,4.205,4.205,0,0,0,1.19-1.461c.212-.373.151-.891.313-1.3.926-2.351,3.383-3.2,7.776-2.734a4.5,4.5,0,0,1,4.151,3.918,2.68,2.68,0,0,0,1.113,1.48,12.086,12.086,0,0,0,2.143.945l4.576-2.015V1012.3h-84.034c-.041.44-.127.933-.127,1.426-.008,11.1-.042,22.2.039,33.295a10.87,10.87,0,0,0,1.007,4.256,4.706,4.706,0,0,0,4.655,2.857c3.419-.037,6.841-.067,10.258.039a3.5,3.5,0,0,1,2.334.974,1.781,1.781,0,0,1-1.577,2.845,126.993,126.993,0,0,1-12.953-.167c-4.273-.379-7.595-4.992-7.648-10.067-.067-6.388-.021-12.776-.021-19.164,0-11.808-.028-23.616.015-35.424.017-4.455,1.685-8.1,5.925-10.026a10.759,10.759,0,0,1,4.318-.739c23.616-.043,47.233.132,70.846-.125,7.57-.082,11.008,5.613,11,10.963q-.026,17.035,0,34.069c0,1.548.054,3.1-.015,4.645a5.071,5.071,0,0,0,1.286,4.027c1.642,1.8,1.306,3.677-.709,6.31a17.288,17.288,0,0,1,.858,2.093c.275,1,.754,1.587,1.88,1.484a2.212,2.212,0,0,1,.928.228c1.932.747,2.766,2.29,2.8,5.013.038,2.61.375,5.715-2.767,6.48-2.384.581-3.024,1.954-3.626,3.816,2.523,4.129,1.056,8.439-3.581,10.309a4.394,4.394,0,0,1-4.544-.713c-1.2-.908-4.033.266-4.331,1.75-.584,2.9-1.979,4.071-4.917,4.1-1.032.01-2.067.04-3.1-.016a4.166,4.166,0,0,1-3.877-2.728c-.307-.751-.165-1.886-.675-2.311A12.434,12.434,0,0,0-1680.046,1070.367Zm23.43-62.273c0-5.527.229-10.88-.077-16.2-.223-3.876-2.585-5.616-6.477-5.616q-35.52,0-71.042,0c-3.673,0-6.12,1.7-6.346,5.33-.338,5.44-.088,10.917-.088,16.487Zm2.363,57.138a7.025,7.025,0,0,0-.489-.735c-2.052-2.3-2.053-2.3-.658-5.117a4.635,4.635,0,0,0,.478-1.053c.582-2.87,1.734-5.038,5.353-4.166v-4.488c-3.693.949-4.736-1.346-5.343-4.164a1.356,1.356,0,0,0-.245-.523c-1.755-2.282-1.574-4.325.727-6.128.067-.053.031-.238.042-.361l-.321.307-2.544-3.457c-1.919,3.264-4.157,2.744-6.511,1.149a1.036,1.036,0,0,0-.346-.17c-2.816-.589-5.131-1.605-4.2-5.311h-4.495c.926,3.694-1.372,4.749-4.182,5.377a1.333,1.333,0,0,0-.527.234c-2.29,1.819-4.316,1.555-6.108-.741-.053-.068-.242-.029-.52-.053l-2.844,2.986c3.148,1.844,2.631,4.081,1.053,6.448a2.173,2.173,0,0,0-.349.894c-.365,2.827-1.986,3.986-4.767,3.659-.092-.01-.2.132-.489.335a19.782,19.782,0,0,0,.048,2.919c.057.39.7,1.036,1.006,1,2.694-.362,3.71,1.143,4.146,3.45a3.479,3.479,0,0,0,.575,1.425c1.708,2.251,1.518,4.218-.753,5.95-.076.058-.058.237-.082.346l2.89,3.167c2-3.381,4.36-2.517,6.783-.942a1.34,1.34,0,0,0,.546.187c2.885.368,4.141,1.992,3.8,4.877-.01.087.145.194.255.333h4.081c-1.059-3.96,1.656-4.772,4.451-5.516a1.008,1.008,0,0,0,.351-.159c2.233-1.717,4.216-1.491,5.958.743.058.075.238.055.546.117Z" transform="translate(0 0)" fill="#ff440e"/>
    <path id="Path_105" data-name="Path 105" d="M-1640.211,1100c-1.547-1.749-2.941-3.344-4.356-4.92-.935-1.041-1.341-2.144-.115-3.178,1.128-.952,2.15-.446,3.017.532q2.436,2.746,4.874,5.491a2.773,2.773,0,0,1,.013,4.133q-2.5,2.814-5.012,5.626c-.841.941-1.851,1.269-2.883.42-1.131-.931-.924-2.008-.023-3.026C-1643.25,1103.442-1641.8,1101.8-1640.211,1100Z" transform="translate(-60.824 -66.876)" fill="#ff440e"/>
    <path id="Path_106" data-name="Path 106" d="M-1711.745,1100c1.5,1.678,2.856,3.22,4.233,4.745.958,1.061,1.559,2.233.261,3.344-1.19,1.019-2.247.373-3.15-.664-1.564-1.8-3.162-3.564-4.743-5.346a2.809,2.809,0,0,1-.01-4.144c1.661-1.883,3.337-3.753,5.012-5.624.841-.939,1.861-1.285,2.882-.42,1.1.933.894,2.047.012,3.054C-1708.687,1096.584-1710.151,1098.206-1711.745,1100Z" transform="translate(-17.545 -66.873)" fill="#ff440e"/>
    <path id="Path_107" data-name="Path 107" d="M-1670.38,1089.418c-.214.99-.314,1.492-.432,1.99q-1.642,6.933-3.292,13.866c-.1.437-.1,1.035-.382,1.268-.67.55-1.719,1.456-2.183,1.248-.708-.316-1.6-1.564-1.463-2.217,1.13-5.4,2.422-10.773,3.837-16.108a2.684,2.684,0,0,1,2.076-1.469C-1671.562,1087.994-1670.9,1088.984-1670.38,1089.418Z" transform="translate(-40.783 -64.793)" fill="#ff440e"/>
    <path id="Path_108" data-name="Path 108" d="M-1669.674,1170.444c-.759.5-1.53,1.395-2.274,1.373a2.651,2.651,0,0,1-1.818-1.691,1.552,1.552,0,0,1,1.761-1.957c.817.093,1.551.913,2.322,1.408Q-1669.678,1170.011-1669.674,1170.444Z" transform="translate(-43.431 -113.924)" fill="#ff440e"/>
    <path id="Path_109" data-name="Path 109" d="M-1596.213,1004.219c2.77,0,5.541-.043,8.309.011a6.531,6.531,0,0,1,6.754,6.473,6.489,6.489,0,0,1-6.68,6.554q-8.5.142-17,0a6.489,6.489,0,0,1-6.744-6.676c.086-3.655,2.906-6.3,6.862-6.359C-1601.882,1004.183-1599.047,1004.219-1596.213,1004.219Zm-.125,9.12c2.768,0,5.536.034,8.3-.012,1.86-.031,2.931-1.052,2.91-2.624-.02-1.557-1.107-2.537-2.983-2.546q-8.208-.04-16.416,0c-1.95.008-3.162,1.063-3.138,2.623s1.206,2.535,3.211,2.557C-1601.746,1013.365-1599.042,1013.342-1596.338,1013.34Z" transform="translate(-81.582 -13.436)" fill="#ff440e"/>
    <path id="Path_110" data-name="Path 110" d="M-1708.234,1017.309a6.471,6.471,0,0,1-6.469-6.528,6.453,6.453,0,0,1,6.686-6.493,6.542,6.542,0,0,1,6.417,6.613A6.562,6.562,0,0,1-1708.234,1017.309Zm.014-9.093a2.565,2.565,0,0,0-2.572,2.568,2.554,2.554,0,0,0,2.75,2.577,2.581,2.581,0,0,0,2.486-2.658A2.593,2.593,0,0,0-1708.219,1008.216Z" transform="translate(-18.378 -13.487)" fill="#ff440e"/>
    <path id="Path_111" data-name="Path 111" d="M-1664.307,1017.307a6.454,6.454,0,0,1-6.512-6.472,6.43,6.43,0,0,1,6.418-6.555,6.51,6.51,0,0,1,6.645,6.557A6.519,6.519,0,0,1-1664.307,1017.307Zm.039-9.1a2.52,2.52,0,0,0-2.627,2.484,2.522,2.522,0,0,0,2.638,2.665,2.526,2.526,0,0,0,2.536-2.58A2.522,2.522,0,0,0-1664.269,1008.211Z" transform="translate(-45.274 -13.482)" fill="#ff440e"/>
    <path id="Path_112" data-name="Path 112" d="M-1583.75,1143.308a11.847,11.847,0,0,1,11.947-11.844,11.841,11.841,0,0,1,11.848,11.944,11.843,11.843,0,0,1-11.948,11.847A11.847,11.847,0,0,1-1583.75,1143.308Zm19.866.078a7.922,7.922,0,0,0-7.942-8.014,7.972,7.972,0,0,0-8.013,7.96,7.917,7.917,0,0,0,7.959,7.993A7.878,7.878,0,0,0-1563.884,1143.387Z" transform="translate(-98.639 -91.435)" fill="#ff440e"/>
  </g>
</svg>
