<svg xmlns="http://www.w3.org/2000/svg" width="27.299" height="19.5" viewBox="0 0 27.299 19.5">
  <g id="Group_248" data-name="Group 248" transform="translate(-93.854 -1607.229)">
    <path id="Path_1868" data-name="Path 1868" d="M93.985,1622.995c.317.206.5.324.687.446l10.941,7.292a2.957,2.957,0,0,0,3.773.007q5.472-3.643,10.941-7.291c.2-.131.4-.253.688-.433a9.994,9.994,0,0,1,.131,1.1q.012,6.7,0,13.4a2.913,2.913,0,0,1-3.073,3.051q-10.568.007-21.136,0a2.921,2.921,0,0,1-3.083-3.1q-.007-6.639,0-13.279C93.861,1623.83,93.933,1623.473,93.985,1622.995Z" transform="translate(0 -13.845)" fill="#ff440e"/>
    <path id="Path_1869" data-name="Path 1869" d="M104.788,1607.567a9.026,9.026,0,0,1,1.61-.323q10.72-.028,21.441,0a9.274,9.274,0,0,1,1.576.3c-.285.221-.411.331-.548.423-3.646,2.433-7.3,4.856-10.934,7.3a1.306,1.306,0,0,1-1.662,0c-3.6-2.426-7.22-4.825-10.832-7.234C105.273,1607.921,105.114,1607.8,104.788,1607.567Z" transform="translate(-9.602 0)" fill="#ff440e"/>
  </g>
</svg>
