<svg xmlns="http://www.w3.org/2000/svg" xmlns:xlink="http://www.w3.org/1999/xlink" width="309" height="58" viewBox="0 0 309 58">
  <defs>
    <linearGradient id="linear-gradient" x1="0.146" y1="0.894" x2="0.854" y2="0.187" gradientUnits="objectBoundingBox">
      <stop offset="0" stop-color="#0092ff"/>
      <stop offset="0.26" stop-color="#6d4eff"/>
      <stop offset="0.5" stop-color="#cf25dd"/>
      <stop offset="0.76" stop-color="#ff226e"/>
      <stop offset="1" stop-color="#ffe700"/>
    </linearGradient>
  </defs>
  <g id="Group_342" data-name="Group 342" transform="translate(-4917 -8101)">
    <path id="Path_1886" data-name="Path 1886" d="M195.911,68.47h.394l1.195.174c.754.093,1.52.174,2.274.29a22.238,22.238,0,0,1,3.886.9,26.676,26.676,0,0,1,3.886,1.566c.731.383,1.485.731,2.192,1.16a29.224,29.224,0,0,1,12.516,15.289,26.222,26.222,0,0,1,.916,3.132c.244,1.1.383,2.227.534,3.352.1.777.174,1.566.209,2.355a24.253,24.253,0,0,1-.267,4.582,25.869,25.869,0,0,1-.534,2.981,27.734,27.734,0,0,1-1.079,3.457,28.21,28.21,0,0,1-1.67,3.666,28.749,28.749,0,0,1-18.618,14.3c-.742.186-1.5.325-2.274.487V105.88h6.4c.244,0,.383-.035.36-.313a4.061,4.061,0,0,1,.081-.522c.1-.638.209-1.288.3-1.926l.209-1.427c.116-.754.244-1.52.36-2.274.093-.615.186-1.23.267-1.844,0-.012.012-.035,0-.046a2.183,2.183,0,0,0-.383-.058h-7.621c0-.093-.012-.186-.012-.278V92.076a5.394,5.394,0,0,1,.2-1.554,3.75,3.75,0,0,1,2.018-2.448,5.642,5.642,0,0,1,2.39-.476c1.148-.035,2.3,0,3.445,0h.3V80.453c-.87-.1-1.717-.209-2.564-.29-.94-.093-1.879-.2-2.83-.232-.835-.023-1.682.023-2.517.058a10.36,10.36,0,0,0-3.132.673,9.206,9.206,0,0,0-5.522,5.475,12.206,12.206,0,0,0-.835,4.373c0,2.216,0,4.431-.012,6.658a1.641,1.641,0,0,1-.023.336h-6.983c-.116,0-.244.035-.36.046a3.348,3.348,0,0,0-.046.336v7.7a1.592,1.592,0,0,0,.058.325h.058c.116,0,.232.012.336.012h6.937v20.219a2.066,2.066,0,0,1-.464,0c-1.264-.313-2.529-.6-3.782-.951a23.572,23.572,0,0,1-4.443-1.833,29.3,29.3,0,0,1-12.679-12.737c-.313-.615-.568-1.253-.847-1.891a22.988,22.988,0,0,1-1.322-3.99c-.255-1.067-.452-2.158-.626-3.248-.128-.789-.162-1.578-.244-2.378a.5.5,0,0,0-.058-.151v-.452a.405.405,0,0,0,.058-.151V96.727a.5.5,0,0,0-.058-.151v-.568c.035-.336.081-.673.116-1.009.081-.684.1-1.38.232-2.053.22-1.114.476-2.227.766-3.329a25.365,25.365,0,0,1,1.949-5.046,29.881,29.881,0,0,1,3.422-5.29,28.934,28.934,0,0,1,11.519-8.572,25.842,25.842,0,0,1,5.812-1.67,23.825,23.825,0,0,1,3.4-.394,1.038,1.038,0,0,0,.3-.1h.51a.513.513,0,0,0,.174.058h1.578a.513.513,0,0,0,.174-.058Z" transform="translate(4751.11 8032.53)" fill="#0076fb"/>
    <g id="Group_339" data-name="Group 339" transform="translate(5000.52 8101)">
      <circle id="Ellipse_51" data-name="Ellipse 51" cx="29" cy="29" r="29" transform="translate(0.48 0)" fill="url(#linear-gradient)"/>
      <g id="Group_241" data-name="Group 241" transform="translate(13.908 13.95)">
        <path id="Path_1871" data-name="Path 1871" d="M158.229,15.408c.081.139.174.267.255.406.058.093.116.186.162.267.012.023.035.046.046.07h0c.128.232.255.476.371.708a9.332,9.332,0,0,1,.684,2.506V34.351l-.209,1.183v.151c-.07.267-.128.522-.2.789-.012.035-.023.081-.035.116-.012,0-.012.012,0,.023-.023.023-.058.035-.07.058-.128.325-.255.65-.383.963l-.661,1.079c-.093.116-.174.22-.267.336-.29.29-.568.592-.87.882a5.424,5.424,0,0,1-1.868,1.218,2.639,2.639,0,0,0-.452.278,9.911,9.911,0,0,1-2.158.592h-.116c-.278,0-.568.023-.847.035h-14.28a5.412,5.412,0,0,1-1.612-.22c-.476-.139-.94-.348-1.4-.534-.394-.232-.8-.464-1.183-.708-.255-.162-.487-.36-.731-.545a.493.493,0,0,1-.058-.081l-.035-.035c-.313-.29-.626-.592-.94-.882-.128-.2-.278-.394-.394-.6-.278-.5-.534-1.009-.812-1.52-.174-.615-.348-1.218-.51-1.833a2.823,2.823,0,0,1-.035-.441c0-.278-.012-.557-.023-.847V31c0-.081.012-.174.012-.255V19.8c0-.209,0-.418.012-.638.07-.325.128-.661.22-.974a12.7,12.7,0,0,1,.534-1.5,8.043,8.043,0,0,1,3.967-3.944c.452-.2.916-.348,1.369-.51a15.906,15.906,0,0,1,3.561-.232h12.644c.07.012.139.035.209.046a13.924,13.924,0,0,1,1.554.22,7.637,7.637,0,0,1,3.41,1.891c.406.383.742.824,1.114,1.23Zm-21.912-.545a5.387,5.387,0,0,0-1.81.893,5.119,5.119,0,0,0-1.322,1.415,4.782,4.782,0,0,0-.754,1.682,7.016,7.016,0,0,0-.162,2.308v8.654c0,.035-.012.081-.012.116v4.025a3.087,3.087,0,0,0,.035.325c.023.174.046.36.081.534a10.029,10.029,0,0,0,.313,1.195,5.008,5.008,0,0,0,1.021,1.612,5.117,5.117,0,0,0,2.192,1.462c.464.151.951.244,1.415.348.116,0,.232,0,.348.012h.128c.186,0,.36.012.545,0,.406,0,.824-.012,1.23-.023h12.2a2.874,2.874,0,0,0,.313-.035,11.9,11.9,0,0,0,1.276-.278,5.447,5.447,0,0,0,2.946-2.332,3.354,3.354,0,0,0,.336-.638,4.525,4.525,0,0,0,.406-1.612c0-.626.046-1.264.081-1.891V32c0-.87,0-1.752-.012-2.622V27.832h0v-.441h0V27.24h0V27.09h0V25.164h0V25h0v-.162h0v-.162h0v-.325h0v-.325h0v-.162h0V23.54h0v-.151h0V21.58h0v-.174s0-.023-.012-.023v-.9h0v-.162h0v-.151c-.012-.151-.035-.3-.046-.464a.714.714,0,0,0-.023-.22c-.093-.394-.186-.789-.29-1.195-.035-.1-.081-.209-.116-.313a4.163,4.163,0,0,0-.742-1.253,2.54,2.54,0,0,0-.824-.824,5.334,5.334,0,0,0-3.26-1.218.339.339,0,0,1-.1-.023H139.042c-.65,0-1.3,0-1.949.035a3.822,3.822,0,0,0-.615.116h-.046c-.035,0-.058.023-.093.035Z" transform="translate(-129.6 -12.005)" fill="#fefdfe"/>
        <path id="Path_1872" data-name="Path 1872" d="M151.972,25.557v1.264a8.742,8.742,0,0,1-.162.986c-.116.441-.267.882-.394,1.322-.162.336-.325.673-.487,1.021a8.548,8.548,0,0,1-1.775,2.146c-.093.081-.174.174-.255.255h-.035c-.348.232-.684.487-1.056.684-.5.267-1.021.487-1.543.719h-.046a.442.442,0,0,0-.116.035c-.313.081-.638.162-.951.232a5.541,5.541,0,0,1-.615.07c-.476,0-.94.035-1.415,0a7.332,7.332,0,0,1-1.415-.22c-.487-.128-.963-.336-1.438-.51h0a9.908,9.908,0,0,1-1.856-1.23l-.418-.348-.557-.626c-.29-.418-.568-.835-.858-1.253h0l-.035-.07c-.151-.336-.313-.673-.464-1.009a13.444,13.444,0,0,1-.383-1.334,13.639,13.639,0,0,1-.128-1.369v-.557a6.918,6.918,0,0,1,.406-2.285,8.145,8.145,0,0,1,1.241-2.32.711.711,0,0,0,.081-.2,2.677,2.677,0,0,0,.162-.22,1.615,1.615,0,0,0,.22-.174c.255-.244.487-.51.754-.731a7.895,7.895,0,0,1,4.791-1.949h1.195a2.446,2.446,0,0,1,.406.058c.394.07.789.151,1.172.232a.442.442,0,0,1,.116.035h0s.07.035.1.046a7.436,7.436,0,0,1,1.81.87c.3.2.592.406.882.615a.253.253,0,0,1,.058.046h0c.371.371.742.754,1.1,1.125.186.267.371.534.557.789a2.3,2.3,0,0,0,.232.244v.1a7.613,7.613,0,0,1,.812,1.96c.081.371.139.742.209,1.1,0,.139.023.267.035.406ZM140.187,30.2s.023.023.035.023a.04.04,0,0,0,.023.012l.684.51a5.942,5.942,0,0,0,2.123.742,2.214,2.214,0,0,0,.383.07c.336,0,.673-.046,1.009-.07a4.657,4.657,0,0,0,1.659-.5l.348-.174c.151-.116.313-.22.464-.336h0c.081-.058.162-.093.244-.162a5.418,5.418,0,0,0,1.96-3.666v-.986a11.746,11.746,0,0,0-.29-1.3,7.43,7.43,0,0,0-.5-1.067c-.07-.093-.128-.186-.2-.278a5.142,5.142,0,0,0-2.645-1.96,7.648,7.648,0,0,0-1.021-.232h-1.438a7.2,7.2,0,0,0-.719.162c-.36.128-.719.267-1.067.429A5.046,5.046,0,0,0,138.806,24a7.708,7.708,0,0,0-.371,1.276,4.557,4.557,0,0,0-.023,1.682,3.558,3.558,0,0,0,.116.592c.1.3.232.6.348.9a4.9,4.9,0,0,0,.951,1.415l.2.2h0l.035.035h0l.116.116h0Z" transform="translate(-128.645 -11.063)" fill="#fefdfe"/>
        <path id="Path_1873" data-name="Path 1873" d="M148.157,17.677c.058-.1.1-.209.162-.313a1.742,1.742,0,0,1,2.552-.464c.1.1.2.209.3.313a1.5,1.5,0,0,1,.406,1.1,1.8,1.8,0,0,1-1.056,1.578,1.634,1.634,0,0,1-1.612-.081l-.638-.673a2.011,2.011,0,0,1-.22-.522,1.7,1.7,0,0,1,.1-.928Z" transform="translate(-126.651 -11.281)" fill="#fefdfe"/>
      </g>
    </g>
    <g id="Group_340" data-name="Group 340" transform="translate(5084.04 8101)">
      <circle id="Ellipse_52" data-name="Ellipse 52" cx="29" cy="29" r="29" transform="translate(-0.04 0)"/>
      <path id="Path_1874" data-name="Path 1874" d="M125.222,176.862v-.012h8.294c0,.012.023.035.035.046.766,1.1,1.52,2.216,2.285,3.318.545.789,1.09,1.589,1.636,2.378,1.044,1.52,2.088,3.028,3.12,4.547.035.058.081.116.116.174.128-.151.255-.3.383-.441.36-.418.719-.835,1.067-1.241.626-.731,1.264-1.462,1.891-2.192.51-.6,1.032-1.195,1.543-1.8l1.3-1.508,2.772-3.225a.088.088,0,0,1,.023-.046h2.448a.705.705,0,0,1-.081.116l-2.332,2.714c-.476.557-.963,1.114-1.438,1.67-1.392,1.624-2.8,3.248-4.188,4.872l-1.682,1.96c-.209.244-.418.476-.615.719a.116.116,0,0,0,.046.058c.708,1.021,1.415,2.053,2.111,3.074.626.916,1.264,1.833,1.891,2.761.336.5.684,1,1.032,1.485l1.74,2.54c.87,1.264,1.74,2.529,2.61,3.8.406.58.8,1.172,1.206,1.752.209.3.406.6.615.9-.035,0-.058.023-.093.023h-8.178l-.023-.023c-.7-1.009-1.38-2.007-2.076-3.016l-2.158-3.132c-1.09-1.578-2.169-3.167-3.26-4.744a.813.813,0,0,0-.093-.116l-.012.012c-1.415,1.636-2.819,3.283-4.234,4.918-.545.626-1.079,1.253-1.624,1.879l-1.241,1.45-2.192,2.54c-.07.081-.128.162-.2.244h-.035a.41.41,0,0,0-.07-.012h-2.25a.147.147,0,0,0-.07.012h-.035v-.012l.209-.244,2.146-2.494c1.52-1.775,3.051-3.538,4.57-5.313.534-.626,1.067-1.241,1.612-1.868.719-.835,1.438-1.682,2.169-2.517.058-.07.116-.139.174-.2l-.139-.209c-.87-1.264-1.74-2.529-2.61-3.782-.522-.754-1.032-1.52-1.554-2.274q-1.879-2.749-3.77-5.475c-.394-.568-.777-1.137-1.172-1.705-.452-.661-.9-1.311-1.357-1.96-.093-.139-.186-.267-.278-.394ZM149.7,203.518a.461.461,0,0,0-.035-.046c-.476-.673-.94-1.346-1.415-2.018-.487-.708-.986-1.4-1.473-2.111-.847-1.206-1.682-2.4-2.529-3.608-.394-.568-.789-1.137-1.183-1.694s-.777-1.125-1.172-1.682c-.777-1.114-1.554-2.227-2.343-3.341-.418-.592-.835-1.183-1.241-1.786-1.264-1.81-2.54-3.631-3.8-5.44-.313-.452-.626-.893-.94-1.346-.394-.568-.789-1.125-1.172-1.694a.118.118,0,0,0-.116-.058h-3.7a.708.708,0,0,1,.046.07c.151.209.3.418.441.638.835,1.183,1.659,2.378,2.494,3.561.963,1.38,1.926,2.749,2.888,4.13.557.789,1.1,1.578,1.659,2.366l2.854,4.072c.754,1.067,1.5,2.146,2.25,3.213.858,1.241,1.728,2.471,2.587,3.712.708,1.009,1.415,2.018,2.111,3.028a.118.118,0,0,0,.116.058h3.689S149.709,203.518,149.7,203.518Z" transform="translate(-110.142 -162.083)" fill="#fff"/>
    </g>
    <g id="Group_341" data-name="Group 341" transform="translate(5167.56 8101)">
      <circle id="Ellipse_53" data-name="Ellipse 53" cx="29" cy="29" r="29" transform="translate(0.44)" fill="#0075b8"/>
      <g id="Group_244" data-name="Group 244" transform="translate(15.075 15.122)">
        <path id="Path_1875" data-name="Path 1875" d="M146.362,29.121a5.092,5.092,0,0,0-.476-2.158,2.215,2.215,0,0,0-1.717-1.253,3.93,3.93,0,0,0-2.54.313,2.572,2.572,0,0,0-1.032,1.021,4.4,4.4,0,0,0-.568,1.821c-.046.51-.081,1.021-.081,1.531v9.129c0,.012-.023.023-.023.035h-5.661c0-.116-.023-.22-.023-.336V21.048c.093,0,.174-.023.267-.023h4.965c.22,0,.29.058.29.29-.012.742,0,1.485,0,2.3a1.536,1.536,0,0,0,.2-.2,5.465,5.465,0,0,1,2.355-2.146,5.683,5.683,0,0,1,2.622-.638,15.853,15.853,0,0,1,1.659.058,5.385,5.385,0,0,1,5.15,4.246,12.1,12.1,0,0,1,.348,1.937c.093.812.1,1.636.162,2.459a.1.1,0,0,0,.012.058v10.15c-.023,0-.023.023-.023.035h-5.719c0-.1-.023-.209-.023-.313V29.678a4.714,4.714,0,0,0-.058-.568Z" transform="translate(-124.352 -11.821)" fill="#fff"/>
        <path id="Path_1876" data-name="Path 1876" d="M126.132,39.472V21c.012,0,.023-.023.035-.035h5.556a.582.582,0,0,1,.139.023V39.17a3.283,3.283,0,0,1-.023.336h-5.684l-.035-.035Z" transform="translate(-125.651 -11.767)" fill="#fff"/>
        <path id="Path_1877" data-name="Path 1877" d="M132.379,16.37a3.286,3.286,0,0,1-3.341,3.352,3.356,3.356,0,0,1-3.318-3.132,3.327,3.327,0,1,1,6.647-.22Z" transform="translate(-125.716 -13.036)" fill="#feffff"/>
      </g>
    </g>
  </g>
</svg>
