<svg xmlns="http://www.w3.org/2000/svg" width="156" height="156" viewBox="0 0 156 156">
  <g id="Group_310" data-name="Group 310" transform="translate(-113 -3996)">
    <circle id="Ellipse_73" data-name="Ellipse 73" cx="78" cy="78" r="78" transform="translate(113 3996)" fill="#fff"/>
    <g id="Group_309" data-name="Group 309" transform="translate(159.153 4029.891)">
      <path id="Path_146" data-name="Path 146" d="M2060.733,346.393c9.994,0,19.988.029,29.982-.033,1.474-.009,1.9.342,1.759,1.856-1.025,10.983-1.962,21.974-2.941,32.962-.852,9.557-1.757,19.109-2.545,28.671-.109,1.32-.479,1.915-1.785,2.265-7.806,2.09-15.591,4.264-23.375,6.438a4.042,4.042,0,0,1-2.29.024q-11.769-3.291-23.558-6.51a1.881,1.881,0,0,1-1.63-1.966q-2.221-25.653-4.568-51.3c-.292-3.251-.635-6.5-.842-9.754-.187-2.944-.619-2.649,2.4-2.653Q2046.035,346.379,2060.733,346.393Zm-.1,50.149c-2.779-.421-5.415-1.41-8.139-2.042-.788-.183-.8-.7-.862-1.3-.172-1.729.354-4.107-.823-4.99-1.145-.859-3.372-.279-5.123-.325-.457-.012-.917.03-1.371-.007-.94-.079-1.25.262-1.141,1.245.345,3.111.736,6.227.837,9.351.057,1.742.856,2.268,2.339,2.658,4.789,1.26,9.545,2.64,14.314,3.975,0,2.088.1,4.182-.026,6.263-.09,1.524.337,1.941,1.83,1.515,6.063-1.729,12.14-3.407,18.22-5.073.644-.177,1.127-.432,1.129-1.124,0-1.307.406-2.551.464-3.865.161-3.562.5-7.117.816-10.67.477-5.357.99-10.71,1.5-16.064.342-3.612.728-7.22,1.037-10.835.342-4.007.61-8.02.928-12.03.085-1.075-.319-1.514-1.442-1.51q-11.456.046-22.912-.005c-1.227-.007-1.586.46-1.552,1.616.061,2.086.013,4.176.011,6.264-5.995.037-11.991.162-17.983.058-1.872-.032-2.132.581-1.963,2.222.675,6.545,1.358,13.094,1.772,19.658.134,2.125.876,2.483,2.767,2.444,5.016-.1,10.036.005,15.054.029a2.921,2.921,0,0,1,.363,1.677Q2060.637,391.109,2060.628,396.543Z" transform="translate(-2028.806 -328.577)" fill="#fa4003"/>
      <path id="Path_147" data-name="Path 147" d="M2118.434,305.361c.766-1.265,1.394-2.252,1.97-3.268a1.8,1.8,0,0,1,1.715-1c3.133-.093,3.131-.132,3.131,3.049,0,2.546-.118,5.1.037,7.637.13,2.137-1.322,1.369-2.323,1.507-1.213.167-2-.04-1.822-1.589a43.179,43.179,0,0,0,.028-4.326c-.764,1.173-1.284,1.859-1.683,2.608-.713,1.337-1.352,1.8-2.187.08a6.394,6.394,0,0,0-1.729-2.108c0,1.374-.068,2.752.017,4.121.111,1.79-1.194,1.188-2.005,1.176-.8-.011-2.072.658-2.034-1.14.07-3.263.047-6.529,0-9.793-.013-.943.324-1.148,1.235-1.233,2.081-.195,3.677.233,4.457,2.405A11.168,11.168,0,0,0,2118.434,305.361Z" transform="translate(-2079.08 -301.041)" fill="#050505"/>
      <path id="Path_148" data-name="Path 148" d="M2043.685,307.166a35.2,35.2,0,0,0-.035-4.3c-.232-1.877.863-1.749,2.109-1.735,1.157.013,2.31-.132,1.959,1.63a2.042,2.042,0,0,0,0,.39,2.158,2.158,0,0,0,3.274,1.989c.773-.4.345-1.153.458-1.747.137-.725-.411-1.847.4-2.106a8.3,8.3,0,0,1,3.288-.058c.57.061.38.738.381,1.162.013,3.258-.011,6.516.021,9.774.008.782-.132,1.127-1.046,1.18-2.947.172-3.06.219-3.006-2.717.034-1.869-1.175-1.234-2.069-1.323-1.045-.1-1.82-.108-1.752,1.439.115,2.617-.631,3.065-3.269,2.6-.8-.142-.712-.587-.713-1.1C2043.682,310.555,2043.686,308.86,2043.685,307.166Z" transform="translate(-2037.806 -301.074)" fill="#050505"/>
      <path id="Path_149" data-name="Path 149" d="M2083.991,301.2h2.935c2.643,0,3.092.638,2.6,3.342-.168.93-.776.818-1.282.72-2.12-.41-2.508.625-2.327,2.449.141,1.421-.052,2.873.053,4.3.086,1.167-.371,1.386-1.432,1.383-2.674-.005-2.674.048-2.674-2.671,0-1.3-.078-2.615.022-3.911.092-1.2-.316-1.75-1.522-1.52-2.215.422-2.083-.936-2.165-2.5-.107-2.009,1.164-1.581,2.267-1.593C2081.643,301.19,2082.817,301.2,2083.991,301.2Z" transform="translate(-2058.815 -301.12)" fill="#050505"/>
      <path id="Path_150" data-name="Path 150" d="M2151.626,307.167c0-1.435.08-2.875-.024-4.3-.1-1.3.23-1.741,1.662-1.8,1.914-.084,2.716.362,2.437,2.412-.192,1.408.068,2.874-.066,4.3-.129,1.372.444,1.683,1.645,1.543.644-.074,1.316.072,1.952-.029,1.792-.284,2.313.408,2.247,2.2-.054,1.431-.343,1.945-1.849,1.847a51.917,51.917,0,0,0-6.453,0c-1.375.083-1.645-.454-1.572-1.663C2151.693,310.17,2151.626,308.667,2151.626,307.167Z" transform="translate(-2103.407 -301.048)" fill="#050505"/>
      <path id="Path_151" data-name="Path 151" d="M2109.46,367.864c0-2.088.05-4.178-.011-6.264-.034-1.156.326-1.623,1.552-1.616q11.455.062,22.912.005c1.124,0,1.528.434,1.443,1.51-.317,4.009-.586,8.022-.927,12.03-.309,3.614-.7,7.223-1.038,10.835-.506,5.354-1.019,10.707-1.5,16.064-.316,3.554-.656,7.108-.815,10.67-.059,1.313-.461,2.557-.465,3.865,0,.692-.484.948-1.129,1.124-6.08,1.666-12.157,3.343-18.22,5.073-1.492.426-1.919.008-1.83-1.515.124-2.081.028-4.175.027-6.263l.573-.293c4.908-1.338,9.813-2.689,14.729-4,.715-.191,1.115-.436,1.185-1.262q.944-11.126,1.977-22.245c.093-1-.125-1.393-1.214-1.379-5.747.074-11.494.082-17.242.114-.115-.058-.229-.12-.342-.183.728-2.64.149-5.338.355-8l-.038-.164c6.063.026,12.126.04,18.188.092.812.007,1.176-.249,1.24-1.074.15-1.949.341-3.9.552-5.839.088-.817-.13-1.193-1.033-1.177-6.318.112-12.64-.179-18.958.157A.359.359,0,0,0,2109.46,367.864Z" transform="translate(-2077.609 -336.854)" fill="#fe5b02"/>
      <path id="Path_152" data-name="Path 152" d="M2078.691,396.334c.113.063.228.124.343.183q0,3.9,0,7.808l-.364.152c-5.019-.024-10.039-.132-15.055-.029-1.891.039-2.633-.319-2.767-2.444-.415-6.564-1.1-13.113-1.771-19.658-.169-1.641.09-2.254,1.963-2.222,5.992.1,11.988-.021,17.982-.058a.355.355,0,0,1-.025.262q0,3.921.01,7.841l.037.164c-3.4-.027-6.791-.042-10.186-.09-.8-.011-1.177.146-1.048,1.094.306,2.261.5,4.537.738,6.806-.011.182.032.3.246.191Z" transform="translate(-2047.174 -349.056)" fill="#ebe6e5"/>
      <path id="Path_153" data-name="Path 153" d="M2083.439,468.869l-.573.293c-4.769-1.335-9.525-2.715-14.315-3.975-1.482-.39-2.281-.916-2.339-2.658-.1-3.123-.491-6.24-.837-9.351-.109-.983.2-1.324,1.141-1.245.454.038.914,0,1.37.007,1.752.046,3.979-.534,5.123.325,1.177.883.652,3.261.824,4.99.06.6.073,1.121.862,1.3,2.724.633,5.36,1.621,8.139,2.042a.938.938,0,0,0,.047.253c0,1.759-.055,3.519,0,5.276C2082.916,467.058,2082.492,468.114,2083.439,468.869Z" transform="translate(-2051.013 -392.636)" fill="#ebe6e5"/>
      <path id="Path_154" data-name="Path 154" d="M2109.449,454.837a.987.987,0,0,1-.047-.253c.012-3.623.019-7.245.04-10.868a2.92,2.92,0,0,0-.362-1.677l.365-.152c2.859.027,5.719.085,8.578.062.928-.007,1.265.235,1.157,1.217q-.445,4.069-.733,8.154c-.064.937-.6,1.144-1.342,1.347C2114.545,453.363,2112,454.11,2109.449,454.837Z" transform="translate(-2077.581 -386.618)" fill="#fe5b02"/>
      <path id="Path_155" data-name="Path 155" d="M2109.921,442.571c2.551-.727,5.1-1.474,7.655-2.17.746-.2,1.278-.409,1.343-1.347q.281-4.083.733-8.154c.107-.981-.229-1.224-1.158-1.217-2.859.022-5.718-.036-8.577-.062q0-3.9,0-7.808c5.747-.031,11.495-.04,17.242-.114,1.088-.014,1.306.381,1.213,1.379q-1.033,11.119-1.976,22.245c-.07.826-.47,1.071-1.185,1.262-4.916,1.31-9.82,2.661-14.728,4-.947-.754-.523-1.81-.554-2.738C2109.865,446.09,2109.916,444.33,2109.921,442.571Z" transform="translate(-2078.051 -374.352)" fill="#fefdfc"/>
      <path id="Path_156" data-name="Path 156" d="M2109.921,388.315q-.005-3.92-.01-7.841c6.317-.335,12.639-.045,18.958-.157.9-.016,1.122.361,1.033,1.177-.211,1.943-.4,3.89-.553,5.839-.063.825-.428,1.081-1.24,1.074C2122.047,388.355,2115.983,388.34,2109.921,388.315Z" transform="translate(-2078.085 -349.202)" fill="#fefdfc"/>
      <path id="Path_157" data-name="Path 157" d="M2092.244,408.994h-9.9a.339.339,0,0,0-.246-.191c-.239-2.27-.431-4.546-.738-6.806-.129-.949.249-1.105,1.048-1.094,3.395.048,6.79.063,10.186.09C2092.392,403.656,2092.972,406.354,2092.244,408.994Z" transform="translate(-2060.726 -361.716)" fill="#fa4003"/>
      <path id="Path_158" data-name="Path 158" d="M2083.281,421.037a.339.339,0,0,1,.246.192C2083.313,421.333,2083.27,421.219,2083.281,421.037Z" transform="translate(-2061.904 -373.95)" fill="#fe5b02"/>
    </g>
  </g>
</svg>
