<svg xmlns="http://www.w3.org/2000/svg" width="157" height="156" viewBox="0 0 157 156">
  <g id="Group_319" data-name="Group 319" transform="translate(-1429 -4205)">
    <ellipse id="Ellipse_66" data-name="Ellipse 66" cx="78.5" cy="78" rx="78.5" ry="78" transform="translate(1429 4205)" fill="#fff"/>
    <g id="Group_307" data-name="Group 307" transform="translate(1443.398 4252.207)">
      <path id="Path_278" data-name="Path 278" d="M-1509.878,1318.734c-4.726,2.887-7.134,6.994-6.738,12.525.394,5.505,3.506,9.124,8.354,11.536-.283.737-.552,1.473-.846,2.2a36.057,36.057,0,0,1-6.889,10.74c-2.759,3.03-6.071,3.966-9.97,2.445-.931-.363-1.867-.715-2.816-1.024a12.967,12.967,0,0,0-8.743.333c-1.24.458-2.493.9-3.769,1.239a6.718,6.718,0,0,1-6.04-1.315,25.3,25.3,0,0,1-5.321-5.952,36.088,36.088,0,0,1-6.745-20.052,18.928,18.928,0,0,1,4.108-13.01,14.964,14.964,0,0,1,11.054-5.583,15.041,15.041,0,0,1,5.774,1.15c1.055.361,2.113.716,3.155,1.112a5.17,5.17,0,0,0,3.735-.023,46.066,46.066,0,0,1,5.961-1.93c6.054-1.275,11.265.247,15.344,5.069C-1510.153,1318.332-1510.054,1318.49-1509.878,1318.734Z" transform="translate(1559.411 -1298.274)"/>
      <path id="Path_279" data-name="Path 279" d="M-1026.231,1354.772a20.508,20.508,0,0,1-2.66,10.033,13.344,13.344,0,0,1-9.578,6.316,17.835,17.835,0,0,1-7.675-.3,12.861,12.861,0,0,1-8.916-7.4,20.461,20.461,0,0,1,0-17.243c2.128-4.746,6.066-7.2,11.158-7.84a16.756,16.756,0,0,1,8.631,1.027c4.608,1.906,7.2,5.507,8.3,10.241C-1026.579,1351.3-1026.469,1353.051-1026.231,1354.772Zm-6.005.067a15.5,15.5,0,0,0-1.255-6.426,8.389,8.389,0,0,0-7.512-5.269c-3.45-.2-6.354,1.02-8.056,4.094a15.168,15.168,0,0,0-.275,14.644c1.6,3.281,4.515,4.71,8.131,4.575a8.37,8.37,0,0,0,7.629-5.1A15.186,15.186,0,0,0-1032.236,1354.839Z" transform="translate(1127.041 -1320.211)"/>
      <path id="Path_280" data-name="Path 280" d="M-796.137,1347.78H-801.5c-.044-.051-.092-.081-.1-.118-.518-2.846-2.414-4.167-5.107-4.541a8.127,8.127,0,0,0-5.337.864,3.917,3.917,0,0,0-2.021,4.1,3.134,3.134,0,0,0,1.876,2.363,24.079,24.079,0,0,0,3.456,1.261c2.3.65,4.648,1.137,6.934,1.833a9.048,9.048,0,0,1,4.654,3.052c2.673,3.451,1.875,9.182-1.665,12.073a13.576,13.576,0,0,1-7.958,2.793,16.621,16.621,0,0,1-8.7-1.448,8.979,8.979,0,0,1-5.25-7.38,3.513,3.513,0,0,1-.021-.417,1.934,1.934,0,0,1,.058-.29h.667c1.023,0,2.051.067,3.066-.018,1.11-.094,1.854.034,2.208,1.343a4.415,4.415,0,0,0,1.55,1.987c2.471,2,7.226,2.1,9.887.35,2.384-1.569,2.8-5.158-.226-6.624a28.62,28.62,0,0,0-4.538-1.523c-1.917-.556-3.889-.936-5.781-1.56a8.561,8.561,0,0,1-5.341-4.3,8.784,8.784,0,0,1,3.239-11.1,14.577,14.577,0,0,1,9.349-2.094,12.749,12.749,0,0,1,6.663,2.211A8.789,8.789,0,0,1-796.137,1347.78Z" transform="translate(923.765 -1320.336)"/>
      <path id="Path_281" data-name="Path 281" d="M-1118.577,1403.538h5.454v23.5h-5.454Z" transform="translate(1180.06 -1376.45)"/>
      <path id="Path_282" data-name="Path 282" d="M-1363.514,1209.312a10.909,10.909,0,0,1-.943,6.044c-1.815,3.82-4.5,6.761-8.681,8.018a14.645,14.645,0,0,1-2.337.316c-.521.067-.734-.127-.753-.683a11.958,11.958,0,0,1,1.592-6.343,14.113,14.113,0,0,1,10.479-7.3C-1363.976,1209.337-1363.79,1209.335-1363.514,1209.312Z" transform="translate(1401.782 -1209.312)"/>
      <path id="Path_283" data-name="Path 283" d="M-1118.04,1337.905a3.035,3.035,0,0,1,3.071,3.04,3.041,3.041,0,0,1-3.114,3,3.025,3.025,0,0,1-3.067-3.044A3.022,3.022,0,0,1-1118.04,1337.905Z" transform="translate(1182.273 -1319.97)"/>
    </g>
  </g>
</svg>
