<svg xmlns="http://www.w3.org/2000/svg" width="97.215" height="94.594" viewBox="0 0 97.215 94.594">
  <g id="Group_298" data-name="Group 298" transform="translate(1349.755 -1228.785)">
    <path id="Path_113" data-name="Path 113" d="M-1054.345,1435.781c0,1.286.042,2.574-.009,3.859a5.439,5.439,0,0,1-5.083,5.216,5.385,5.385,0,0,1-5.813-4.709,70.564,70.564,0,0,1-.09-7.987c0-.886-.138-1.273-1.159-1.293a3.6,3.6,0,0,1-3.348-3.017,7.2,7.2,0,0,1-.108-1.278c-.019-8.638-.051-17.276-.038-25.913.011-7.411,3.247-12.956,9.759-16.539.5-.277.554-.491.28-.974-.725-1.276-1.392-2.586-2.09-3.878-.284-.525-.483-1.077.164-1.433s1,.08,1.289.624c.722,1.383,1.474,2.75,2.189,4.136a.656.656,0,0,0,.94.381,17.127,17.127,0,0,1,10.478-.006c.594.186.81,0,1.053-.479.7-1.361,1.439-2.7,2.149-4.054.288-.55.659-.952,1.3-.592.592.334.453.85.179,1.357-.714,1.318-1.4,2.654-2.133,3.958-.276.488-.209.712.291.978a17.757,17.757,0,0,1,9.45,12.839,17.541,17.541,0,0,1,.241,3.457q0,13.14-.038,26.281c-.005,2.389-1.072,3.73-3.389,4.166-.551.1-.505.4-.505.773,0,2.6.042,5.208-.017,7.811a5.235,5.235,0,0,1-3.012,4.8,5.214,5.214,0,0,1-5.573-.35,5.249,5.249,0,0,1-2.42-4.5c-.029-2.542-.033-5.085.008-7.627.011-.687-.174-.911-.868-.873a30.741,30.741,0,0,1-3.123,0c-.7-.032-.987.154-.953.913.059,1.314.016,2.634.016,3.951Zm2.129-36.095c-4.839,0-9.678.017-14.516-.016-.812-.005-1.042.251-1.04,1.051.025,8.605.013,17.211.018,25.817,0,1.666.531,2.183,2.215,2.184q13.322,0,26.643,0c1.708,0,2.2-.486,2.2-2.173,0-8.575-.016-17.15.024-25.725,0-.975-.328-1.162-1.21-1.155C-1042.661,1399.7-1047.438,1399.686-1052.216,1399.686Zm-.064-2.212c4.836,0,9.672-.014,14.508.015.776,0,.894-.188.726-.937a15.628,15.628,0,0,0-15.167-12.188,15.668,15.668,0,0,0-15.173,12.192c-.165.749.033.937.782.932C-1061.829,1397.459-1057.054,1397.473-1052.279,1397.473Zm5.07,37.988c0,1.315-.022,2.631.005,3.946a3.267,3.267,0,0,0,3.193,3.25,3.237,3.237,0,0,0,3.395-3.133c.059-2.66.008-5.322.03-7.983,0-.5-.184-.623-.644-.619-1.774.018-3.548.023-5.322,0-.527-.008-.681.175-.669.688C-1047.19,1432.892-1047.211,1434.177-1047.21,1435.462Zm-9.329.119c0-1.317-.005-2.634,0-3.951,0-.405-.023-.713-.568-.707-1.837.02-3.675.013-5.512,0-.4,0-.538.177-.536.557.012,2.695-.057,5.392.045,8.084a3.192,3.192,0,0,0,3.433,3.087,3.249,3.249,0,0,0,3.128-3.308C-1056.518,1438.093-1056.541,1436.836-1056.539,1435.581Z" transform="translate(-228.308 -121.532)" fill="#ff440e"/>
    <path id="Path_114" data-name="Path 114" d="M-1349.755,1316.585a14.719,14.719,0,0,1,7.594-12.759,11.646,11.646,0,0,1,10.48-1.051c1.322.481,2.642.967,3.972,1.424a3.6,3.6,0,0,0,2.75-.2,15.15,15.15,0,0,1,10.739-.948,10.2,10.2,0,0,1,5.739,4.48c.279.432.141.613-.179.886a16.256,16.256,0,0,0-3.994,4.988q-2.861,5.623,1.64,10.035a13.182,13.182,0,0,0,2.6,2.036,1.237,1.237,0,0,1,.7,1.427,14.848,14.848,0,0,1-.3,1.808,17.285,17.285,0,0,1-8.9,10.705,5.278,5.278,0,0,1-6.318-.627c-1.664-1.4-3.717-1.415-5.77-.893a12.209,12.209,0,0,0-3.536,1.5,5.611,5.611,0,0,1-6.982-.442,24.04,24.04,0,0,1-6.253-7.263A30.7,30.7,0,0,1-1349.755,1316.585Zm13.783-12.415a7.7,7.7,0,0,0-2.175.31,12.748,12.748,0,0,0-9.37,12.535,26,26,0,0,0,5.605,16.456,17.336,17.336,0,0,0,4.137,4.015,3.286,3.286,0,0,0,3.863.14,15.592,15.592,0,0,1,3.316-1.556c3.349-1.108,6.5-.98,9.321,1.424a2.216,2.216,0,0,0,1.912.422,6.642,6.642,0,0,0,2.378-.936,16.466,16.466,0,0,0,6.51-7.747,11.1,11.1,0,0,0,.359-1.136,1.131,1.131,0,0,0-.5-1.469,13.16,13.16,0,0,1-3.14-2.94,9.589,9.589,0,0,1-1.648-9.425,15.527,15.527,0,0,1,3.7-5.953c.564-.581.472-.886-.067-1.361a8.2,8.2,0,0,0-3.423-1.885,13.167,13.167,0,0,0-8.944.984,5.679,5.679,0,0,1-3.926.352,33.578,33.578,0,0,1-3.458-1.221A13.694,13.694,0,0,0-1335.971,1304.169Z" transform="translate(0 -59.741)" fill="#ff440e"/>
    <path id="Path_115" data-name="Path 115" d="M-869.443,1505.276c0-3-.01-6,0-9a4.4,4.4,0,0,1,4.407-4.718c2.6-.01,4.455,1.968,4.458,4.779q.008,9.089-.005,18.178a4.454,4.454,0,0,1-3.826,4.469,4.457,4.457,0,0,1-4.9-3.257,5.777,5.777,0,0,1-.138-1.548Q-869.446,1509.729-869.443,1505.276Zm2.209-.059c0,3.064-.011,6.128,0,9.192a2.186,2.186,0,0,0,2.214,2.394,2.239,2.239,0,0,0,2.23-2.4c.016-1.379,0-2.758,0-4.136q0-7.032,0-14.064a2.233,2.233,0,0,0-1.914-2.415,2.18,2.18,0,0,0-2.529,2.328C-867.248,1499.151-867.234,1502.184-867.234,1505.218Z" transform="translate(-391.971 -214.447)" fill="#ff440e"/>
    <path id="Path_116" data-name="Path 116" d="M-1127.211,1505.3c0-3.03-.009-6.06,0-9.089a4.39,4.39,0,0,1,4.465-4.66,4.4,4.4,0,0,1,4.386,4.655q.012,9.089,0,18.178a4.415,4.415,0,0,1-4.426,4.62,4.4,4.4,0,0,1-4.424-4.615C-1127.222,1511.364-1127.211,1508.334-1127.211,1505.3Zm2.208-.1c0,3.034-.005,6.067,0,9.1a2.215,2.215,0,0,0,2.209,2.494,2.228,2.228,0,0,0,2.227-2.483q.008-9.009,0-18.017c0-1.581-.881-2.556-2.263-2.535-1.341.02-2.171.974-2.174,2.524C-1125.008,1499.261-1125,1502.233-1125,1505.205Z" transform="translate(-181.611 -214.442)" fill="#ff440e"/>
    <path id="Path_117" data-name="Path 117" d="M-1217.466,1230.106a12.208,12.208,0,0,1-7.859,11.26,25,25,0,0,1-3.861,1.143c-.364.087-.6.092-.509-.407a19.907,19.907,0,0,1,2.9-8.04,12.264,12.264,0,0,1,8.675-5.26c.5-.077.678.1.658.57C-1217.474,1229.617-1217.466,1229.862-1217.466,1230.106Zm-9.265,9.309c3.173-.494,6.953-4.859,6.81-7.865A10.205,10.205,0,0,0-1226.732,1239.416Z" transform="translate(-97.963 0)" fill="#ff440e"/>
    <path id="Path_118" data-name="Path 118" d="M-1019.321,1441.244a2.487,2.487,0,0,1-2.545,2.464,2.49,2.49,0,0,1-2.506-2.6,2.484,2.484,0,0,1,2.639-2.457A2.478,2.478,0,0,1-1019.321,1441.244Zm-1.656-.075a.81.81,0,0,0-.871-.852.785.785,0,0,0-.857.862.783.783,0,0,0,.86.859A.813.813,0,0,0-1020.977,1441.169Z" transform="translate(-265.538 -171.269)" fill="#ff440e"/>
    <path id="Path_119" data-name="Path 119" d="M-940.349,1441.189a2.487,2.487,0,0,1-2.493,2.517,2.488,2.488,0,0,1-2.561-2.542,2.483,2.483,0,0,1,2.495-2.513A2.48,2.48,0,0,1-940.349,1441.189Zm-2.454.861a.822.822,0,0,0,.787-.907.785.785,0,0,0-.892-.824.782.782,0,0,0-.823.891C-943.718,1441.763-943.376,1442.018-942.8,1442.05Z" transform="translate(-329.985 -171.268)" fill="#ff440e"/>
  </g>
</svg>
