<svg xmlns="http://www.w3.org/2000/svg" width="157" height="156" viewBox="0 0 157 156">
  <g id="Group_312" data-name="Group 312" transform="translate(-550 -3996)">
    <ellipse id="Ellipse_60" data-name="Ellipse 60" cx="78.5" cy="78" rx="78.5" ry="78" transform="translate(550 3996)" fill="#fff"/>
    <g id="Group_298" data-name="Group 298" transform="translate(595.534 4029.891)">
      <path id="Path_170" data-name="Path 170" d="M3172.535,450.253c10.068,0,20.136.053,30.2-.043,2.065-.02,2.694.437,2.482,2.626-1.5,15.612-2.879,31.237-4.284,46.859-.48,5.331-.963,10.662-1.369,16-.135,1.771-.733,2.738-2.658,3.144-7.491,1.579-14.947,3.334-22.408,5.053-4.09.942-7.8-.962-11.646-1.623-5.164-.887-10.214-2.417-15.349-3.5-1.775-.375-2.365-1.2-2.511-2.935-1.074-12.78-2.231-25.552-3.376-38.326-.708-7.9-1.445-15.8-2.161-23.7-.322-3.544-.314-3.547,3.15-3.548Q3157.571,450.251,3172.535,450.253ZM3172.083,487q0,15.373,0,30.747c0,3.109.744,3.569,3.582,2.3a7.506,7.506,0,0,1,1.264-.5c5.534-1.331,11.059-2.708,16.617-3.931a3.251,3.251,0,0,0,2.886-3.4,47.739,47.739,0,0,1,.152-5.254c1.364-8.809,1.575-17.725,2.594-26.568.934-8.109,1.444-16.266,2.251-24.391.224-2.258-.353-3.087-2.778-3.043q-11.633.213-23.272,0c-2.525-.045-3.381.692-3.348,3.289C3172.166,466.5,3172.089,476.752,3172.083,487Zm-2.85,1.208q0-10.531,0-21.062c0-5.421-.007-5.3-5.458-5.421-2.329-.051-2.929.666-2.908,2.953.107,12.377.054,24.756.024,37.135,0,.67.382,1.633-.518,1.955a2.086,2.086,0,0,1-2.271-.609c-1.16-2.37-3.616-1.857-5.428-2.723-1.354-.646-1.869-.073-1.739,1.325.221,2.389.538,4.778.583,7.171a2.321,2.321,0,0,0,2.219,2.569c4.336.9,8.673,1.814,12.968,2.884,2,.5,2.59-.018,2.567-2.067C3169.183,504.283,3169.235,496.245,3169.233,488.208Z" transform="translate(-3139.326 -434.593)" fill="#fe9811"/>
      <path id="Path_171" data-name="Path 171" d="M3201.712,422.07a4.192,4.192,0,0,1,1.336.286c.479.251,1.4.366.967,1.318-.308.681-.743.946-1.521.51-.717-.4-1.708-.771-2.086.3-.419,1.19.84,1.289,1.51,1.48,2.256.643,3,2.044,2.184,4.16-.644,1.673-3.546,2.3-5.307,1.238-.418-.253-1.111-.438-.8-1.2.286-.713.79-1.008,1.523-.64.911.458,2.1,1.067,2.5-.22.421-1.353-1.111-1.385-1.99-1.7a2.552,2.552,0,0,1-1.844-3.222C3198.543,422.682,3199.8,422.051,3201.712,422.07Z" transform="translate(-3165.401 -422.069)" fill="#111"/>
      <path id="Path_172" data-name="Path 172" d="M3192.321,426.105a31.162,31.162,0,0,1-.352,3.552c-.4,1.917-1.868,2.32-3.583,2.19-.466-.035-.929-.164-.94-.768-.009-.479.09-1.007.675-1.009,2.16,0,1.865-1.571,1.9-2.916.031-1.288.034-2.578,0-3.865-.02-.8.245-1.167,1.1-1.143.839.023,1.131.4,1.107,1.188-.028.92-.007,1.841-.007,2.761Z" transform="translate(-3160.742 -422.103)" fill="#111"/>
      <path id="Path_173" data-name="Path 173" d="M3198.317,489.21c0-10.249.08-20.5-.051-30.746-.033-2.6.823-3.334,3.348-3.289q11.633.208,23.272,0c2.424-.044,3,.785,2.778,3.043-.807,8.125-1.317,16.282-2.25,24.391-1.02,8.843-1.231,17.759-2.594,26.568a47.676,47.676,0,0,0-.152,5.254,3.251,3.251,0,0,1-2.886,3.4c-5.558,1.224-11.082,2.6-16.616,3.931a7.488,7.488,0,0,0-1.264.5c-2.838,1.266-3.579.806-3.582-2.3Q3198.3,504.583,3198.317,489.21Zm13.771-25.177c-2.494,0-5,.109-7.482-.034-1.948-.113-2.52.584-2.531,2.513-.042,7.663-.255,15.324-.391,22.987-.094,5.294-.085,5.294,5.272,5.152a12.057,12.057,0,0,0,1.385-.04c1.858-.27,2.176.559,1.894,2.24a60.974,60.974,0,0,0-.813,7.421c-.084,1.965-.737,2.851-2.807,3.3-5.73,1.251-5.7,1.384-5.416,6.951a2.621,2.621,0,0,1,0,.277c-.079,1.523.556,1.914,2.043,1.544q5.9-1.472,11.863-2.725a2.571,2.571,0,0,0,2.375-2.536q1.152-12.535,2.4-25.06c.152-1.528-.45-1.962-1.884-1.81-2.018.214-4.051.276-6.07.473-1.479.144-2.008-.493-1.912-1.912.13-1.932.164-3.87.284-5.8.289-4.688.3-4.687,5.048-4.683,6.129,0,6.129,0,6.6-6.082.007-.092.013-.185.028-.275.248-1.472-.4-1.968-1.848-1.926C3217.448,464.085,3214.767,464.029,3212.087,464.033Z" transform="translate(-3165.556 -436.802)" fill="#fec63d"/>
      <path id="Path_174" data-name="Path 174" d="M3178.528,497.442c0,8.037-.051,16.074.037,24.11.023,2.049-.563,2.567-2.566,2.067-4.3-1.07-8.632-1.987-12.969-2.883a2.321,2.321,0,0,1-2.219-2.569c-.045-2.393-.362-4.782-.583-7.171-.13-1.4.385-1.972,1.739-1.325,1.812.865,4.268.353,5.428,2.723a2.086,2.086,0,0,0,2.271.609c.9-.322.517-1.285.519-1.955.03-12.379.083-24.758-.025-37.135-.02-2.287.579-3,2.909-2.953,5.45.119,5.455,0,5.457,5.421Q3178.529,486.91,3178.528,497.442Z" transform="translate(-3148.62 -443.826)" fill="#f7f4ee"/>
      <path id="Path_175" data-name="Path 175" d="M3214.363,471.1c2.679,0,5.361.054,8.037-.025,1.449-.043,2.1.453,1.848,1.926-.015.09-.021.183-.028.275-.471,6.087-.471,6.087-6.6,6.082-4.748,0-4.759,0-5.048,4.683-.12,1.933-.153,3.871-.283,5.8-.1,1.419.434,2.056,1.912,1.912,2.02-.2,4.052-.259,6.071-.473,1.433-.152,2.035.281,1.883,1.81q-1.247,12.526-2.4,25.06a2.57,2.57,0,0,1-2.374,2.536q-5.954,1.264-11.864,2.725c-1.487.371-2.122-.021-2.043-1.544a2.38,2.38,0,0,0,0-.277c-.284-5.567-.313-5.7,5.417-6.951,2.069-.452,2.723-1.337,2.807-3.3a60.927,60.927,0,0,1,.813-7.421c.282-1.68-.036-2.51-1.895-2.24a12.106,12.106,0,0,1-1.384.041c-5.358.143-5.367.143-5.271-5.152.136-7.662.348-15.324.39-22.987.011-1.929.583-2.626,2.531-2.513C3209.366,471.211,3211.868,471.1,3214.363,471.1Z" transform="translate(-3167.831 -443.871)" fill="#fdfcf7"/>
    </g>
  </g>
</svg>
