<svg xmlns="http://www.w3.org/2000/svg" width="25.837" height="35.85" viewBox="0 0 25.837 35.85">
  <path id="Path_1878" data-name="Path 1878" d="M765.363,1175.343a13.085,13.085,0,0,1,12.339,16.836,36.884,36.884,0,0,1-5.3,10.526c-1.859,2.662-3.908,5.192-5.909,7.753-.775.992-1.465.967-2.28.007a65.14,65.14,0,0,1-9.806-14.577,20,20,0,0,1-1.916-6.438,12.888,12.888,0,0,1,9.194-13.418C762.881,1175.7,764.134,1175.567,765.363,1175.343Zm-.013,19.54a6.493,6.493,0,1,0-6.5-6.453A6.495,6.495,0,0,0,765.349,1194.883Z" transform="translate(-752.43 -1175.343)" fill="#ff440e"/>
</svg>
