<svg xmlns="http://www.w3.org/2000/svg" width="825" height="156" viewBox="0 0 825 156">
  <g id="Group_348" data-name="Group 348" transform="translate(-928 -7225)">
    <rect id="Rectangle_112" data-name="Rectangle 112" width="766" height="156" rx="21" transform="translate(987 7225)" fill="#f5f5f5"/>
    <circle id="Ellipse_54" data-name="Ellipse 54" cx="78" cy="78" r="78" transform="translate(928 7225)" fill="#ff440e"/>
    <g id="Group_264" data-name="Group 264" transform="translate(950.567 7247.417)">
      <path id="Path_1855" data-name="Path 1855" d="M221.827,751.452c.35,25.687,20.468,47.644,45.187,49.718,27.132,2.277,50.3-16.245,54.438-42.193a49.671,49.671,0,0,0-1.215-20.823c-.121-.45-.265-.895-.38-1.347-.45-1.765-.116-3.252,1.805-3.793a2.578,2.578,0,0,1,3.477,2.3c.918,5.878,2.487,11.809,2.312,17.674-.787,26.318-18.867,47.431-44.634,52.851-30.53,6.422-61.225-15.113-65.627-46.044-4.411-30.993,16.31-58.907,47.144-63.425a54.439,54.439,0,0,1,22.755,1.557c1.965.55,4.109,1.182,3.414,3.808s-2.82,2.148-4.831,1.6c-28.228-7.672-56.114,9.076-62.453,37.59C222.455,744.369,222.277,747.941,221.827,751.452Z" transform="translate(-216.6 -695.809)" fill="#fff"/>
      <path id="Path_1856" data-name="Path 1856" d="M288.393,802.976c-24.524.013-41.791-17.447-41.656-39.188a38.7,38.7,0,0,1,39.114-38.261,13.849,13.849,0,0,1,1.958.1c1.8.287,2.962,1.268,2.809,3.194-.15,1.872-1.477,2.2-3.16,2.4-4.685.575-9.6.668-13.961,2.243-15.2,5.5-23.627,21.277-20.548,37.424,2.925,15.344,16.8,26.578,32.739,26.5a32.918,32.918,0,0,0,32.352-27.238,39.027,39.027,0,0,0,.478-7.243c-.029-2.063.113-4.038,2.576-4.137,2.609-.105,3.039,1.981,3.077,4.107.232,12.89-4.6,23.5-14.572,31.635C302.627,800.2,294.494,802.9,288.393,802.976Z" transform="translate(-229.835 -708.858)" fill="#fff"/>
      <path id="Path_1857" data-name="Path 1857" d="M352.3,717.028a72.7,72.7,0,0,1,7.716.082,4.3,4.3,0,0,1,3.012,1.809c.373.731-.172,2.41-.867,3.13-5.186,5.369-10.444,10.672-15.855,15.813a5.494,5.494,0,0,1-4.039,1.19c-5.908-.834-10.236,1.227-14.034,5.821-3.611,4.367-7.975,8.111-11.987,12.149-1.381,1.391-2.886,2.347-4.579.691s-.826-3.173.585-4.576c5.358-5.331,10.653-10.727,16.068-16,1.388-1.352,2.194-2.75,1.862-4.662-1.04-6,1.141-10.46,5.836-14.3,3.955-3.231,7.266-7.24,11-10.753.814-.765,2.543-1.513,3.3-1.142a4.576,4.576,0,0,1,1.891,3.223A64.751,64.751,0,0,1,352.3,717.028Zm1.135,6.165c-2.317-.627-4.672-.6-5.816-1.764-1.1-1.115-.932-3.466-1.41-5.68-2.622,2.712-4.791,5.48-7.472,7.6-3.55,2.8-3.345,6.233-2.684,10.6,2.592-.388,5.639.013,7.449-1.3C347.14,730.016,350.107,726.45,353.43,723.194Z" transform="translate(-257.939 -700.366)" fill="#fff"/>
      <path id="Path_1858" data-name="Path 1858" d="M297.77,799.325a22.106,22.106,0,0,1-.956-44.142c.649-.043,1.5-.273,1.917.038.945.7,2.3,1.669,2.324,2.562a3.719,3.719,0,0,1-2.176,2.635c-1.8.676-3.888.543-5.729,1.142A16.436,16.436,0,0,0,282.2,780.383a16.541,16.541,0,0,0,32.625-.77c.131-.924-.057-2.034.4-2.739.624-.969,1.853-2.38,2.581-2.25a3.819,3.819,0,0,1,2.6,2.508,17.09,17.09,0,0,1-.662,6.065A21.985,21.985,0,0,1,297.77,799.325Z" transform="translate(-242.834 -721.829)" fill="#fff"/>
    </g>
    <text id="Our_Mission" data-name="Our Mission" transform="translate(1104 7265)" font-size="26" font-family="Poppins-Bold, Poppins" font-weight="700"><tspan x="0" y="0">Our Mission</tspan></text>
    <text id="To_Provide_consistent_IT_Solutions_Service_using_latest_technologies." data-name="To Provide consistent IT Solutions &amp; Service using 
latest technologies." transform="translate(1104 7319)" fill="#707070" font-size="25" font-family="Poppins-SemiBold, Poppins" font-weight="600"><tspan x="0" y="0">To Provide consistent IT Solutions &amp; Service using </tspan><tspan x="0" y="38">latest technologies.</tspan></text>
  </g>
</svg>
