<svg xmlns="http://www.w3.org/2000/svg" width="157" height="156" viewBox="0 0 157 156">
  <g id="Group_323" data-name="Group 323" transform="translate(-550 -4205)">
    <ellipse id="Ellipse_70" data-name="Ellipse 70" cx="78.5" cy="78" rx="78.5" ry="78" transform="translate(550 4205)" fill="#fff"/>
    <g id="Group_303" data-name="Group 303" transform="translate(591.344 4237.347)">
      <path id="Path_239" data-name="Path 239" d="M4696.107,4058.622c-5.953-3.047-10.021-7.833-13.077-13.577l.111-.123a2.979,2.979,0,0,1,.391.3c.467.493.933.985,1.375,1.5a54.539,54.539,0,0,0,9.414,8.553,13.506,13.506,0,0,0,1.736,1.05c.548.282.741.213.875-.389a28.694,28.694,0,0,0,.6-3.463,39.118,39.118,0,0,0-1.79-15.849c-.262-.841-.569-1.668-.786-2.521a1.23,1.23,0,0,0-.979-.954c-2.787-.849-5.562-1.733-8.34-2.607a3.678,3.678,0,0,1-.955-.422,1.682,1.682,0,0,1,.4-.017c1.309.25,2.611.527,3.921.764,2.289.417,4.581.811,6.872,1.215.066.011.133.023.2.03,1.233.138,1.7-.233,1.917-1.438a11.634,11.634,0,0,0-.173-4.042,41.683,41.683,0,0,0-2.291-8.417c-.216-.545-.476-1.074-.725-1.6a3.2,3.2,0,0,0-1.571-1.528,21.427,21.427,0,0,0-4.563-1.484,77.89,77.89,0,0,0-11.783-1.785c-1.98-.144-3.972-.243-5.959-.239a22.227,22.227,0,0,0-6.6,1.065,3.431,3.431,0,0,0-.9.456c2.538.879,5.205,1.1,7.749,1.91-.4-.027-.809-.039-1.21-.085-2.8-.332-5.607-.678-8.411-1.008-1.977-.231-3.953-.436-5.929-.668a1.976,1.976,0,0,0-1.955.8,14.205,14.205,0,0,0-2.7,5.114,3.462,3.462,0,0,0,.24,2.431,10.549,10.549,0,0,0,2.869,3.727,30.514,30.514,0,0,0,5.327,3.35q2.159,1.136,4.316,2.273c.237.125.464.269.7.4-.016.042-.03.084-.047.127-.21-.069-.425-.128-.631-.21-2.555-1.026-5.114-2.045-7.662-3.093a2.046,2.046,0,0,0-1.43-.1c-4.021,1.131-8.052,2.231-12.078,3.339-.3.083-.6.152-1,.251-.048-.806-.126-1.541-.133-2.276q-.059-7.12-.085-14.24c0-1.944.032-3.887.068-5.831a13.866,13.866,0,0,1,.138-1.755,4.549,4.549,0,0,1,1.853-2.97c.073-.056.156-.1.226-.154a3.085,3.085,0,0,1,2.071-.629q25.537-.026,51.074-.087c3.5,0,7.009.065,10.514.09a4.825,4.825,0,0,1,3.112,1.152,3.889,3.889,0,0,1,1.539,3.1c.032,4.159.133,8.317.13,12.475q-.019,25.021-.081,50.042a2.048,2.048,0,0,1-.33,1.142,5.943,5.943,0,0,1-1.347,1.6,3.812,3.812,0,0,1-2.294.9c-3.141.079-6.281.215-9.424.213q-24.044-.017-48.09-.1c-1.014,0-2.027-.043-3.2-.069.213-.308.334-.507.479-.687,1.743-2.166,3.462-4.351,5.241-6.487,2.761-3.317,5.563-6.6,8.354-9.9.307-.359.616-.862,1.007-.957s.885.224,1.314.407q11.814,5.022,23.626,10.05c1.017.433,2.061.805,3.095,1.2a5.576,5.576,0,0,0,.714.2.663.663,0,0,0,.841-.377c.067-.143.158-.273.233-.414A77.073,77.073,0,0,0,4696.107,4058.622Z" transform="translate(-4641.351 -4003.713)"/>
      <path id="Path_240" data-name="Path 240" d="M4662.236,5119.231c2.741-1.859,5.362-2.269,7.9.3.42-.291.863-.6,1.308-.9a5.222,5.222,0,0,1,5.587-.169,3.264,3.264,0,0,1,1.779,3c.028.608.049,1.22.049,1.829,0,2.146,0,4.294-.019,6.44,0,.449-.078.9-.113,1.346a1.716,1.716,0,0,1-1.7,1.373,1.549,1.549,0,0,1-1.614-1.345,19.293,19.293,0,0,1-.22-2.29c-.071-1.557-.1-3.116-.162-4.673-.02-.518-.07-1.036-.125-1.553-.109-1.025-.62-1.68-1.371-1.78a2.26,2.26,0,0,0-2.264,1.277,8.372,8.372,0,0,0-.43,2.043c-.135,1.665-.192,3.337-.289,5.006-.036.607-.089,1.215-.144,1.823a1.442,1.442,0,0,1-1.074,1.4,1.772,1.772,0,0,1-1.923-.485,1.949,1.949,0,0,1-.372-1.123c-.119-1.825-.182-3.655-.279-5.481-.058-1.083-.149-2.164-.21-3.246a1.17,1.17,0,0,0-.985-1.127,2.1,2.1,0,0,0-2.831,1.627,16.578,16.578,0,0,0-.306,2.415c-.114,1.756-.178,3.517-.278,5.277a4.552,4.552,0,0,1-.162,1,1.6,1.6,0,0,1-2.428.958,2.007,2.007,0,0,1-1.118-1.67c-.016-.384-.08-.766-.08-1.147q-.009-4.171,0-8.338a7.872,7.872,0,0,1,.129-1.551,2.713,2.713,0,0,1,.467-1.1,1.6,1.6,0,0,1,2.657-.009C4661.836,5118.612,4662.008,5118.9,4662.236,5119.231Z" transform="translate(-4657.208 -5042.036)"/>
      <path id="Path_241" data-name="Path 241" d="M5486.27,5125.341c-.044.63-.059,1.264-.135,1.89a5.625,5.625,0,0,1-2.514,4.016,7.9,7.9,0,0,1-6.264,1.294,6.758,6.758,0,0,1-5.242-5.646,10.15,10.15,0,0,1,.069-3.572,6.234,6.234,0,0,1,4.192-4.833,7.7,7.7,0,0,1,5.631-.012,6.4,6.4,0,0,1,4.216,5.911c.01.315,0,.633,0,.949Zm-10.48.019a16.653,16.653,0,0,0,.415,2.181,3.216,3.216,0,0,0,3.774,2.1,2.9,2.9,0,0,0,2.038-1.916,6.508,6.508,0,0,0-.025-4.824,2.939,2.939,0,0,0-2.982-1.916,2.981,2.981,0,0,0-2.81,2.163A20.548,20.548,0,0,0,5475.79,5125.36Z" transform="translate(-5415.608 -5042.32)"/>
      <path id="Path_242" data-name="Path 242" d="M5013.348,5125.528a21.812,21.812,0,0,1-.309,2.273,6.322,6.322,0,0,1-4.439,4.695,7.7,7.7,0,0,1-5.436-.17,6.2,6.2,0,0,1-4.013-5.413,13.824,13.824,0,0,1-.035-2.633,6.316,6.316,0,0,1,4.595-5.755,7.694,7.694,0,0,1,6.1.583,6.292,6.292,0,0,1,3.421,5.127c.028.247.037.5.045.743.007.182,0,.362,0,.541C5013.3,5125.523,5013.324,5125.524,5013.348,5125.528Zm-3.861.062c-.014-.271-.012-.543-.044-.812a4.9,4.9,0,0,0-1.04-2.6,3.15,3.15,0,0,0-4.695.1,6.274,6.274,0,0,0-.116,6.248,3.089,3.089,0,0,0,5.3-.259A6.14,6.14,0,0,0,5009.487,5125.59Z" transform="translate(-4974.789 -5042.504)"/>
      <path id="Path_243" data-name="Path 243" d="M5250.359,5119.7c.47-.321.888-.623,1.32-.9a5.267,5.267,0,0,1,4.726-.655,4.494,4.494,0,0,1,3.106,3.761,8.506,8.506,0,0,1,.115,1.415q.018,3.153,0,6.3a11.988,11.988,0,0,1-.115,1.28,1.963,1.963,0,0,1-.608,1.183,1.484,1.484,0,0,1-1.53.491,1.615,1.615,0,0,1-1.258-1.28,11.583,11.583,0,0,1-.144-1.615c-.053-1.693-.065-3.389-.138-5.081a12.378,12.378,0,0,0-.283-2.076,1.685,1.685,0,0,0-1.958-1.547,2.534,2.534,0,0,0-2.656,1.973,13.232,13.232,0,0,0-.363,2.606c-.065,1.284-.027,2.574-.049,3.862-.008.495-.073.989-.089,1.486a2.051,2.051,0,0,1-1.617,1.7,1.65,1.65,0,0,1-1.78-1.142,4.458,4.458,0,0,1-.144-1.072c-.031-3.748-.046-7.5-.076-11.249a.7.7,0,0,1,.386-.716c.161-.083.3-.2.461-.285a1.579,1.579,0,0,1,2.384.833C5250.143,5119.2,5250.238,5119.423,5250.359,5119.7Z" transform="translate(-5205.719 -5042.23)"/>
      <path id="Path_244" data-name="Path 244" d="M5677.15,5087.067c-.551-.1-.528-.625-.838-.96-.1.155-.185.3-.283.429-.219.294-.44.309-.637,0a9.573,9.573,0,0,1-.481-.964c-.222.5.03,1.04-.307,1.46-.3-.111-.308-.381-.338-.607-.04-.29-.021-.585-.044-.878a2.254,2.254,0,0,0-.1-.663c-.055-.137-.229-.229-.351-.339-.11.125-.287.239-.319.384-.066.3-.044.627-.082.94a2.088,2.088,0,0,1-.333,1.266,8.072,8.072,0,0,1-.2-.817c-.043-.334-.05-.673-.062-1.012-.015-.409-.079-.771-.592-.832-.073-.008-.136-.1-.219-.171.118-.274.369-.28.571-.283.631-.011,1.263,0,1.894.027a1.065,1.065,0,0,1,1.011.766c.094.25.212.493.35.808.372-.544.212-1.3.818-1.645A3.283,3.283,0,0,1,5677.15,5087.067Z" transform="translate(-5602.003 -5010.653)"/>
    </g>
  </g>
</svg>
