<svg xmlns="http://www.w3.org/2000/svg" width="157" height="156" viewBox="0 0 157 156">
  <g id="Group_318" data-name="Group 318" transform="translate(-1650 -4205)">
    <ellipse id="Ellipse_58" data-name="Ellipse 58" cx="78.5" cy="78" rx="78.5" ry="78" transform="translate(1650 4205)" fill="#fff"/>
    <g id="Group_308" data-name="Group 308" transform="translate(1664.574 4241.285)">
      <path id="Path_290" data-name="Path 290" d="M417.779-1844.779c2.789.3,3.471.987,3.478,3.588.011,4.9-.1,9.8.054,14.688.057,1.844-.9,1.681-2.076,1.645-1.091-.034-2.2.338-2.139-1.58a144.337,144.337,0,0,0-.326-14.918c-1.338,2.968-2.662,5.943-4.018,8.9-.908,1.983-1.886,3.934-2.784,5.921a2.572,2.572,0,0,1-2.417,1.737,5.775,5.775,0,0,0-2.62-.057c-1.337-.248-1.932-1.23-2.436-2.358-1.934-4.336-3.9-8.659-5.85-12.987-.168-.371-.162-.864-.874-1.065,0,4.855.013,9.635-.017,14.414,0,.586.3,1.246-.235,1.774l-.224-.266c-.018-.231-.026-.462-.024-.694,0-4.927,0-9.855,0-13.736-.151,4.062.17,9.182-.131,14.291a3.032,3.032,0,0,1-2.768.074,3.015,3.015,0,0,1-.314-2c-.015-4.586.012-9.173-.022-13.759a5.092,5.092,0,0,1,.682-2.87,3.236,3.236,0,0,1,2.351-.739,4.016,4.016,0,0,0,1.9,0c1.766.117,2.569,1.348,3.184,2.769,1.742,4.024,3.452,8.062,5.219,12.075a3.677,3.677,0,0,0,1.114,1.858c2.119-4.73,4.211-9.391,6.295-14.056.614-1.375,1.41-2.521,3.1-2.637A4.123,4.123,0,0,0,417.779-1844.779Z" transform="translate(-391.615 1886.298)" fill="#01618a"/>
      <path id="Path_291" data-name="Path 291" d="M615.377-1843.594c3.915.393,5.281,1.825,5.3,5.608q.025,4.423-.008,8.847c-.01,1.277-.128,2.639-1.315,3.358-1.452.878-.788,1.424.071,2.133.813.671,1.572,1.408,2.588,2.326-2.6.184-4.933.587-6.624-1.695-.84-1.133-1.928-1.282-3.314-1.171a27.078,27.078,0,0,1-8.453-.206c-2.033-.481-3.77-1.4-4.07-3.786a103.106,103.106,0,0,0,.006-11.666c.5-2.708,2.526-3.422,4.87-3.725A83.564,83.564,0,0,0,615.377-1843.594Z" transform="translate(-520.377 1885.558)" fill="#e38d00"/>
      <path id="Path_292" data-name="Path 292" d="M542-1841.336c.935-2.064,2.8-2.645,4.79-2.7,4.215-.123,8.436-.052,12.653-.132.989-.019,1.321.239,1.3,1.251-.019.978-.164,1.493-1.332,1.471-3.525-.065-7.051-.048-10.577-.014-2.72.027-3.106.409-3.095,2.8s.641,2.958,3.239,3a43.1,43.1,0,0,1,6.4.19c5.13.866,5.769,2.514,4.785,7.834-.663.119-.545.762-.785,1.165-1.494,1.606-3.493,1.923-5.511,1.968-3.645.081-7.294-.008-10.94.043-1.048.015-1.4-.269-1.4-1.368,0-1.122.4-1.361,1.427-1.345q5,.077,10,.009c2.827-.034,3.353-.683,3.389-3.45.022-1.707-.806-2.372-2.363-2.485-2.444-.178-4.913.161-7.341-.3-1.856-.35-3.718-.736-4.658-2.686C541.864-1837.833,541.984-1839.584,542-1841.336Z" transform="translate(-484.372 1885.917)" fill="#e38e01"/>
      <path id="Path_293" data-name="Path 293" d="M483.135-1818.583a3.458,3.458,0,0,0,2.847,1.154c2.951-.017,5.9.031,8.852.054.032.295-.1.5-.395.5-2.8.026-5.61.087-7.664,0,2.319-.24,5.4.551,8.448-.362a1.694,1.694,0,0,0,.312-.573c.144-2.68.018-5.36.068-8.039a4.783,4.783,0,0,1,.188-2.026c.843-.577,1.709-.109,2.346-.261-.742-.3-1.855.281-2.821-.208,1.041-.631,2.179-.181,3.268-.281.693-.063.777.408.775.984-.019,4.77.046,9.542-.048,14.31-.046,2.33-1.983,4.094-4.963,4.218-4.776.2-9.564.072-14.347.117-1.151.011-.863-.767-.934-1.413-.1-.9.254-1.208,1.167-1.2,3.965.038,7.931.049,11.9,0,1.391-.017,2.859-.092,3.048-2.026.1-1-.167-1.472-1.315-1.443-2.831.071-5.665.05-8.5,0a6.88,6.88,0,0,1-5.662-2.385c-.772-3.255-.4-6.562-.26-9.829.072-1.655,1.68-.937,2.715-.925.758.445.553,1.2.563,1.86.029,2.007-.009,4.016.022,6.023C482.755-1819.736,482.535-1819.06,483.135-1818.583Z" transform="translate(-445.607 1876.311)" fill="#01618a"/>
      <path id="Path_294" data-name="Path 294" d="M610.586-1953.035a11.28,11.28,0,0,1,5.329,2.82c.8.729,1.719.337,2.6.257,4.373.523,7.52,3.234,10.666,5.946a5.188,5.188,0,0,0,2.236,2.231c3.8,3.529,5.423,8.329,7.44,12.875,1.213,2.732,2.341,5.394,5.676,6.131.319.07.569.451.852.687.266.162.541.4.329.7-.3.411-.73.252-1.118.066l.021.009c-.519-.638-1.316-.535-2-.745-3.1-.114-3.779-2.642-4.844-4.8-1.577-3.2-2.677-6.629-4.551-9.675a27.755,27.755,0,0,0-14.337-11.907,1.965,1.965,0,0,0-1.867-.109,3.89,3.89,0,0,1-3.07-.994,14.248,14.248,0,0,0-3.947-2.042c-1.131-.457-1.924-.25-2.406.9-1.083-.942-.334-1.528.412-2.115C608.844-1953.207,609.737-1952.878,610.586-1953.035Z" transform="translate(-525.036 1953.465)" fill="#01618a"/>
      <path id="Path_295" data-name="Path 295" d="M681.821-1826.094q0,.736,0,1.472c-.637.557-1.417.381-2.148.387-3.594.029-7.188-.014-10.782.012-3.291-.125-5.053-1.3-5.662-3.78.411-2.872.092-5.759.176-8.637a40.559,40.559,0,0,0-.021-4.712c-.141-1.607.461-2.023,2.007-1.969,1.24.044,1.448.506,1.435,1.582-.048,3.9-.033,7.8,0,11.693,0,.525-.291,1.126.226,1.59.478,1.251,1.59,1.6,2.729,1.9,1.167.61,2.412.171,3.617.243C676.2-1826.146,679.02-1826.54,681.821-1826.094Z" transform="translate(-559.884 1885.393)" fill="#e38d00"/>
      <path id="Path_296" data-name="Path 296" d="M606.806-1952.647a1.727,1.727,0,0,0-.333,1.966,13.61,13.61,0,0,0,1.3,2.268,19.341,19.341,0,0,1,3.925,7.62,9.943,9.943,0,0,0,2.461,4.589c1.153,1.141.534,2.346.108,3.5a13.9,13.9,0,0,0-.516,8.582c.359,1.321.5,3.162,2.492,3.482-.12.513-.127,1.1-.822,1.231-1.973-1.022-2.466-2.975-2.949-4.865-.82-3.212-.224-6.356.7-9.46.151-.507.51-.966-.031-1.545a13.645,13.645,0,0,1-3-6,19.047,19.047,0,0,0-3.732-6.672c-1.719-2.241-1.534-3.737.389-5.06q.2.123.13.247C606.894-1952.689,606.851-1952.647,606.806-1952.647Z" transform="translate(-523.904 1953.454)" fill="#01618a"/>
      <path id="Path_297" data-name="Path 297" d="M711.5-1855.83c-1.426.731-3.093.393-4.538,1.016-.416.18-1.157-.132-1.2.585-.035.53.484.85.9,1.123a17.393,17.393,0,0,1,4.8,3.83c.251.335.731.52.695,1.048-2.554-.508-7.269-3.53-8.527-5.428-.709-1.071-.929-1.862.719-2.242a12.241,12.241,0,0,1,4.419-.691c.591.322,1.238.064,1.85.182A1.047,1.047,0,0,1,711.5-1855.83Z" transform="translate(-584.623 1893.649)" fill="#01618a"/>
      <path id="Path_298" data-name="Path 298" d="M632.081-1877.336l.822-1.231c.3-1.6.517-3.214.924-4.783.194-.748.551-1.774,1.388-1.852.945-.089.737,1.116,1.144,1.686a3.434,3.434,0,0,1,.318.865c-.2.35-.06,1.059-.843.8-1.138.7-.652,1.94-.918,2.919C634.458-1877.249,633.717-1876.764,632.081-1877.336Z" transform="translate(-540.56 1911.379)" fill="#01618a"/>
      <path id="Path_299" data-name="Path 299" d="M392.031-1842.81c-.627,6.166-.137,12.349-.289,18.523.945.5,2.009-.064,2.966.329l.123.11c-.107.061-.209.168-.32.178-3.578.309-3.578.307-3.578-3.24q0-6.661,0-13.323C390.926-1841.261,390.961-1842.25,392.031-1842.81Z" transform="translate(-390.928 1885.072)" fill="#01618a"/>
      <path id="Path_300" data-name="Path 300" d="M666.745-1829.112a3.145,3.145,0,0,1-.407-1.026c-.029-3.9-.026-7.79-.013-11.685,0-1.036.142-1.948-1.465-1.97-1.7-.024-1.578.944-1.573,2.054q.026,5.56,0,11.12c0,.661.25,1.4-.356,1.96-.37-4.882-.042-9.772-.179-14.656-.022-.778.332-.909,1.005-.972,2.891-.271,3.065-.142,3.055,2.766Q666.786-1835.317,666.745-1829.112Z" transform="translate(-559.584 1886.048)" fill="#e48300"/>
      <path id="Path_301" data-name="Path 301" d="M705.975-1870.732c.43-.082,1.222.208.788-.762a18.119,18.119,0,0,1,7.215,5.636,1.072,1.072,0,0,1-1.623-.095c-1.067-1.827-3.124-2.409-4.649-3.662A17.172,17.172,0,0,0,705.975-1870.732Z" transform="translate(-586.41 1902.87)" fill="#01618a"/>
      <path id="Path_302" data-name="Path 302" d="M678.145-1793.675c.556-.623,1.3-.364,1.96-.37,3.656-.029,7.313-.023,10.97-.029.165.4-.051.643-.394.636C686.5-1793.526,682.314-1793.1,678.145-1793.675Z" transform="translate(-569.142 1854.844)" fill="#e28604"/>
      <path id="Path_303" data-name="Path 303" d="M641.97-1877.677l.843-.8,3.475,6.128C643.946-1873.436,642.811-1875.442,641.97-1877.677Z" transform="translate(-546.696 1907.201)" fill="#01618a"/>
      <path id="Path_304" data-name="Path 304" d="M488.512-1817.667c-1.047-.2-.755-1.046-.764-1.68-.034-2.568-.015-5.137-.016-7.706a.475.475,0,0,1,.709,0Z" transform="translate(-450.984 1875.395)" fill="#01618a"/>
      <path id="Path_305" data-name="Path 305" d="M483.158-1827.985l-.709,0c-2.647,0-2.647,0-2.648,2.606q0,3.951,0,7.9c-.507-.015-.367-.394-.385-.683a63.235,63.235,0,0,1-.009-10.251C480.676-1828.45,482.038-1829.282,483.158-1827.985Z" transform="translate(-445.7 1876.323)" fill="#01618a"/>
      <path id="Path_306" data-name="Path 306" d="M691.646-1798.838q-5.968-.01-11.936-.023c-.5,0-1.113-.031-.111-.438,3.712-.023,7.423-.054,11.134-.055C691.082-1799.354,691.7-1799.627,691.646-1798.838Z" transform="translate(-569.709 1858.136)" fill="#e08200"/>
      <path id="Path_307" data-name="Path 307" d="M599.369-1833.72c.7,3.021.162,6.084.291,9.125.035.839.312,1.757-.3,2.541C599.213-1825.942,599.2-1829.831,599.369-1833.72Z" transform="translate(-520.186 1879.432)" fill="#e28900"/>
      <path id="Path_308" data-name="Path 308" d="M623.349-1843.9c-1.43.717-2.961.323-4.43.3-2.171-.032-4.373.4-6.517-.279A75.967,75.967,0,0,1,623.349-1843.9Z" transform="translate(-528.349 1885.863)" fill="#e18200"/>
      <path id="Path_309" data-name="Path 309" d="M505.98-1799.2a1.234,1.234,0,0,1-1.2.75,72.9,72.9,0,0,1-9-.373c2.487,0,4.974.017,7.461-.011.664-.007,1.395.24,1.972-.332a.243.243,0,0,1,.278-.075A.306.306,0,0,1,505.98-1799.2Z" transform="translate(-455.99 1858.098)" fill="#01618a"/>
      <path id="Path_310" data-name="Path 310" d="M521.857-1816.293l-.485-.042q.075-5.261.15-10.523a.336.336,0,0,1,.5.29c-.078,3.424.246,6.855-.166,10.274Z" transform="translate(-471.867 1875.195)" fill="#01618a"/>
      <path id="Path_311" data-name="Path 311" d="M479.131-1827.912q0,5.125.01,10.251A35.186,35.186,0,0,1,479.131-1827.912Z" transform="translate(-445.427 1875.828)" fill="#01618a"/>
      <path id="Path_312" data-name="Path 312" d="M542-1836.7a9.246,9.246,0,0,1-.019,5.254A7.809,7.809,0,0,1,542-1836.7Z" transform="translate(-484.378 1881.28)" fill="#e18600"/>
      <path id="Path_313" data-name="Path 313" d="M630.3-1931.841c1.576-.625,2.148.035,2.558.892.178.371.222,1.067-.3,1.043C631.363-1929.961,631.62-1931.473,630.3-1931.841Z" transform="translate(-539.453 1940.467)" fill="#01618a"/>
      <path id="Path_314" data-name="Path 314" d="M667.592-1927.031a2.51,2.51,0,0,1-2.236-2.231A8.415,8.415,0,0,1,667.592-1927.031Z" transform="translate(-561.207 1938.714)" fill="#01618a"/>
      <path id="Path_315" data-name="Path 315" d="M609.37-1953.362c0-.123,0-.246,0-.369a2.249,2.249,0,0,1,2.648-.007C611.221-1953.014,610.25-1953.509,609.37-1953.362Z" transform="translate(-526.468 1954.168)" fill="#01618a"/>
      <path id="Path_316" data-name="Path 316" d="M722.643-1856.892l1.623.095c.82,1.167-.372.615-.693.807-.325-.057-.663-.087-.847-.423a.28.28,0,0,1-.076-.469Z" transform="translate(-596.698 1893.81)" fill="#01618a"/>
      <path id="Path_317" data-name="Path 317" d="M522.1-1827.408l-.334,0,.054-.373h3.27l.007.377h-2.616C522.355-1827.223,522.228-1827.213,522.1-1827.408Z" transform="translate(-472.112 1875.749)" fill="#01618a"/>
      <path id="Path_318" data-name="Path 318" d="M401.931-1845.1a1.235,1.235,0,0,1-1.9,0A2.248,2.248,0,0,1,401.931-1845.1Z" transform="translate(-396.574 1886.624)" fill="#01618a"/>
      <path id="Path_319" data-name="Path 319" d="M456.762-1845.106a1.239,1.239,0,0,1-1.9.016A2.211,2.211,0,0,1,456.762-1845.106Z" transform="translate(-430.597 1886.625)" fill="#01618a"/>
      <path id="Path_320" data-name="Path 320" d="M426.012-1792.794a2.6,2.6,0,0,1,2.62.057A5.744,5.744,0,0,1,426.012-1792.794Z" transform="translate(-412.697 1854.24)" fill="#01618a"/>
      <path id="Path_321" data-name="Path 321" d="M632.993-1945.349c-.916.4-1.827.744-2.6-.256Z" transform="translate(-539.51 1948.855)" fill="#01618a"/>
      <path id="Path_322" data-name="Path 322" d="M700.772-1871.484c.771-.031,1.6-.222,2,.745A4,4,0,0,1,700.772-1871.484Z" transform="translate(-583.182 1902.886)" fill="#01618a"/>
      <path id="Path_323" data-name="Path 323" d="M719.849-1856.867l.076.469c-.633-.081-1.338.24-1.883-.336Z" transform="translate(-593.898 1893.794)" fill="#01618a"/>
      <path id="Path_324" data-name="Path 324" d="M633.32-1941.847a1.233,1.233,0,0,1,1.867.109Z" transform="translate(-541.329 1946.755)" fill="#01618a"/>
      <path id="Path_325" data-name="Path 325" d="M588.571-1799.457c.116-.486-.247-1.293.785-1.164A1.414,1.414,0,0,1,588.571-1799.457Z" transform="translate(-513.563 1858.903)" fill="#e18300"/>
      <path id="Path_326" data-name="Path 326" d="M400.039-1819.769v-15.758l.35,0v15.769Q400.209-1819.541,400.039-1819.769Z" transform="translate(-396.581 1880.554)" fill="#01618a"/>
      <path id="Path_327" data-name="Path 327" d="M395.616-1794q.175,0,.35.008a.764.764,0,0,1-.028.32c-.981-.007-1.961-.012-2.941-.025-.032,0-.085-.085-.087-.133a.482.482,0,0,1,.061-.172Z" transform="translate(-392.158 1854.788)" fill="#01618a"/>
      <path id="Path_328" data-name="Path 328" d="M617.422-1823.183c-1.221-.4-2.483-.06-3.72-.213a2.451,2.451,0,0,1-2.48-2.7c.013-2.932.03-5.864-.012-8.795a2.832,2.832,0,0,1,.919-2.15,1.284,1.284,0,0,1,.921-.606c3.051-.211,6.109-.572,9.141.2a3.476,3.476,0,0,1,1.883,1.976,42.549,42.549,0,0,1,.007,9.977c-.369.661-.453,1.566-1.454,1.682-.993-.106-1.4-.879-1.837-1.612l-1.2-1.143a20.073,20.073,0,0,0-4.086-.138c-.321-.012-.633.1-.446.551a13.649,13.649,0,0,1,2.981,2.891C617.879-1822.922,617.671-1822.9,617.422-1823.183Z" transform="translate(-527.609 1882.035)" fill="#fefefd"/>
      <path id="Path_329" data-name="Path 329" d="M623.333-1838.083c-3.354.144-6.74-.5-10.062.411-.479-.452-.081-.67.27-.747a26.179,26.179,0,0,1,9.969-.079c.091.015.168.116.251.177Z" transform="translate(-528.752 1882.67)" fill="#e18602"/>
      <path id="Path_330" data-name="Path 330" d="M644.924-1822.2c-.169-3.326-.16-6.651-.007-9.977.117-.123.349-.745.367-.226.118,3.467.062,6.939.062,10.41,0,.062,0,.168-.023.178C644.94-1821.682,645-1822.018,644.924-1822.2Z" transform="translate(-548.452 1878.743)" fill="#e18300"/>
      <ellipse id="Ellipse_20" data-name="Ellipse 20" cx="0.119" cy="7.123" rx="0.119" ry="7.123" transform="translate(82.983 44.384)" fill="#e18300"/>
      <path id="Path_331" data-name="Path 331" d="M620.958-1808.221c-.306-.237-.368-.635.027-.645,1.5-.042,3.035-.413,4.5.233C624-1808.314,622.411-1809,620.958-1808.221Z" transform="translate(-533.504 1864.099)" fill="#f6dfb8"/>
      <path id="Path_332" data-name="Path 332" d="M620.667-1799.229l.623-.082c-1.537,1.192-3.242.057-4.823.639l-.028-.557Z" transform="translate(-530.854 1858.082)" fill="#e08200"/>
      <path id="Path_333" data-name="Path 333" d="M636.456-1805l1.837,1.612c.134.129.325.234.391.392.114.272-.177.314-.289.242C637.528-1803.31,636.469-1803.714,636.456-1805Z" transform="translate(-543.275 1861.613)" fill="#e18601"/>
      <path id="Path_334" data-name="Path 334" d="M565.284-1816.382h-5.571v-.179h5.571Z" transform="translate(-495.656 1868.785)" fill="#e28604"/>
      <path id="Path_335" data-name="Path 335" d="M522.648-1826.793h.38c0,2.935.01,5.87-.01,8.8,0,.6.207,1.266-.37,1.755Q522.649-1821.512,522.648-1826.793Z" transform="translate(-472.658 1875.134)" fill="#01618a"/>
      <path id="Path_336" data-name="Path 336" d="M530.85-1813.208v-5.551h.189v5.516Z" transform="translate(-477.747 1870.15)" fill="#01618a"/>
    </g>
  </g>
</svg>
