<svg xmlns="http://www.w3.org/2000/svg" width="156" height="156" viewBox="0 0 156 156">
  <g id="Group_314" data-name="Group 314" transform="translate(-985 -3996)">
    <circle id="Ellipse_62" data-name="Ellipse 62" cx="78" cy="78" r="78" transform="translate(985 3996)" fill="#fff"/>
    <g id="Group_300" data-name="Group 300" transform="translate(1018.23 4029.222)">
      <path id="Path_207" data-name="Path 207" d="M3509.511,1432.178a44.774,44.774,0,0,1-44.6-44.979c.115-23.388,18.459-44.527,44.668-44.576a44.337,44.337,0,0,1,44.87,44.738C3554.521,1413.381,3533.5,1432.144,3509.511,1432.178Zm-9.778-43.833-.434.1a9.826,9.826,0,0,1-.7-.875c-3.567-5.607-7.185-11.183-10.651-16.851-1.015-1.657-2.122-2.469-4.124-2.31-1.335.106-1.839.452-1.831,1.839q.075,11.416,0,22.834c-.008,1.281.385,1.71,1.709,1.751,1.634.05,2.208-.525,2.026-2.109a23.535,23.535,0,0,1-.021-2.665v-15.805c.373.5.538.694.676.907q5.867,9.066,11.729,18.133a3.687,3.687,0,0,0,4.485,1.386c1.484-.487.932-1.869.931-2.841-.008-6.823-.125-13.646-.188-20.469-.027-2.849-.005-2.852-2.8-2.687a4.6,4.6,0,0,0-.81.239Zm13.413-8.6v-8.027h9.5v-3.046c-4.188,0-8.238-.033-12.284.057-.349.008-.971.822-.976,1.267-.083,7.776-.076,15.553-.126,23.33-.007,1.079.4,1.483,1.468,1.47,2.5-.029,5,.052,7.5.014,1.7-.026,3.393-.18,5.078-.276v-3.2H3513c0-2.246.111-4.349-.036-6.434-.115-1.624.536-1.985,2-1.925,2.316.094,4.638.025,6.914.025.623-3.12.51-3.265-2.312-3.258C3517.464,1379.746,3515.364,1379.742,3513.146,1379.742Zm19.681-7.954v22.718h3.276v-22.721c2.16,0,4.15-.055,6.135.02,1.216.047,1.5-.477,1.5-1.585-.005-1.083-.235-1.595-1.477-1.58q-7.668.092-15.338,0c-1.258-.015-1.616.394-1.629,1.617-.013,1.322.555,1.594,1.716,1.551C3528.883,1371.737,3530.761,1371.788,3532.828,1371.788Zm-31.334,30.764.349-.419c-.313-.553-.625-1.579-.94-1.58-1.834-.009-3.87-.231-5.46.472-3.048,1.349-4.035,5.417-2.535,8.637,1.307,2.8,4.52,3.953,7.8,2.818,1.053-.365,1.165-.995.692-2-2.39.739-4.735,1.248-6.431-1.241a5.282,5.282,0,0,1,.128-5.37C3496.745,1401.5,3499,1401.476,3501.494,1402.552Zm24.488,8.1c-2.221.056-4.637,1.655-5.469-1.824,1.662,0,3.15.069,4.626-.042.444-.033,1.161-.51,1.226-.877a3.762,3.762,0,0,0-4.913-4.235c-2.1.654-3.053,2.443-2.9,5.356.085,1.592.8,3,2.252,3.377a11.549,11.549,0,0,0,4.325-.149C3525.429,1412.216,3525.619,1411.371,3525.982,1410.651Zm-23.109-2.517c-.007,2.891,1.589,4.7,4.18,4.731,2.674.035,4.579-1.973,4.6-4.847a4.357,4.357,0,0,0-4.4-4.638C3504.48,1403.41,3502.879,1405.15,3502.873,1408.133Zm10.35-4.135v8.526l1.867-.087c0-1.332-.018-2.487,0-3.641.048-2.569.447-3.071,2.888-3.632.037-.7.5-1.65-.82-1.615C3515.935,1403.582,3514.713,1403.819,3513.223,1404Zm-38.278-13.342a1.919,1.919,0,0,0-2.092,2.207,2.162,2.162,0,0,0,2.2,2.207,2.211,2.211,0,1,0-.113-4.413Z" transform="translate(-3464.912 -1342.622)" fill="#5e2f90"/>
      <path id="Path_208" data-name="Path 208" d="M3533.872,1439.846v-19.422a4.6,4.6,0,0,1,.81-.239c2.8-.165,2.774-.162,2.8,2.687.063,6.823.181,13.646.189,20.469,0,.972.553,2.354-.932,2.841a3.685,3.685,0,0,1-4.483-1.386q-5.872-9.062-11.73-18.133c-.137-.213-.3-.408-.675-.907v15.805a23.586,23.586,0,0,0,.02,2.665c.182,1.585-.392,2.159-2.026,2.109-1.324-.04-1.716-.47-1.71-1.75q.064-11.417,0-22.834c-.009-1.387.495-1.732,1.831-1.839,2-.159,3.109.653,4.123,2.31,3.467,5.668,7.084,11.244,10.651,16.851a10.285,10.285,0,0,0,.7.875Z" transform="translate(-3499.05 -1394.123)" fill="#fff"/>
      <path id="Path_209" data-name="Path 209" d="M3601.779,1431.785c2.218,0,4.319,0,6.419,0,2.822-.007,2.936.138,2.312,3.258-2.276,0-4.6.07-6.914-.025-1.46-.06-2.112.3-2,1.925.148,2.084.036,4.188.036,6.434h10.3v3.2c-1.686.1-3.381.25-5.078.276-2.5.038-5-.043-7.5-.014-1.067.012-1.474-.391-1.467-1.47.05-7.776.043-15.554.126-23.33,0-.445.626-1.259.975-1.267,4.046-.09,8.1-.057,12.283-.057v3.046h-9.5Z" transform="translate(-3553.544 -1394.666)" fill="#fff"/>
      <path id="Path_210" data-name="Path 210" d="M3653.5,1423.782c-2.066,0-3.945-.05-5.818.019-1.16.043-1.729-.229-1.715-1.551.012-1.223.371-1.632,1.628-1.617q7.669.1,15.339,0c1.24-.015,1.47.5,1.477,1.58,0,1.108-.284,1.631-1.5,1.585-1.986-.075-3.975-.02-6.135-.02V1446.5H3653.5Z" transform="translate(-3585.588 -1394.616)" fill="#fff"/>
      <path id="Path_211" data-name="Path 211" d="M3556.064,1518.248c-2.5-1.076-4.749-1.048-6.4,1.319a5.279,5.279,0,0,0-.129,5.37c1.7,2.49,4.042,1.98,6.431,1.241.474,1,.362,1.632-.691,2-3.277,1.135-6.49-.014-7.8-2.819-1.5-3.22-.513-7.288,2.534-8.636,1.59-.7,3.626-.481,5.459-.472.317,0,.628,1.027.941,1.58Z" transform="translate(-3519.482 -1458.318)" fill="#fff"/>
      <path id="Path_212" data-name="Path 212" d="M3633.153,1532.291c-.364.72-.552,1.565-.852,1.606a11.553,11.553,0,0,1-4.325.15c-1.453-.378-2.167-1.785-2.252-3.377-.155-2.913.8-4.7,2.9-5.356a3.762,3.762,0,0,1,4.913,4.235c-.064.367-.782.844-1.225.877-1.475.11-2.964.042-4.626.042C3628.514,1533.946,3630.931,1532.347,3633.153,1532.291Zm-1.85-3.679.3-.6c-.6-.389-1.241-1.139-1.791-1.077-.7.08-1.333.814-1.994,1.266l.29.411Z" transform="translate(-3572.083 -1464.262)" fill="#fff"/>
      <path id="Path_213" data-name="Path 213" d="M3578.738,1529.558c.007-2.984,1.607-4.723,4.377-4.754a4.356,4.356,0,0,1,4.4,4.638c-.02,2.874-1.926,4.882-4.6,4.847C3580.327,1534.255,3578.731,1532.449,3578.738,1529.558Zm6.774.005c-.022-1.854-.958-2.989-2.426-2.943-1.542.048-2.517,1.265-2.5,3.118.019,1.792.968,2.853,2.53,2.827C3584.577,1532.54,3585.531,1531.342,3585.512,1529.563Z" transform="translate(-3540.777 -1464.047)" fill="#fff"/>
      <path id="Path_214" data-name="Path 214" d="M3609.776,1525.761c1.49-.179,2.711-.417,3.938-.449,1.315-.035.857.917.82,1.615-2.442.561-2.84,1.063-2.888,3.632-.022,1.154,0,2.309,0,3.641l-1.867.087v-8.526Z" transform="translate(-3561.464 -1464.385)" fill="#fff"/>
      <path id="Path_215" data-name="Path 215" d="M3490.817,1486.652a2.211,2.211,0,1,1,.112,4.413,2.162,2.162,0,0,1-2.2-2.207A1.92,1.92,0,0,1,3490.817,1486.652Z" transform="translate(-3480.783 -1438.618)" fill="#fff"/>
      <path id="Path_216" data-name="Path 216" d="M3635.527,1532.218h-3.191l-.29-.41c.661-.452,1.29-1.186,1.994-1.266.548-.062,1.19.688,1.79,1.077C3635.729,1531.818,3635.628,1532.018,3635.527,1532.218Z" transform="translate(-3576.307 -1467.868)" fill="#5e2f90"/>
      <path id="Path_217" data-name="Path 217" d="M3589.209,1533.191c.02,1.779-.934,2.977-2.392,3-1.562.026-2.511-1.034-2.531-2.827-.02-1.852.955-3.069,2.5-3.118C3588.252,1530.2,3589.188,1531.337,3589.209,1533.191Z" transform="translate(-3544.475 -1467.674)" fill="#5e2f90"/>
    </g>
  </g>
</svg>
