<svg xmlns="http://www.w3.org/2000/svg" width="157" height="156" viewBox="0 0 157 156">
  <g id="Group_317" data-name="Group 317" transform="translate(-1650 -3996)">
    <ellipse id="Ellipse_65" data-name="Ellipse 65" cx="78.5" cy="78" rx="78.5" ry="78" transform="translate(1650 3996)" fill="#fff"/>
    <g id="Group_302" data-name="Group 302" transform="translate(1683.661 4028.5)">
      <rect id="Rectangle_61" data-name="Rectangle 61" width="89.677" height="89.677" rx="17" fill="#fd0101"/>
      <g id="Group_45" data-name="Group 45" transform="translate(7.986 10.826)">
        <path id="Path_226" data-name="Path 226" d="M3175.738,2277.167a5.073,5.073,0,0,1-3.614,3.553c-2.18.016-4.362.087-6.54.031a4.338,4.338,0,0,1-3.892-2.464,4.457,4.457,0,0,1,.209-4.681c.172-.278.391-.526.588-.787a5.082,5.082,0,0,1,4-1.327c.741.021,1.484-.035,2.227-.056.866.023,1.732.032,2.6.073a4.538,4.538,0,0,1,3.972,2.51A5.452,5.452,0,0,1,3175.738,2277.167Zm-9.545-3.975a2.933,2.933,0,0,0-3.241,2.429,2.875,2.875,0,0,0,2.406,3.431,30.384,30.384,0,0,0,6.262-.026,1.959,1.959,0,0,0,1.224-.626,2.9,2.9,0,0,0-1.636-5.237C3169.536,2273.13,3167.863,2273.178,3166.192,2273.192Z" transform="translate(-3161.126 -2212.547)" fill="#fefafa"/>
        <path id="Path_227" data-name="Path 227" d="M3500.1,2280.054a5.084,5.084,0,0,1-2.061-3.759c.252-2.692,1.489-4.154,4.014-4.743l6.917-.078c-.343,1.249-.777,1.648-1.9,1.751-1.5-.01-3-.06-4.5-.018a2.759,2.759,0,0,0-2.372,1.553c-.275.48-.136.618.387.609,1.8-.031,3.6-.034,5.4-.048h2.439c-.373,1.383-.732,1.677-1.975,1.676-1.947,0-3.9.016-5.841-.011-.625-.009-.658.2-.375.66a3.039,3.039,0,0,0,2.767,1.526h6.113c-.637,1.6-.679,1.632-2.239,1.632-1.078,0-2.158-.04-3.233.01A6.474,6.474,0,0,1,3500.1,2280.054Z" transform="translate(-3437.302 -2212.579)" fill="#fefafa"/>
        <path id="Path_228" data-name="Path 228" d="M3566.8,2274.785c.064-.355-.134-.744.41-.685.3.032.5.16.358.429-.091.175.213.494-.195.527C3567.348,2274.7,3566.56,2275.461,3566.8,2274.785Z" transform="translate(-3493.631 -2214.726)" fill="#fefafa"/>
        <path id="Path_229" data-name="Path 229" d="M3258.371,2275.369a3.247,3.247,0,0,1-3.656,2.352l-.048.217,3.362,2.843c-1.332-.1-2.438.319-3.461-.719-1.32-1.34-2.817-2.505-4.29-3.792a1.51,1.51,0,0,1,.978-.141c1.32-.016,2.64.016,3.959-.024a1.4,1.4,0,0,0,1.4-1.448,1.38,1.38,0,0,0-1.362-1.485c-1.828-.044-3.658-.008-5.488-.028-.472-.005-.534.232-.531.615.018,2.219.024,4.438.035,6.656-.372.758-1.045.312-1.554.319-.441.007-.219-.522-.236-.808-.05-.855-.052-1.714-.073-2.571.021-1.7.068-3.4.049-5.107-.006-.586.158-.766.753-.757,1.461.024,2.923-.027,4.385-.049a17.936,17.936,0,0,0,1.965.047A3.286,3.286,0,0,1,3258.371,2275.369Z" transform="translate(-3231.856 -2212.553)" fill="#fefafa"/>
        <path id="Path_230" data-name="Path 230" d="M3446.1,2280.805c-1.921-.094-1.914-.094-1.922-2.026-.008-2.038-.031-4.077-.048-6.115-.1-.945.291-1.369,1.258-1.18.052.01.115-.028.172-.044.51.1.409.5.41.843,0,2.028.029,4.055-.01,6.082-.011.63.173.821.8.791,1.16-.057,2.324-.034,3.486-.044h3.865c-.507,1.521-.694,1.661-2.1,1.665Q3449.06,2280.786,3446.1,2280.805Z" transform="translate(-3393.104 -2212.55)" fill="#fefafa"/>
        <path id="Path_231" data-name="Path 231" d="M3262.36,1955.113a10.753,10.753,0,0,1,9.891,12.239,10.89,10.89,0,0,1-8.7,9.547c-.117.024-.237.037-.355.052-1.342.165-2.14-.3-2.249-1.309-.1-.944.547-1.551,1.861-1.74,4.085-.587,7.036-4.843,6.39-9.216a7.559,7.559,0,0,0-8.746-6.367c-.841.152-1.163-.038-1.436-.87a7.39,7.39,0,0,0-9.645-5.085c-.822.241-.972-.222-1.267-.7a7.424,7.424,0,0,0-13.038.169,7.97,7.97,0,0,0-.772,5.758c.159.741-.088.842-.727.859a7.317,7.317,0,0,0-6.847,4.172c-2.689,5.444,1.4,11.256,6.356,11.344a1.536,1.536,0,0,1,1.494,2.325,1.7,1.7,0,0,1-1.723.722,10.616,10.616,0,0,1-9.589-7.716,12.415,12.415,0,0,1-.142-5.968,11.01,11.01,0,0,1,5.351-6.7,3.022,3.022,0,0,1,.98-.435c1.45-.159,1.619-1.125,1.757-2.338.777-6.783,8.778-11.477,15.338-7.791a9.57,9.57,0,0,1,3.207,2.671.58.58,0,0,0,.607.278,10.016,10.016,0,0,1,7.155,1.564.693.693,0,0,0,.165.052,12.425,12.425,0,0,1,3.352,3.633A.994.994,0,0,0,3262.36,1955.113Z" transform="translate(-3211.698 -1944.771)" fill="#fefafa"/>
        <path id="Path_232" data-name="Path 232" d="M3312.031,2275.815c.855-1.315,1.682-2.65,2.575-3.938.733-1.057,1.718-1,2.444.063a14.272,14.272,0,0,0,1.277,1.917c1.358,2.174,2.715,4.348,4.152,6.651a11.932,11.932,0,0,0-1.311.009.927.927,0,0,1-1.126-.625,1.492,1.492,0,0,0-1.805-1.031,21.05,21.05,0,0,1-2.249.017c-1.559,0-1.559,0-2.28-1.6h4.625c-.875-1.419-1.66-2.694-2.523-4.094-.722,1.143-1.383,2.186-2.042,3.231a25.011,25.011,0,0,0-1.652,2.674,2.186,2.186,0,0,1-2.938,1.319Z" transform="translate(-3282.487 -2212.28)" fill="#fefafa"/>
        <path id="Path_233" data-name="Path 233" d="M3378.594,2274.133a4.927,4.927,0,0,1,4.691-2.435c1.589.053,3.18.008,4.771.011.285,0,.571.028.943.047l-.662,1.249a1.071,1.071,0,0,1-.955.353q-2.158-.023-4.319,0a3.006,3.006,0,1,0,0,6c2,.012,4,0,6.026,0-.6,1.574-.681,1.633-2.166,1.633-1.2,0-2.408-.09-3.6.016A4.722,4.722,0,0,1,3378.594,2274.133Z" transform="translate(-3338.961 -2212.758)" fill="#fefafa"/>
        <path id="Path_234" data-name="Path 234" d="M3343.712,2056.832c0,1.139.06,2.284-.02,3.417-.057.8.242.915.95.9,2.279-.046,4.56,0,6.839-.03.669-.01.919.063.768.858a8.155,8.155,0,0,1-9.848,6.525c-.582-.13-.955-.321-.872-1.049s-.013-1.5.028-2.248c.033-.613-.158-.87-.809-.84-.988.046-1.979-.016-2.968.023a.9.9,0,0,1-1.006-.63,8.176,8.176,0,0,1,6.407-11.227c.493-.06.543.115.538.518C3343.7,2054.312,3343.712,2055.572,3343.712,2056.832Z" transform="translate(-3304.584 -2033.098)" fill="#fefafa"/>
        <path id="Path_235" data-name="Path 235" d="M3294.137,2096.338c0-2.431.017-4.863-.012-7.294-.008-.629.193-.846.826-.825,1.259.041,2.522.04,3.781,0,.633-.021.827.195.824.825q-.031,7.384,0,14.769c0,.5-.129.664-.644.651q-2.069-.051-4.142,0c-.514.013-.65-.146-.644-.65C3294.15,2101.321,3294.137,2098.83,3294.137,2096.338Z" transform="translate(-3270.149 -2062.358)" fill="#fefafa"/>
        <path id="Path_236" data-name="Path 236" d="M3335.531,2129.194c0,1.38-.023,2.761.012,4.141.013.511-.142.659-.649.646-1.379-.033-2.76-.022-4.141,0-.415.006-.648-.028-.643-.558q.039-4.231,0-8.462c0-.549.19-.74.736-.729q1.98.042,3.96,0c.552-.012.739.191.729.736C3335.514,2126.373,3335.531,2127.783,3335.531,2129.194Z" transform="translate(-3299.647 -2091.876)" fill="#fefafa"/>
        <path id="Path_237" data-name="Path 237" d="M3388.395,2054.879c-1.231,0-2.463-.022-3.694.011-.48.012-.6-.144-.6-.607q.031-3.694,0-7.389c0-.5.123-.659.643-.68a7.921,7.921,0,0,1,8.032,8.043c-.021.532-.207.642-.689.63C3390.858,2054.86,3389.626,2054.879,3388.395,2054.879Zm.044-1.083c.87,0,1.74-.024,2.608.009.5.019.68-.081.6-.639a6.9,6.9,0,0,0-5.811-5.808c-.405-.057-.661-.079-.649.493.038,1.8.026,3.6,0,5.4,0,.428.116.572.552.557C3386.638,2053.774,3387.539,2053.8,3388.439,2053.8Z" transform="translate(-3343.906 -2027.923)" fill="#fefafa"/>
        <path id="Path_238" data-name="Path 238" d="M3368.207,2153.654c-.713-.082-1.857.38-2.344-.181-.42-.484-.119-1.6-.127-2.434-.008-.72.013-1.44-.006-2.159-.012-.464.177-.644.638-.64q2.07.023,4.139,0c.463,0,.646.173.641.637-.015,1.409-.021,2.819,0,4.229.007.429-.116.577-.553.557C3369.851,2153.631,3369.1,2153.654,3368.207,2153.654Z" transform="translate(-3328.77 -2111.56)" fill="#fefafa"/>
      </g>
    </g>
  </g>
</svg>
