<svg xmlns="http://www.w3.org/2000/svg" xmlns:xlink="http://www.w3.org/1999/xlink" width="156" height="156" viewBox="0 0 156 156">
  <defs>
    <linearGradient id="linear-gradient" x1="-0.165" y1="0.714" x2="1.088" y2="1.656" gradientUnits="objectBoundingBox">
      <stop offset="0" stop-color="#e6ad10"/>
      <stop offset="1" stop-color="#c87e0e"/>
    </linearGradient>
    <linearGradient id="linear-gradient-2" x1="-0.055" y1="0.964" x2="1" y2="1.932" gradientUnits="objectBoundingBox">
      <stop offset="0" stop-color="#f6d751"/>
      <stop offset="1" stop-color="#e6ad10"/>
    </linearGradient>
    <linearGradient id="linear-gradient-3" x1="0.173" y1="1.378" x2="0.754" y2="2.354" gradientUnits="objectBoundingBox">
      <stop offset="0" stop-color="#f9e589"/>
      <stop offset="1" stop-color="#f6d751"/>
    </linearGradient>
  </defs>
  <g id="Group_321" data-name="Group 321" transform="translate(-985 -4205)">
    <circle id="Ellipse_68" data-name="Ellipse 68" cx="78" cy="78" r="78" transform="translate(985 4205)" fill="#fff"/>
    <g id="Group_304" data-name="Group 304" transform="translate(1012.895 4231.338)">
      <path id="Path_245" data-name="Path 245" d="M-926.955,402.337V409.6h-2.259v-19.2h5.288a7.079,7.079,0,0,1,4.783,1.49,5.35,5.35,0,0,1,1.682,4.23,5.807,5.807,0,0,1-1.875,4.47,7.212,7.212,0,0,1-5.071,1.73h-2.548Zm0-9.9v7.883h2.355a5.326,5.326,0,0,0,3.557-1.058,3.742,3.742,0,0,0,1.226-3c0-2.524-1.49-3.8-4.494-3.8h-2.644Zm17.521,17.5a6.388,6.388,0,0,1-4.855-1.923,7.134,7.134,0,0,1-1.8-5.1,7.384,7.384,0,0,1,1.9-5.408,6.755,6.755,0,0,1,5.1-1.947,6.107,6.107,0,0,1,4.783,1.9,7.449,7.449,0,0,1,1.731,5.239,7.44,7.44,0,0,1-1.851,5.263A6.5,6.5,0,0,1-909.434,409.932Zm.168-12.522a4.143,4.143,0,0,0-3.341,1.442,5.93,5.93,0,0,0-1.226,3.966,5.53,5.53,0,0,0,1.25,3.845,4.269,4.269,0,0,0,3.341,1.418,4.026,4.026,0,0,0,3.269-1.37,5.95,5.95,0,0,0,1.154-3.918,6.092,6.092,0,0,0-1.154-3.966A4.035,4.035,0,0,0-909.266,397.41Zm27.447-1.514-4.11,13.724h-2.283l-2.836-9.806a8.742,8.742,0,0,1-.216-1.274h-.048a5.56,5.56,0,0,1-.288,1.25l-3.077,9.854h-2.187l-4.158-13.724h2.307l2.836,10.311a6.577,6.577,0,0,1,.192,1.226h.1a4.962,4.962,0,0,1,.24-1.25l3.148-10.287h2.019l2.836,10.335a5.482,5.482,0,0,1,.192,1.226h.1a6.956,6.956,0,0,1,.216-1.226l2.788-10.335h2.235Zm13.579,7.4h-9.686a5.1,5.1,0,0,0,1.226,3.533,4.289,4.289,0,0,0,3.245,1.25,6.669,6.669,0,0,0,4.254-1.538v2.067a8,8,0,0,1-4.783,1.322,5.771,5.771,0,0,1-4.566-1.875,7.68,7.68,0,0,1-1.658-5.264,7.522,7.522,0,0,1,1.8-5.215,5.8,5.8,0,0,1,4.494-2.019,5.149,5.149,0,0,1,4.158,1.73,7.208,7.208,0,0,1,1.466,4.831V403.3Zm-2.259-1.875a4.393,4.393,0,0,0-.914-2.956,3.144,3.144,0,0,0-2.5-1.058,3.54,3.54,0,0,0-2.644,1.106,5.057,5.057,0,0,0-1.346,2.908Zm12.714-3.317a2.727,2.727,0,0,0-1.658-.433A2.789,2.789,0,0,0-861.8,399a6.165,6.165,0,0,0-.937,3.605V409.6h-2.187V395.872h2.187v2.836h.048a4.841,4.841,0,0,1,1.442-2.259,3.368,3.368,0,0,1,2.163-.817,3.75,3.75,0,0,1,1.322.192v2.283Zm10.215,11.488v-19.2h5.456a5.907,5.907,0,0,1,3.942,1.226,3.991,3.991,0,0,1,1.466,3.173,4.585,4.585,0,0,1-.889,2.836,4.83,4.83,0,0,1-2.427,1.707v.048a4.847,4.847,0,0,1,3.1,1.466,4.521,4.521,0,0,1,1.154,3.221,5.031,5.031,0,0,1-1.779,3.99,6.642,6.642,0,0,1-4.47,1.538Zm2.235-17.161v6.2h2.307a4.338,4.338,0,0,0,2.908-.889,3.144,3.144,0,0,0,1.057-2.5c0-1.875-1.226-2.788-3.677-2.788h-2.6Zm0,8.22v6.922h3.052a4.57,4.57,0,0,0,3.076-.937,3.236,3.236,0,0,0,1.082-2.572c0-2.259-1.538-3.413-4.639-3.413Zm15.718,8.941h-2.259v-19.2h2.259Z" transform="translate(929.214 -313.51)"/>
      <path id="Path_246" data-name="Path 246" d="M-699.642,201.821v59.593a2.724,2.724,0,0,1-2.721,2.721h-16.93a2.724,2.724,0,0,1-2.721-2.721V201.821a2.724,2.724,0,0,1,2.721-2.721h16.93A2.777,2.777,0,0,1-699.642,201.821Z" transform="translate(770.887 -199.1)" fill="url(#linear-gradient)"/>
      <path id="Path_247" data-name="Path 247" d="M-732.642,242.522v46.065h-22.372V242.522a2.724,2.724,0,0,1,2.721-2.722h16.93A2.724,2.724,0,0,1-732.642,242.522Z" transform="translate(790.68 -223.511)" fill="url(#linear-gradient-2)"/>
      <path id="Path_248" data-name="Path 248" d="M-788.014,283.121v27.095a2.724,2.724,0,0,0,2.722,2.721h19.651V283.121a2.724,2.724,0,0,0-2.721-2.721h-16.929A2.724,2.724,0,0,0-788.014,283.121Z" transform="translate(810.472 -247.862)" fill="url(#linear-gradient-3)"/>
    </g>
  </g>
</svg>
