<svg xmlns="http://www.w3.org/2000/svg" width="20.499" height="14.917" viewBox="0 0 20.499 14.917">
  <path id="Path_1886" data-name="Path 1886" d="M1409.007,1053.227h-15.836c-.145,0-.292.007-.436-.007a.936.936,0,0,1,.022-1.87c.145-.012.291-.005.436-.005h15.919c-.162-.173-.259-.283-.362-.386-1.461-1.462-2.926-2.919-4.378-4.39a1.526,1.526,0,0,1-.379-.614.816.816,0,0,1,.375-.946.882.882,0,0,1,1.061.016,2.216,2.216,0,0,1,.289.265q3.073,3.071,6.144,6.144c.64.64.64,1.065,0,1.7q-3.117,3.119-6.234,6.239a.878.878,0,0,1-1.012.313,1.466,1.466,0,0,1-.644-.686c-.162-.368.074-.69.347-.962q2.2-2.188,4.387-4.381a3.755,3.755,0,0,1,.378-.293Z" transform="translate(-1391.843 -1044.84)" fill="#fff"/>
</svg>
