<svg xmlns="http://www.w3.org/2000/svg" width="88.21" height="94.594" viewBox="0 0 88.21 94.594">
  <g id="Group_301" data-name="Group 301" transform="translate(-563.436 -884.371)">
    <path id="Path_135" data-name="Path 135" d="M627.923,906.312c2.807.967,3.253,1.6,3.256,4.672,0,1.538.028,3.076-.008,4.612-.055,2.3-1.244,3.577-3.573,3.509-1.911-.056-3.809-.532-5.721-.616a2.3,2.3,0,0,0-1.721,1.015c-.972,1.691-1.747,3.5-2.734,5.539,2.177,1.072,4.428,2.262,6.746,3.3,3.489,1.562,6.929,3.16,9.688,5.926a2.818,2.818,0,0,0,1.654.565c1.161.1,2.34,0,3.5.105,4.462.422,7.472,4.509,5.914,8.68a6.5,6.5,0,0,0,1.414,7.433,23.824,23.824,0,0,1,2.781,3.9c2.678,4.539,3.571,9.214.977,14.162-1.139,2.173-2.086,4.446-3.115,6.677a5.019,5.019,0,0,1-4.937,3.176q-34.5-.019-69,0a5.017,5.017,0,0,1-4.934-3.179c-1.028-2.231-1.978-4.5-3.117-6.676-2.593-4.948-1.741-9.643.991-14.153a68.059,68.059,0,0,1,4.38-6.157,2.563,2.563,0,0,0,.421-2.869,16.831,16.831,0,0,1-.717-2.283c-1.172-4.307,1.571-8.584,6.026-8.622,3.228-.028,5.531-1.2,8.064-3.018,2.956-2.117,6.5-3.416,9.778-5.078,1.254-.635,2.5-1.294,3.76-1.951-1.575-4.09-4.68-5.639-8.679-5.833-.614-.03-1.232.024-1.844-.018a3.153,3.153,0,0,1-3.232-3.3c-.054-1.659-.017-3.32-.015-4.981,0-2.96.508-3.657,3.449-4.564a36.7,36.7,0,0,1,.057-6.333,17.237,17.237,0,0,1,11.7-13.986A22.961,22.961,0,0,1,618.248,887c6.391,3.336,9.506,8.83,9.671,16.014C627.945,904.109,627.923,905.206,627.923,906.312ZM607.607,938q-14.944,0-29.887,0c-3.99,0-5.475,2.024-4.288,5.8,2.5,7.965,5.052,15.915,7.481,23.9a2.079,2.079,0,0,0,2.4,1.793q24.26-.079,48.521-.005a2,2,0,0,0,2.316-1.661c2.43-7.987,4.96-15.944,7.453-23.911,1.24-3.963-.17-5.918-4.293-5.922Q622.458,937.994,607.607,938Zm-7.724-15.779a6.709,6.709,0,0,0,.738.941c2.815,2.405,6.149,2.6,9.575,2.073,3.915-.6,5.8-3.395,6.911-6.854.418-1.3.9-2.27,2.43-2.638,1.405-.337,2.424-2.5,2.043-3.923a1.787,1.787,0,0,0-.962-1.122c-2.419-.717-2.4-.674-1.985-3.232.108-.664.229-1.692-.13-2-1.792-1.547-3.909-3-6.326-2.337a16.1,16.1,0,0,1-9.2.009c-2.345-.7-4.535.61-6.16,2.2-.579.565-.182,2.189-.127,3.325.058,1.2-.4,2-1.609,1.972-1.737-.042-1.773,1.08-1.584,2.207a3.473,3.473,0,0,0,2.493,3.108c.541.155,1.327.572,1.415.992.359,1.715,1.606,1.787,2.919,1.882a22.4,22.4,0,0,1,3.843.364,2.555,2.555,0,0,1,1.684,1.47c.21,1.094-.69,1.573-1.766,1.57C602.756,922.221,601.431,922.225,599.882,922.225Zm-24.412,53.55c.79-1.945,1.155-3.586,2.065-4.829a2.158,2.158,0,0,0,.422-2.25q-2.513-7.885-5-15.779c-.138-.435-.329-.852-.622-1.6-1.549,2.286-3.067,4.227-4.253,6.353-1.441,2.584-2.126,5.454-1,8.323a83.156,83.156,0,0,0,3.913,8.319,3.486,3.486,0,0,0,2.068,1.4A8.28,8.28,0,0,0,575.471,975.775Zm63.469-.086c.709.039,1.2.028,1.675.1a3.293,3.293,0,0,0,4.057-2.47,38.038,38.038,0,0,1,2.629-5.663,9.659,9.659,0,0,0-.066-9.516,69.929,69.929,0,0,0-4.344-6.658c-.293.335-.47.451-.52.607q-2.7,8.59-5.363,17.192c-.106.343-.1.957.109,1.125C638.781,971.74,639.149,973.521,638.939,975.689Zm-31.4-3.018c-8.353,0-16.706-.014-25.058.014-1.263,0-3.119-.506-3.161,1.5-.042,2.022,1.816,1.583,3.084,1.584q25.15.032,50.3.012c.552,0,1.211.153,1.63-.091a7.934,7.934,0,0,0,1.511-1.52,9.752,9.752,0,0,0-1.613-1.445c-.371-.214-.96-.052-1.452-.052ZM593.047,906.76c-.894-7.933,2.139-13.182,8.738-15.175a19.25,19.25,0,0,1,11.619.041c5.1,1.629,8.144,5.114,8.806,10.475a38.287,38.287,0,0,1,.03,4.7l2.15-.47c1.348-7.4-1.676-13.844-8.12-16.783a20.015,20.015,0,0,0-18.288.418,14.415,14.415,0,0,0-7.149,16.457Zm25.742-5.145c-.415-4.217-4.644-7.774-11.553-7.68-4.914.067-10.316,2.395-10.895,7.694a10.989,10.989,0,0,1,9.955-.972,4.029,4.029,0,0,0,2.361.027C612.14,899.549,615.5,899.539,618.789,901.615Zm-2.09,26.759c-1.915-1.453-1.885-1.371-3.855-.663a14.393,14.393,0,0,1-10.594-.056,3.081,3.081,0,0,0-3.85.738c.906,3.9,4.54,6.438,9.169,6.426S615.832,932.241,616.7,928.374Zm3.305,1.47-3.1,4.878h12.112l.155-.452Zm-21.8,4.89-3.108-4.908-9.13,4.454.223.454Zm-11.011-25.009v6.065h2.871v-6.065Zm37.8-.007v6.113c.576.034,1.054.083,1.532.085.415,0,.829-.05,1.3-.082v-6.116Z" fill="#ff440e"/>
    <path id="Path_136" data-name="Path 136" d="M715.334,1063.362c0,.92.061,1.844-.008,2.759a5.387,5.387,0,0,1-4.819,4.979c-2.87.27-5.491-1.333-5.872-4.1a27.124,27.124,0,0,1,.022-7.479c.384-2.669,2.972-4.232,5.77-4.005a5.372,5.372,0,0,1,4.892,4.905C715.4,1061.393,715.332,1062.38,715.334,1063.362Zm-7.78-.021c0,.795-.04,1.592.009,2.384a2.212,2.212,0,0,0,2.2,2.262,2.127,2.127,0,0,0,2.383-2.054,31.024,31.024,0,0,0-.014-5.3,2.108,2.108,0,0,0-2.428-1.991,2.226,2.226,0,0,0-2.147,2.319C707.524,1061.75,707.551,1062.546,707.554,1063.341Z" transform="translate(-88.941 -107.979)" fill="#ff440e"/>
    <path id="Path_137" data-name="Path 137" d="M644.973,1071.091a4.477,4.477,0,0,1-4.575-4.147c-.019-.659.728-1.341,1.125-2.012a18.835,18.835,0,0,1,1.889,1.321c.235.206.139.823.376.986a2.554,2.554,0,0,0,1.572.576,1.582,1.582,0,0,0,1.036-1.08,1.7,1.7,0,0,0-.755-1.253c-1.111-.76-2.358-1.323-3.46-2.1a3.847,3.847,0,0,1-1.427-5.161,4.786,4.786,0,0,1,5.333-2.691c1.964.412,3.781,2.46,3.593,4.342a2.412,2.412,0,0,1-1.294,1.672c-.369.146-1.182-.545-1.645-1.011-.311-.313-.239-1.015-.555-1.313a1.892,1.892,0,0,0-1.422-.521,1.694,1.694,0,0,0-1.118,1.027,1.61,1.61,0,0,0,.669,1.282c1.058.729,2.253,1.257,3.32,1.973,1.914,1.285,2.471,2.794,1.867,4.719A4.667,4.667,0,0,1,644.973,1071.091Z" transform="translate(-48.499 -107.939)" fill="#ff440e"/>
    <path id="Path_138" data-name="Path 138" d="M677.615,1058.506v3.2a8.944,8.944,0,0,1,2.621.056,7.612,7.612,0,0,1,1.952,1.454,7.116,7.116,0,0,1-1.881,1.521,8.782,8.782,0,0,1-2.663.059v3.214a10.308,10.308,0,0,1,2.87.066c.654.2,1.125,1,1.677,1.531-.53.49-.993,1.258-1.606,1.406a10.917,10.917,0,0,1-3.115.061,2.939,2.939,0,0,1-3.091-3c-.117-3.188-.119-6.387-.011-9.575.066-1.96,1.256-2.978,3.213-3.079.858-.044,1.719,0,2.578-.017,1.117-.016,2.039.342,2,1.6s-1.007,1.535-2.1,1.5C679.271,1058.488,678.488,1058.506,677.615,1058.506Z" transform="translate(-69.949 -107.919)" fill="#ff440e"/>
    <path id="Path_139" data-name="Path 139" d="M602.616,1041.379a8.943,8.943,0,0,1,.686,2.645c-.05.7-.667,1.362-1.033,2.04-.622-.363-1.56-.581-1.807-1.117a26.208,26.208,0,0,1-1.477-4.517,1.522,1.522,0,0,1,1.57-2.117,45.206,45.206,0,0,1,5.68.056c.566.054,1.056.908,1.582,1.4-.536.538-1,1.4-1.626,1.543A16.374,16.374,0,0,1,602.616,1041.379Z" transform="translate(-22.378 -97.099)" fill="#ff440e"/>
    <path id="Path_140" data-name="Path 140" d="M613.039,1074.96c-.416.435-.786,1.142-1.294,1.261a1.858,1.858,0,0,1-1.659-.6,34.575,34.575,0,0,1-1.743-5.36,1.781,1.781,0,0,1,.96-1.482,2.019,2.019,0,0,1,1.808.617C611.864,1071.112,612.366,1072.94,613.039,1074.96Z" transform="translate(-28.329 -116.344)" fill="#ff440e"/>
    <path id="Path_141" data-name="Path 141" d="M635.041,1041.408c-1.186-.13-2.919.421-2.942-1.515-.024-2.053,1.77-1.593,3.025-1.6s3.094-.421,3.056,1.583S636.3,1041.273,635.041,1041.408Z" transform="translate(-43.327 -97.101)" fill="#ff440e"/>
  </g>
</svg>
