<svg xmlns="http://www.w3.org/2000/svg" width="157" height="156" viewBox="0 0 157 156">
  <g id="Group_316" data-name="Group 316" transform="translate(-1429 -3996)">
    <ellipse id="Ellipse_64" data-name="Ellipse 64" cx="78.5" cy="78" rx="78.5" ry="78" transform="translate(1429 3996)" fill="#fff"/>
    <g id="Group_301" data-name="Group 301" transform="translate(1464.863 4028.5)">
      <path id="Path_218" data-name="Path 218" d="M4067.447,1981.326c-1.347-.124-2.627-.185-3.888-.368a51.554,51.554,0,0,1-11.542-2.816,20.351,20.351,0,0,1-7.8-4.763,6.161,6.161,0,0,1-1.744-4.356q0-27.351,0-54.7c0-2.333,1.285-3.941,3-5.287,3.463-2.711,7.523-4.07,11.719-5.085a52.067,52.067,0,0,1,12.4-1.59c3.067.008,6.151-.058,9.2.222a45.821,45.821,0,0,1,16.177,4.2c2.4,1.176,4.733,2.53,6.123,4.945a5.422,5.422,0,0,1,.745,2.556c.047,12.508.025,25.017.049,37.525,0,.759-.206.941-.968,1.03a20.245,20.245,0,0,0-16,10.332,1.393,1.393,0,0,1-1.64.807,13.21,13.21,0,0,0-6.434,1.026,15.124,15.124,0,0,0-9.486,12.511,11.267,11.267,0,0,0-.023,1.848C4067.358,1979.969,4067.406,1980.577,4067.447,1981.326Zm4.69-61.791c1.667-.082,3.334-.172,5-.242a41.938,41.938,0,0,0,9.238-1.45,13.763,13.763,0,0,0,6.047-2.844c1.433-1.331,1.421-2.727.028-4.083a5.423,5.423,0,0,0-1.538-1.143,32.177,32.177,0,0,0-4.889-1.865,52.475,52.475,0,0,0-16.7-1.458c-2.88.222-5.766.469-8.615.922a20.628,20.628,0,0,0-7.885,2.746c-2.471,1.556-2.645,3.86-.193,5.4a19.866,19.866,0,0,0,4.762,2.142A50.672,50.672,0,0,0,4072.137,1919.535Zm4.3,32.646a21.869,21.869,0,0,0,2.28-2.088,8.829,8.829,0,0,0,1.827-6.726,7.721,7.721,0,0,0-2.408-5.117,8.468,8.468,0,0,0-10.111-.753c-2.865,1.893-3.849,4.759-3.654,8.061a7.6,7.6,0,0,0,6.584,7.223,2.115,2.115,0,0,1,1.1.442c.891.887,1.721,1.836,2.551,2.783a1.693,1.693,0,0,0,1.438.653c1.526-.046,3.054-.012,4.58-.019.236,0,.473-.051.917-.1Zm-13.877-11.137c0-1.11-.076-2.072.02-3.016.1-1.012-.273-1.442-1.261-1.48-.43-.016-.853-.19-1.285-.234a9.775,9.775,0,0,0-6.134.942,4.756,4.756,0,0,0-2.253,5.173c.446,2.029,1.889,3.063,3.66,3.809a9.748,9.748,0,0,1,1.956.956,1.367,1.367,0,0,1,.5,1.155,1.4,1.4,0,0,1-1.042.713,4.982,4.982,0,0,1-1.983-.2c-.956-.308-1.86-.777-2.9-1.228,0,1.4-.022,2.77.025,4.134.006.19.33.469.557.535a12.154,12.154,0,0,0,7.834,0,4.588,4.588,0,0,0,3.172-3.94,4.4,4.4,0,0,0-2.336-4.631c-1.128-.663-2.366-1.137-3.5-1.8-.325-.19-.706-.838-.6-1.08a1.437,1.437,0,0,1,1.1-.748,26.149,26.149,0,0,1,3.348.5A7.382,7.382,0,0,1,4062.562,1941.043Zm20.162,11.491h10.4v-3.811c-1.49,0-2.9-.043-4.3.016-.823.035-1.119-.186-1.106-1.066.049-3.431,0-6.863.038-10.294.009-.793-.247-1.017-1-.974a28.578,28.578,0,0,1-3.078,0c-.738-.038-1.021.149-1.014.962.039,4.781.019,9.562.021,14.343C4082.676,1951.969,4082.7,1952.226,4082.723,1952.535Z" transform="translate(-4042.475 -1902.357)" fill="#158aca"/>
      <path id="Path_219" data-name="Path 219" d="M4212.278,2212.635c1.011-1.584,1.876-3.222,3-4.654a18.317,18.317,0,0,1,24.146-3.965,17.9,17.9,0,0,1,8.215,12.427,17.472,17.472,0,0,1,.005,6.008c-.08.458.054.672.575.739a7.475,7.475,0,0,1,6.418,7.056,7.668,7.668,0,0,1-5.233,7.621,3.349,3.349,0,0,1-1.028.15c-13.125.007-26.249.034-39.373-.013a12.921,12.921,0,0,1-12.66-13.938,12.961,12.961,0,0,1,12.41-11.755A24.689,24.689,0,0,1,4212.278,2212.635Zm32.874,12.471a17.03,17.03,0,0,0-.787-12.9,16.106,16.106,0,0,0-9.811-8.477,15.891,15.891,0,0,0-11.315.486,16.546,16.546,0,0,0-9.633,10.858c-.368-.118-.647-.2-.916-.3a10.239,10.239,0,0,0-4.937-.5,10.99,10.99,0,0,0-4.333,20.262,11.537,11.537,0,0,0,6.534,1.656q18.749-.044,37.5-.142a5.538,5.538,0,0,0,0-11.065C4246.725,2224.99,4246.006,2225.063,4245.151,2225.107Z" transform="translate(-4169.194 -2148.477)" fill="#158aca"/>
      <path id="Path_220" data-name="Path 220" d="M4111.441,1937.987a50.65,50.65,0,0,1-14.742-1.879,19.887,19.887,0,0,1-4.763-2.142c-2.45-1.536-2.277-3.84.195-5.4a20.629,20.629,0,0,1,7.885-2.746c2.849-.453,5.735-.7,8.615-.922a52.487,52.487,0,0,1,16.7,1.458,32.193,32.193,0,0,1,4.889,1.865,5.4,5.4,0,0,1,1.537,1.142c1.393,1.356,1.405,2.752-.027,4.083a13.766,13.766,0,0,1-6.047,2.844,41.957,41.957,0,0,1-9.238,1.45C4114.775,1937.814,4113.108,1937.905,4111.441,1937.987Z" transform="translate(-4081.78 -1920.808)" fill="#fff"/>
      <path id="Path_221" data-name="Path 221" d="M4178.713,2110.293l5.1,4.357c-.444.051-.681.1-.917.1-1.526.007-3.054-.027-4.579.019a1.7,1.7,0,0,1-1.438-.653c-.83-.947-1.66-1.9-2.551-2.784a2.121,2.121,0,0,0-1.1-.442,7.6,7.6,0,0,1-6.583-7.222c-.2-3.3.789-6.168,3.653-8.062a8.467,8.467,0,0,1,10.111.752,7.714,7.714,0,0,1,2.407,5.117,8.826,8.826,0,0,1-1.826,6.726A22.021,22.021,0,0,1,4178.713,2110.293Zm-.905-7.6a19.369,19.369,0,0,0-.985-2.925,2.392,2.392,0,0,0-3.694-.489c-1.509,1.423-1.633,5.12-.221,6.625a2.439,2.439,0,0,0,3.91-.323A15.367,15.367,0,0,0,4177.808,2102.7Z" transform="translate(-4144.75 -2060.469)" fill="#fff"/>
      <path id="Path_222" data-name="Path 222" d="M4104.912,2099.335a7.34,7.34,0,0,0-1.129-.432,26.191,26.191,0,0,0-3.348-.5,1.437,1.437,0,0,0-1.1.748c-.1.242.276.89.6,1.08,1.131.659,2.368,1.134,3.5,1.8a4.4,4.4,0,0,1,2.336,4.632,4.59,4.59,0,0,1-3.17,3.94,12.157,12.157,0,0,1-7.834,0c-.228-.066-.551-.345-.557-.535-.048-1.365-.026-2.732-.026-4.134,1.043.451,1.947.921,2.9,1.228a4.994,4.994,0,0,0,1.984.2,1.4,1.4,0,0,0,1.042-.712,1.366,1.366,0,0,0-.5-1.155,9.684,9.684,0,0,0-1.956-.956c-1.771-.746-3.214-1.78-3.659-3.81a4.757,4.757,0,0,1,2.252-5.173,9.777,9.777,0,0,1,6.134-.943c.432.044.855.218,1.285.234.989.038,1.364.468,1.262,1.48C4104.835,2097.263,4104.912,2098.225,4104.912,2099.335Z" transform="translate(-4084.826 -2060.648)" fill="#fff"/>
      <path id="Path_223" data-name="Path 223" d="M4270.587,2111.719c-.02-.309-.048-.566-.048-.822,0-4.781.017-9.562-.022-14.343-.006-.813.277-1,1.014-.962a28.659,28.659,0,0,0,3.079,0c.757-.044,1.013.18,1,.974-.043,3.431.012,6.863-.038,10.293-.013.88.284,1.1,1.107,1.066,1.4-.059,2.812-.016,4.3-.016v3.811Z" transform="translate(-4230.339 -2061.541)" fill="#fff"/>
      <path id="Path_224" data-name="Path 224" d="M4253.883,2233.545c.853-.044,1.574-.117,2.294-.113a5.532,5.532,0,1,1,0,11.064q-18.747.083-37.5.142a11.538,11.538,0,0,1-6.534-1.656,10.99,10.99,0,0,1,4.334-20.262,10.233,10.233,0,0,1,4.936.5c.269.1.547.178.916.3a16.545,16.545,0,0,1,9.632-10.859,15.9,15.9,0,0,1,11.317-.486,16.108,16.108,0,0,1,9.811,8.477A17.038,17.038,0,0,1,4253.883,2233.545Z" transform="translate(-4177.926 -2156.915)" fill="#fff"/>
      <path id="Path_225" data-name="Path 225" d="M4202.57,2123a15.329,15.329,0,0,1-.99,2.887,2.439,2.439,0,0,1-3.91.323c-1.411-1.505-1.287-5.2.222-6.625a2.391,2.391,0,0,1,3.693.489A19.267,19.267,0,0,1,4202.57,2123Z" transform="translate(-4169.513 -2080.777)" fill="#158aca"/>
    </g>
  </g>
</svg>
