<svg xmlns="http://www.w3.org/2000/svg" width="93.355" height="94.594" viewBox="0 0 93.355 94.594">
  <g id="Group_299" data-name="Group 299" transform="translate(601.157 -1687.898)">
    <path id="Path_120" data-name="Path 120" d="M-562.557,1773.925c-10.388,0-20.445-.188-30.491.064-7.1.177-8.146-2.368-8.107-8.116.132-19.533.049-39.068.052-58.6,0-5,1.617-6.623,6.566-6.629,1.079,0,2.158,0,3.486,0,0-2.4-.014-4.574,0-6.748.033-4.174,1.853-5.99,6.039-5.991q35.587-.009,71.174,0c4.184,0,6.022,1.816,6.024,6q.019,30.655,0,61.31c0,4.151-1.869,5.944-6.071,5.961-1.213,0-2.427,0-3.974,0,0,2.251.007,4.346,0,6.441-.017,4.559-1.764,6.3-6.32,6.308q-5.7.01-11.411.021a5.53,5.53,0,0,0-.706.147c0,2.01-.053,4.106.017,6.2.051,1.546-.508,2.213-2.128,2.2q-11.024-.075-22.048,0c-1.623.011-2.176-.661-2.122-2.205C-562.5,1778.241-562.557,1776.192-562.557,1773.925Zm25.228-15.216c8.069,0,15.591,0,23.112,0,3.152,0,3.866-.716,3.866-3.858q0-23.116,0-46.231v-2.09h-2.634c-12.831,0-25.671-.271-38.49.127-5.54.172-9.949-.84-13.09-5.614-.294-.446-.87-.991-1.325-1-3.9-.079-7.8-.045-11.771-.045,0,1.183,0,2.083,0,2.983-.009,2.9-.637,3.539-3.485,3.548-2.42.007-4.841,0-7.267,0-.045.539-.084.791-.084,1.043q-.005,23.986,0,47.972c0,2.313.914,3.154,3.387,3.16,6.577.017,13.154.006,19.731.006h3.732c-3.1-1.86-3.314-2.7-1.741-5.533,3.9-7.041,7.783-14.1,11.755-21.1.452-.8,1.415-1.778,2.163-1.8.73-.018,1.749.939,2.193,1.723,4.036,7.115,7.978,14.282,11.938,21.44C-533.926,1755.995-534.216,1756.962-537.329,1758.709Zm-20.727,5.5c-.047-2.905-.16-3.022-2.8-3.022q-11.792,0-23.583,0c-4.967,0-6.613-1.634-6.614-6.579q-.006-24.453-.007-48.906c0-.809-.074-1.617-.12-2.579-1.343,0-2.492,0-3.64,0-3,.011-3.741.751-3.741,3.777q0,30.349,0,60.7c0,3.145.7,3.848,3.868,3.85q15.078.007,30.156,0h1.857a31.938,31.938,0,0,1,.346-5.264C-561.833,1764.062-559.791,1764.419-558.056,1764.211Zm-22.1-60.372c0-.99,0-1.877,0-2.763.014-3.132.553-3.66,3.759-3.671a31.191,31.191,0,0,0,4.634-.038c5.209-.809,9.3.812,12.25,5.217a3.366,3.366,0,0,0,3.156,1.389c14.626-.045,29.252-.027,43.878-.032.677,0,1.353-.057,2.13-.093,0-3.173,0-6.13,0-9.086,0-3.835-.537-4.384-4.3-4.384q-34.793,0-69.586,0c-.644,0-1.421-.2-1.9.084-.864.513-2.165,1.29-2.208,2.021-.222,3.765-.1,7.549-.1,11.354Zm43.038,51.637-10.658-19.2a11.95,11.95,0,0,0-.37,4.37,3.076,3.076,0,0,0,.957,1.836c1.939,1.685,2.247,4.193.606,5.934a4.064,4.064,0,0,1-5.721.031,4.051,4.051,0,0,1,.64-5.946c.371-.3.914-.7.938-1.073.1-1.68.044-3.37.044-5.057l-.423-.067-10.671,19.228a9.16,9.16,0,0,1,6.474,8.685h11.624C-542.1,1758.35-542.006,1758.23-537.119,1755.476Zm-1.932,24.4v-12.852h-20.771v12.852Zm18.635-18.7c-6.082,0-11.923,0-17.765,0-2.444,0-2.768.388-2.479,3.14,6.01-.733,3.89,4.021,4.5,7.077,4.53,0,8.957.064,13.379-.036a2.344,2.344,0,0,0,2.354-2.563C-520.39,1766.355-520.416,1763.914-520.416,1761.176Zm-29.03-13.5c.644-.889,1.388-1.489,1.294-1.891-.128-.546-.9-.94-1.395-1.4-.42.474-1.136.926-1.173,1.429C-550.754,1746.281-550.073,1746.808-549.445,1747.672Z" transform="translate(0 0)" fill="#ff440e"/>
    <path id="Path_121" data-name="Path 121" d="M-497.827,1783.386c-1.995-7.823-9.125-14.754-16.11-15.738-.349,2.478-2.059,2.942-4.228,2.756a17.611,17.611,0,0,0-2.9,0c-2.018.16-3.427-.484-3.758-2.639-6.248.111-14.393,7.942-16.072,15.327.956.451,2.248.658,2.737,1.4.568.859.5,2.178.582,3.306.084,1.219.038,2.45,0,3.674a2.337,2.337,0,0,1-2.539,2.539c-1.8.037-3.612.042-5.416,0a2.4,2.4,0,0,1-2.57-2.722c-.01-1.677,0-3.354,0-5.03,0-1.81.9-2.826,2.719-2.75,1.25.052,1.741-.382,2.117-1.6a24.505,24.505,0,0,1,10.747-13.915,2.808,2.808,0,0,0,1.143-1.161c-3.506,0-7.013-.035-10.518.048-.405.009-.866.62-1.18,1.042a5.108,5.108,0,0,1-5.825,1.88,5.073,5.073,0,0,1-3.348-4.94,4.954,4.954,0,0,1,3.84-4.54,5.059,5.059,0,0,1,5.689,2.668,2.4,2.4,0,0,0,1.591,1.177c5.158.087,10.317.051,15.476.04a4.4,4.4,0,0,0,.779-.147c.031-.492.053-.936.089-1.38.164-2.034.9-2.772,2.9-2.82,1.547-.037,3.1-.028,4.643,0,2.248.035,2.95.728,3.112,3.009.027.384.058.767.1,1.355h7.33c2.579,0,5.161-.058,7.738.023,1.434.045,2.449-.065,3.15-1.683.855-1.975,3.223-2.728,5.486-2.211a4.923,4.923,0,0,1,3.734,4.42,4.88,4.88,0,0,1-3.027,4.918,4.664,4.664,0,0,1-5.729-1.447,3.028,3.028,0,0,0-3.022-1.446c-3.019.08-6.041.025-8.9.025,2.521,2.368,5.392,4.487,7.494,7.2,2.124,2.745,3.486,6.08,5.353,9.466.081,0,.657-.009,1.232,0a2.315,2.315,0,0,1,2.546,2.342,54.273,54.273,0,0,1,.006,5.8,2.32,2.32,0,0,1-2.512,2.385c-1.805.028-3.611.025-5.417,0a2.4,2.4,0,0,1-2.619-2.5c-.095-1.8-.067-3.611-.016-5.415C-501.138,1784.017-499.729,1783.422-497.827,1783.386Zm-47.77,7.92h5.407v-5.238H-545.6Zm46.958.135h5.4v-5.352h-5.4Zm-23.432-29.009v5.376h5.294v-5.376Zm-24.911.24a2.442,2.442,0,0,0-2.675,2.391,2.381,2.381,0,0,0,2.415,2.473,2.191,2.191,0,0,0,2.353-2.282A2.312,2.312,0,0,0-546.981,1762.672Zm55.7.006a2.446,2.446,0,0,0-2.731,2.315,2.364,2.364,0,0,0,2.339,2.54,2.2,2.2,0,0,0,2.425-2.209A2.328,2.328,0,0,0-491.279,1762.678Z" transform="translate(-29.981 -44.099)" fill="#ff440e"/>
    <path id="Path_122" data-name="Path 122" d="M-407.456,1706.315a3.52,3.52,0,0,1-3.508,3.563,3.549,3.549,0,0,1-3.542-3.541,3.468,3.468,0,0,1,3.522-3.531A3.428,3.428,0,0,1-407.456,1706.315Z" transform="translate(-114.428 -9.14)" fill="#ff440e"/>
    <path id="Path_123" data-name="Path 123" d="M-433.175,1709.88a3.517,3.517,0,0,1-3.5-3.569,3.423,3.423,0,0,1,3.532-3.5,3.485,3.485,0,0,1,3.523,3.536A3.56,3.56,0,0,1-433.175,1709.88Z" transform="translate(-100.837 -9.141)" fill="#ff440e"/>
    <path id="Path_124" data-name="Path 124" d="M-388.741,1709.879a3.606,3.606,0,0,1-3.658-3.453,3.539,3.539,0,0,1,3.462-3.617,3.452,3.452,0,0,1,3.628,3.42A3.543,3.543,0,0,1-388.741,1709.879Z" transform="translate(-127.98 -9.141)" fill="#ff440e"/>
  </g>
</svg>
