<svg xmlns="http://www.w3.org/2000/svg" width="88.938" height="94.594" viewBox="0 0 88.938 94.594">
  <g id="Group_300" data-name="Group 300" transform="translate(64.273 -1350.987)">
    <path id="Path_125" data-name="Path 125" d="M-51.974,1375.32c0-5.638-.01-10.952,0-16.265.014-5.57,2.5-8.063,8.03-8.065q24.139-.007,48.277,0c5.531,0,8.011,2.5,8.024,8.073.013,5.313,0,10.626,0,16.258,2.289,0,4.461-.01,6.633,0,3.835.022,5.643,1.747,5.649,5.568q.038,23.607,0,47.214c-.006,3.723-1.782,5.419-5.538,5.425q-13.292.022-26.585.005h-2.677c.557,2.778,1.034,5.375,1.647,7.94.073.305.876.58,1.359.616a21.35,21.35,0,0,1,3.6.1c.839.215,2.015.989,2.147,1.684.245,1.3-.909,1.676-2.121,1.668-3.544-.023-7.088-.006-10.633-.006q-10.527,0-21.054,0a4.594,4.594,0,0,1-1.887-.108,2.317,2.317,0,0,1-1.265-1.447c-.042-.527.6-1.141,1.015-1.651.14-.171.525-.174.8-.193,1.813-.122,4.427.46,5.255-.5,1.235-1.434,1.218-3.951,1.723-6.009.15-.61.265-1.228.45-2.094h-2.427q-13.505,0-27.01,0c-4.037,0-5.7-1.632-5.7-5.67q-.023-23.395,0-46.789c.005-4.11,1.712-5.74,5.873-5.751C-56.344,1375.316-54.3,1375.32-51.974,1375.32Zm64.339,3.426v2.492c0,7.158.013,14.316-.005,21.474-.014,5.427-2.534,7.946-7.929,7.948q-24.237.008-48.475,0c-5.389,0-7.912-2.526-7.925-7.951-.017-7.158,0-14.316-.005-21.474v-2.5c-2.088,0-3.913,0-5.738,0-3.063,0-3.144.07-3.146,3.032q-.008,17.965,0,35.931v2.157H21.251V1417.3q0-16.159,0-32.317a26.9,26.9,0,0,0-.086-4.452,2.476,2.476,0,0,0-1.584-1.7C17.278,1378.627,14.947,1378.746,12.364,1378.746Zm-60.8-11.383c-.042.756-.112,1.444-.113,2.132q-.01,16.574,0,33.147c0,3.621,1.02,4.6,4.722,4.6q24.012,0,48.022,0c3.777,0,4.735-.964,4.738-4.8q.011-16.361,0-32.722c0-.759-.065-1.518-.1-2.355Zm-12.429,56.108v2.876c0,3.768,0,3.769,3.66,3.769H15.707c6.07,0,6.071,0,5.481-6.151a2.221,2.221,0,0,0-.207-.494Zm12.341-59.7H8.938c0-1.683.012-3.295,0-4.906-.031-3.4-1.075-4.451-4.443-4.454q-15.613-.011-31.227,0c-6.019,0-12.038-.018-18.056.012-2.27.011-3.567,1.1-3.7,3.218C-48.619,1359.6-48.52,1361.58-48.52,1363.772Zm22.972,69.767c-.694,2.965-1.328,5.671-1.982,8.466H-12c-.52-2.636-.968-5.135-1.546-7.6a1.555,1.555,0,0,0-1.2-.826C-18.282,1433.51-21.818,1433.538-25.549,1433.538Z" fill="#ff440e"/>
    <path id="Path_126" data-name="Path 126" d="M5.162,1441.51q11.472,0,22.943,0c2.7,0,3.028.356,3.033,3.076.006,2.9-.042,5.807.017,8.709.035,1.714-.725,2.467-2.4,2.467q-23.58-.012-47.159,0c-1.674,0-2.447-.736-2.412-2.458.06-2.9.011-5.806.017-8.709.006-2.729.333-3.08,3.022-3.084Q-6.309,1441.5,5.162,1441.51Zm-22.48,10.671H27.575V1445.1H-17.318Z" transform="translate(-24.973 -52.024)" fill="#ff440e"/>
    <path id="Path_127" data-name="Path 127" d="M19.026,1403.192c0,1.062.041,2.124-.007,3.183a7.777,7.777,0,0,1-7.617,7.587,7.784,7.784,0,0,1-8.1-7.1,47.766,47.766,0,0,1,.011-7.631c.054-.691,1.113-1.3,1.711-1.953.538.7,1.464,1.365,1.54,2.114.213,2.1.048,4.238.085,6.36.051,2.894,1.886,4.9,4.459,4.935s4.452-1.969,4.507-4.843c.038-1.981.017-3.962.008-5.943-.006-1.294.18-2.6,1.79-2.581,1.492.014,1.663,1.249,1.638,2.471-.023,1.132,0,2.264,0,3.4Z" transform="translate(-38.752 -26.608)" fill="#ff440e"/>
    <path id="Path_128" data-name="Path 128" d="M52.826,1403.175c1.165-1.508,2.157-2.794,3.151-4.079.711-.918,1.553-1.589,2.685-.737,1.109.835.8,1.814.063,2.769-1.212,1.564-2.4,3.145-3.707,4.855,1.244,1.643,2.462,3.275,3.706,4.887.738.957,1.05,1.953-.057,2.771s-1.973.216-2.693-.737c-.978-1.294-1.983-2.566-3.127-4.042-1.132,1.442-2.173,2.745-3.188,4.068-.734.956-1.635,1.508-2.709.69s-.737-1.815-.02-2.785c1.208-1.634,3.243-3.3,3.272-4.976.027-1.567-2.086-3.185-3.293-4.753-.726-.943-1.13-1.923-.048-2.783,1.065-.849,1.974-.309,2.707.643C50.6,1400.307,51.642,1401.645,52.826,1403.175Z" transform="translate(-63.49 -26.961)" fill="#ff440e"/>
    <path id="Path_129" data-name="Path 129" d="M115.062,1529.487a12.36,12.36,0,0,1-2.683-1.616c-.248-.251.165-1.745.38-1.77a22.318,22.318,0,0,1,4.635-.054c.23.022.687,1.526.465,1.735A14.98,14.98,0,0,1,115.062,1529.487Z" transform="translate(-101.482 -100.557)" fill="#ff440e"/>
    <path id="Path_130" data-name="Path 130" d="M74.751,1524.7c.858.216,1.938.176,2.353.683s.136,1.547.162,2.355l-4.756,0c.026-.8-.213-1.779.162-2.355C72.981,1524.9,74.02,1524.907,74.751,1524.7Z" transform="translate(-78.584 -99.835)" fill="#ff440e"/>
    <path id="Path_131" data-name="Path 131" d="M95.282,1525.073a2.692,2.692,0,0,1,1.293.159c.481.282,1.067.916,1.053,1.38a2.533,2.533,0,0,1-.976,1.66c-.377.292-1.078.209-1.636.215-1.344.013-2.971.2-2.95-1.775C92.085,1524.856,93.654,1525.094,95.282,1525.073Z" transform="translate(-89.852 -100.045)" fill="#ff440e"/>
    <path id="Path_132" data-name="Path 132" d="M-6.216,1369.528c-4.11,0-8.221-.009-12.33.005-1.241,0-2.391-.186-2.382-1.726s1.173-1.7,2.405-1.7q12.437.016,24.873,0c1.226,0,2.449.141,2.5,1.622.06,1.633-1.209,1.816-2.527,1.809C2.145,1369.515-2.035,1369.528-6.216,1369.528Z" transform="translate(-24.911 -8.688)" fill="#ff440e"/>
    <path id="Path_133" data-name="Path 133" d="M64.565,1369.4c-1.173-.209-3.366.689-3.33-1.764.034-2.268,2.1-1.509,3.465-1.633a4.309,4.309,0,0,1,2.1.048,9.667,9.667,0,0,1,1.985,1.713,8.693,8.693,0,0,1-1.9,1.584A6.6,6.6,0,0,1,64.565,1369.4Z" transform="translate(-72.132 -8.569)" fill="#ff440e"/>
    <path id="Path_134" data-name="Path 134" d="M87.5,1369.366c-.637,0-1.389.215-1.884-.05a10.828,10.828,0,0,1-1.97-1.732c.629-.541,1.19-1.4,1.9-1.552a8.9,8.9,0,0,1,3.787,0c.737.175,1.294,1.11,1.932,1.7a9.608,9.608,0,0,1-1.88,1.578A4.729,4.729,0,0,1,87.5,1369.366Z" transform="translate(-85.015 -8.531)" fill="#ff440e"/>
  </g>
</svg>
