<svg xmlns="http://www.w3.org/2000/svg" xmlns:xlink="http://www.w3.org/1999/xlink" width="867" height="747" viewBox="0 0 867 747">
  <defs>
    <clipPath id="clip-path">
      <rect id="Rectangle_133" data-name="Rectangle 133" width="867" height="747" transform="translate(5975 -1114)" fill="#fff"/>
    </clipPath>
  </defs>
  <g id="Mask_Group_10" data-name="Mask Group 10" transform="translate(-5975 1114)" clip-path="url(#clip-path)">
    <g id="Group_295" data-name="Group 295">
      <g id="Group_294" data-name="Group 294" transform="translate(7567.896 -1947.535)">
        <path id="Path_90" data-name="Path 90" d="M-1127.9,947.889c1.849-.772,3.517-1.89,5.3-2.795a13.7,13.7,0,0,1,2.9-.188c4.86,0,9.721.008,14.581,0a2.327,2.327,0,0,1,1.254.167c.366.336.818.2,1.233.2,2.852.012,5.715.169,8.552-.032a5.483,5.483,0,0,1,4.774,8.434,1.383,1.383,0,0,0-.02,1.748,5.366,5.366,0,0,1-1.276,7.147c-.361.3-.468.487-.288.948a5.392,5.392,0,0,1-1.65,6.611c-.372.259-.388.471-.24.865,1.856,4.925-2.08,8.014-5.671,7.887-4.76-.168-9.53,0-14.3-.046a39.2,39.2,0,0,1-15.719-3.045.709.709,0,0,1-.175-.542c.484-4.718.142-9.448.214-14.173.058-3.83,0-7.661.023-11.492C-1128.407,948.986-1128.55,948.308-1127.9,947.889Z" transform="translate(-58.268 -85.189)" fill="#fecc96"/>
        <path id="Path_91" data-name="Path 91" d="M-1186.169,948.92c-.023.778-.067,1.556-.068,2.334q-.008,11.007.006,22.013a9.433,9.433,0,0,1-.509,3.553c-1.6,2.734-4.134,3.3-7.031,3.018a2.108,2.108,0,0,1-.387-1.661c-.015-2.306.011-4.613-.013-6.919-.014-1.386-.428-2.031-1.25-2.044-.841-.014-1.447.756-1.488,2.045-.072,2.305-.009,4.612-.031,6.918a2.146,2.146,0,0,1-.382,1.663c-1.757.008-3.513.032-5.269.021-1.48-.01-2.183-.679-2.184-2.135q-.017-14.7,0-29.4c0-1.423.655-2.065,2.095-2.069q7.2-.024,14.406,0C-1186.672,946.263-1186.338,946.723-1186.169,948.92Z" transform="translate(0 -86.22)" fill="#00a5ec"/>
        <path id="Path_92" data-name="Path 92" d="M-1084.152,890.126a2.12,2.12,0,0,1-1.127.236q-8.365-.007-16.731-.005c-.3,0-.632.066-.875-.207a26.614,26.614,0,0,0,7.057-6.247,13.75,13.75,0,0,0,2.8-7.2,3.849,3.849,0,0,1,4.575-3.537c4.434.776,6.975,4.129,6.626,8.706A19.542,19.542,0,0,1-1084.152,890.126Z" transform="translate(-77.987 -30.244)" fill="#febf7d"/>
        <path id="Path_93" data-name="Path 93" d="M-1172.983,1053.207q.013-4.2.026-8.409a4.53,4.53,0,0,1,.131-1.268,1.709,1.709,0,0,1,1.861-1.419,1.628,1.628,0,0,1,1.517,1.866c-.007,2.8,0,5.606,0,8.41,0,.272.01.545.016.817Z" transform="translate(-24.338 -159.585)" fill="#45c4fe"/>
        <path id="Path_94" data-name="Path 94" d="M-992.645,889.237c.663,0,1.329-.041,1.989.01a1.624,1.624,0,0,1,1.588,1.591,1.563,1.563,0,0,1-1.317,1.808,14.123,14.123,0,0,1-4.654,0,1.543,1.543,0,0,1-1.287-1.82,1.584,1.584,0,0,1,1.576-1.582c.7-.057,1.4-.011,2.105-.011Z" transform="translate(-159.535 -42.574)" fill="#01ceb5"/>
        <path id="Path_95" data-name="Path 95" d="M-1015.068,835.526a4.555,4.555,0,0,1-.285.792c-.606,1.084-1.207,2.174-1.872,3.222a1.693,1.693,0,0,1-2.324.654,1.722,1.722,0,0,1-.781-2.3,37.292,37.292,0,0,1,2.11-3.619,1.586,1.586,0,0,1,1.979-.56A1.809,1.809,0,0,1-1015.068,835.526Z" transform="translate(-141.03)" fill="#01ceb5"/>
        <path id="Path_96" data-name="Path 96" d="M-1104.867,889.239c.663,0,1.329-.042,1.987.01a1.576,1.576,0,0,1,1.582,1.571,1.573,1.573,0,0,1-1.382,1.862,16.04,16.04,0,0,1-4.428.006,1.592,1.592,0,0,1-1.431-1.835,1.63,1.63,0,0,1,1.684-1.614c.661-.033,1.325-.006,1.988-.006Z" transform="translate(-73.654 -42.579)" fill="#01ceb5"/>
        <path id="Path_97" data-name="Path 97" d="M-1074.671,833.688a1.747,1.747,0,0,1,1.529.923c.594,1.009,1.2,2.015,1.751,3.045a1.8,1.8,0,0,1-.639,2.622,1.762,1.762,0,0,1-2.452-.885c-.606-1-1.221-2-1.744-3.048A1.751,1.751,0,0,1-1074.671,833.688Z" transform="translate(-98.212 -0.076)" fill="#01ceb4"/>
      </g>
      <g id="Group_293" data-name="Group 293" transform="translate(6671.989 -1096.871)">
        <path id="Path_2" data-name="Path 2" d="M-262.3,318.915c-94.612-1.895-218.689-8.138-282.993-8.275s-175.922,2.763-160.149,23.075,111.62,8.7,138.31,26.116,32.151,46.431,167.432,25.537,197.154-13.89,273.589,7.274S32.829,380.725,51.029,377.824s137.829-19.9,103.128-43.528C107.257,302.362-167.375,320.817-262.3,318.915Z" transform="translate(10.377 330.224)" fill="#e9f6f8"/>
        <path id="Path_3" data-name="Path 3" d="M-528.3,320.438c39.747-.266,111.671,0,106.416,5.585s-68.323,12.81-102.642,9.853-109.86-5.255-96.393-9.853S-558.523,320.641-528.3,320.438Z" transform="translate(122.987 343.207)" fill="#a5e0e8"/>
        <path id="Path_4" data-name="Path 4" d="M-413.919,319.82c42.011-.243,131.988-1.022,125.279,7.729s-59.8,6.418-83.422,7-91.588,11.958-128.341,0S-468.312,320.13-413.919,319.82Z" transform="translate(272.046 342.299)" fill="#a5e0e8"/>
        <rect id="Rectangle_1" data-name="Rectangle 1" width="271.899" height="149.929" transform="translate(-49.541 461.723)" fill="#e9f6f8"/>
        <rect id="Rectangle_2" data-name="Rectangle 2" width="271.899" height="80.926" transform="translate(-49.541 367.651)" fill="#e9f6f8"/>
        <rect id="Rectangle_3" data-name="Rectangle 3" width="271.899" height="80.927" transform="translate(-49.541 276.47)" fill="#e9f6f8"/>
        <g id="Group_1" data-name="Group 1" transform="translate(176.851 383.62)">
          <rect id="Rectangle_4" data-name="Rectangle 4" width="10.508" height="64.958" transform="translate(30.248 0)" fill="#96e1e2"/>
          <rect id="Rectangle_5" data-name="Rectangle 5" width="10.508" height="64.958" transform="translate(18.004 0)" fill="#96e1e2"/>
          <rect id="Rectangle_6" data-name="Rectangle 6" width="10.508" height="64.958" transform="translate(0 0)" fill="#96e1e2"/>
        </g>
        <g id="Group_2" data-name="Group 2" transform="translate(-45.681 383.62)">
          <rect id="Rectangle_7" data-name="Rectangle 7" width="10.508" height="64.958" transform="translate(0 0)" fill="#96e1e2"/>
          <rect id="Rectangle_8" data-name="Rectangle 8" width="10.508" height="64.958" transform="translate(11.985 0)" fill="#96e1e2"/>
        </g>
        <g id="Group_3" data-name="Group 3" transform="translate(-45.681 292.439)">
          <rect id="Rectangle_9" data-name="Rectangle 9" width="10.508" height="64.958" fill="#a5e0e8"/>
          <rect id="Rectangle_10" data-name="Rectangle 10" width="10.508" height="64.958" transform="translate(11.985)" fill="#a5e0e8"/>
          <rect id="Rectangle_11" data-name="Rectangle 11" width="10.508" height="64.958" transform="translate(24.189)" fill="#a5e0e8"/>
          <rect id="Rectangle_12" data-name="Rectangle 12" width="10.508" height="64.958" transform="translate(36.999)" fill="#a5e0e8"/>
        </g>
        <rect id="Rectangle_13" data-name="Rectangle 13" width="271.899" height="80.926" transform="translate(-49.541 185.289)" fill="#e9f6f8"/>
        <rect id="Rectangle_14" data-name="Rectangle 14" width="244.24" height="463.507" transform="translate(-446.428 142.918)" fill="#e9f6f8"/>
        <g id="Group_8" data-name="Group 8" transform="translate(-662.425 250.336)">
          <path id="Path_5" data-name="Path 5" d="M-506.769,424.371s14.875-103.314,4.569-181.443-48.3-105.692-74.176-98.549c-40.148,11.083-33.25,119.281-5.183,177.465,0,0-68.435-72.234-104.637-23.533-29.652,39.887,54.622,115.284,120.042,130.266Z" transform="translate(692.317 -143.293)" fill="#008b93"/>
          <g id="Group_5" data-name="Group 5" transform="translate(9.181 29.253)">
            <g id="Group_4" data-name="Group 4">
              <path id="Path_6" data-name="Path 6" d="M-572.132,201a.87.87,0,0,0-1.08-.607c-14.422,4.054-28.623,21.129-32.783,26.473q-2.412-14.429-5.2-29.32a.61.61,0,0,0-.014-.072q-.354-1.887-.714-3.778c.985-2.133,9.106-18.921,24.431-27.386a.872.872,0,0,0,.343-1.188.868.868,0,0,0-1.188-.343c-13.3,7.344-21.311,20.714-24.13,26.093-2.189-11.339-4.546-22.816-7.1-34.356a.872.872,0,0,0-1.043-.665.875.875,0,0,0-.665,1.043c2.877,13.024,5.512,25.967,7.93,38.723-12.429-8.392-34.4-10.716-35.374-10.814a.865.865,0,0,0-.959.782.875.875,0,0,0,.781.959c.243.023,24.366,2.574,36.023,11.568,2.077,11.055,3.986,21.958,5.743,32.639-18.434-8.527-41.441-8.63-41.677-8.63a.875.875,0,0,0-.875.875.875.875,0,0,0,.875.875c.238,0,23.785.112,42.023,8.982,1.818,11.141,3.47,22.028,4.968,32.585-5.519-1.855-25.834-8.187-39.929-6a.875.875,0,0,0-.73,1,.876.876,0,0,0,1,.73c14.4-2.25,36.317,4.968,39.939,6.212,1.8,12.775,3.377,25.05,4.759,36.676-4.569-1.881-19.468-7.419-34.4-6.369a.874.874,0,0,0-.81.934.87.87,0,0,0,.933.812c15.85-1.1,31.694,5.4,34.51,6.621,1.384,11.752,2.565,22.821,3.57,33.054a54.76,54.76,0,0,0-28.928-8.793h-.019a.875.875,0,0,0-.875.856.876.876,0,0,0,.857.894,53.006,53.006,0,0,1,29.192,9.346c4.117,42.475,5.186,69.9,5.207,70.477a.879.879,0,0,0,.875.845h.03a.876.876,0,0,0,.843-.908c-.021-.579-1.092-28.112-5.23-70.734a.871.871,0,0,0-.037-.394c-1.053-10.8-2.3-22.574-3.776-35.115a.859.859,0,0,0-.054-.441c-1.431-12.123-3.076-24.966-4.964-38.349a.874.874,0,0,0-.051-.357c-1.561-11.045-3.288-22.459-5.2-34.146a.878.878,0,0,0-.054-.322c-.15-.913-.3-1.825-.448-2.74,1.9-2.52,17.594-22.863,32.865-27.152A.874.874,0,0,0-572.132,201Z" transform="translate(739.999 -155.828)" fill="#00bcc5"/>
              <path id="Path_7" data-name="Path 7" d="M-567.973,318.025c-.343-3.358-2.513-28.254,7.136-39.089a.87.87,0,0,0-.07-1.235.873.873,0,0,0-1.235.072c-9.2,10.331-8.3,31.745-7.739,38.662-8.357-6.961-17.946-15.157-28.1-24.221-.189-3.494-1.188-29.187,8.73-45.089a.876.876,0,0,0-.28-1.2.872.872,0,0,0-1.206.28c-9.293,14.9-9.318,37.341-9.071,44.375-8.611-7.725-17.572-16.037-26.49-24.721.192-3.33,1.837-25.976,11.514-40.1a.876.876,0,0,0-.226-1.216.879.879,0,0,0-1.218.226c-9.1,13.288-11.255,33.19-11.722,39.49-6.6-6.462-13.139-13.118-19.479-19.869a92.262,92.262,0,0,1,2.957-36.3.874.874,0,0,0-.607-1.078.871.871,0,0,0-1.078.6,96.737,96.737,0,0,0-3.29,34.623c-6.728-7.239-13.2-14.581-19.194-21.913a.872.872,0,0,0-1.23-.121.872.872,0,0,0-.124,1.23c4.11,5.024,8.455,10.051,12.938,15.05-5.323.348-21.113,1.909-30.94,8.546a.872.872,0,0,0-.236,1.213.869.869,0,0,0,.726.385.868.868,0,0,0,.49-.149c10.448-7.055,28.655-8.189,31.449-8.324,2.21,2.441,4.462,4.868,6.733,7.288a.452.452,0,0,0,.056.058c4.985,5.311,10.093,10.558,15.258,15.7-5.654.714-23.257,3.729-33.066,14.5a.878.878,0,0,0,.056,1.239.88.88,0,0,0,.59.226.871.871,0,0,0,.646-.285c10.324-11.339,30.511-13.808,33.367-14.1q2.013,1.988,4.026,3.956a.835.835,0,0,0,.243.236c7.2,7.013,14.424,13.785,21.479,20.2-5.454.926-22.375,4.355-33.839,12.793a.873.873,0,0,0-.187,1.223.875.875,0,0,0,.707.357.857.857,0,0,0,.516-.173c12.259-9.022,31.677-12.268,34.459-12.7q2.548,2.31,5.057,4.551a.83.83,0,0,0,.142.128c6.387,5.7,12.548,11.064,18.331,16-5.736.7-22.506,3.356-31.7,11.281a.881.881,0,0,0-.091,1.237.878.878,0,0,0,.663.3.885.885,0,0,0,.572-.21c9.853-8.495,29.68-10.777,32.387-11.05,3.4,2.889,6.674,5.636,9.753,8.191a.718.718,0,0,0,.1.084c16.536,13.722,27.81,22.275,28.107,22.5a.875.875,0,0,0,.527.177.871.871,0,0,0,.7-.35.872.872,0,0,0-.17-1.223C-540.44,340.069-551.6,331.6-567.973,318.025Z" transform="translate(688.382 -87.613)" fill="#00bcc5"/>
            </g>
          </g>
          <path id="Path_8" data-name="Path 8" d="M-624.81,395.52s-12.219-84.881-3.753-149.071,39.68-86.834,60.942-80.967c32.987,9.106,21.353,108.962-1.708,156.765,0,0,62.193-70.307,91.935-30.3,24.361,32.772-44.877,94.717-98.624,107.027Z" transform="translate(773.359 -114.888)" fill="#00e1f4"/>
          <g id="Group_7" data-name="Group 7" transform="translate(148.141 70.713)">
            <g id="Group_6" data-name="Group 6">
              <path id="Path_9" data-name="Path 9" d="M-582.376,357.4a.586.586,0,0,0,.565-.6.622.622,0,0,0-.6-.565,87.766,87.766,0,0,0-21.286,3.482c.539-8.2,1.251-17.934,2.168-28.781,1.93-.889,12.81-5.683,23.859-6.352a.579.579,0,0,0,.546-.616.581.581,0,0,0-.616-.551c-10.387.632-20.609,4.831-23.677,6.189.864-10.1,1.907-21.141,3.158-32.767,2.53-.506,16.2-3.1,28.219-2.6a.623.623,0,0,0,.609-.56.584.584,0,0,0-.56-.607c-11.64-.485-24.781,1.9-28.135,2.553,1.017-9.391,2.172-19.153,3.477-29.115,2.807-.553,19.71-3.76,31.736-3.244a.582.582,0,0,0,.607-.56.581.581,0,0,0-.558-.607c-11.671-.488-27.829,2.46-31.621,3.19,1.16-8.782,2.436-17.706,3.843-26.66a107.126,107.126,0,0,1,32.459-6.495.581.581,0,0,0,.565-.6.621.621,0,0,0-.6-.565,108.838,108.838,0,0,0-32.214,6.336c1.657-10.457,3.491-20.942,5.517-31.264a111.755,111.755,0,0,1,28.077-5.974.583.583,0,0,0,.534-.628.579.579,0,0,0-.628-.534,114.27,114.27,0,0,0-27.722,5.8c2.054-10.369,4.3-20.564,6.768-30.387a.584.584,0,0,0-.425-.707.583.583,0,0,0-.707.422c-2.205,8.793-4.238,17.885-6.114,27.134-2.625-3.421-11.736-14.581-22.513-19.652a.588.588,0,0,0-.777.278.584.584,0,0,0,.28.777c11.675,5.5,21.432,18.4,22.7,20.123-2.1,10.457-4,21.1-5.713,31.736-3.153-3.183-15.526-14.758-32.175-18.637a.586.586,0,0,0-.7.436.584.584,0,0,0,.437.7c17.771,4.14,30.618,17.253,32.207,18.933-.114.707-.224,1.412-.336,2.119a.389.389,0,0,0-.007.051c-1.253,7.958-2.406,15.9-3.463,23.731-3.414-1.634-19.267-8.954-32.979-10.845a.6.6,0,0,0-.656.5.579.579,0,0,0,.5.658c14.074,1.939,30.494,9.7,32.973,10.9q-.21,1.579-.416,3.148l0,.016h0c-1.19,9.057-2.254,17.951-3.2,26.55a82.654,82.654,0,0,0-29.225-8.464.588.588,0,0,0-.628.534.583.583,0,0,0,.534.628,81.235,81.235,0,0,1,29.18,8.546c-.089.822-.177,1.636-.266,2.453,0,.033-.023.058-.016.091l0,.012c-1.137,10.551-2.1,20.616-2.917,29.946a118.382,118.382,0,0,0-25.848-7.563.587.587,0,0,0-.667.485.584.584,0,0,0,.485.667,117.061,117.061,0,0,1,25.922,7.636q-.115,1.358-.231,2.693c-.014.033,0,.068-.009.1-.987,11.64-1.736,22.023-2.294,30.606a69.668,69.668,0,0,0-19.313-7.816.584.584,0,0,0-.7.439.587.587,0,0,0,.439.7,67.81,67.81,0,0,1,19.491,8c-.961,15.027-1.316,24.235-1.328,24.567a.584.584,0,0,0,.562.6h.021a.586.586,0,0,0,.583-.562c.012-.341.39-10.133,1.421-26.03A86.1,86.1,0,0,1-582.376,357.4Z" transform="translate(628.837 -173.594)" fill="#e9f6f8"/>
              <path id="Path_10" data-name="Path 10" d="M-504.586,249.817c-7.288-4.861-19.094-7.918-22.564-8.747,4.266-4.572,8.348-9.052,12.116-13.339a.586.586,0,0,0-.054-.824.584.584,0,0,0-.824.054c-3.169,3.6-6.558,7.344-10.089,11.16-.735-3.363-3.44-13.433-10.583-19.941a.583.583,0,0,0-.824.037.583.583,0,0,0,.037.824c7.542,6.873,10.033,18.275,10.394,20.133C-533,245.654-539.423,252.347-545.962,259c-.975-4.252-4.978-19.836-12.749-26.945a.585.585,0,0,0-.824.035.586.586,0,0,0,.037.826c7.986,7.3,12.014,24.592,12.56,27.075-4.99,5.069-10.03,10.107-14.987,15-1.505-3.368-7.878-16.322-19.057-21.659a.579.579,0,0,0-.777.275.581.581,0,0,0,.275.777c11.22,5.361,17.647,19.155,18.667,21.484-5.682,5.6-11.232,11-16.469,16.039-1.538-2.383-7.414-10.775-15.974-14.4a.583.583,0,0,0-.763.31.583.583,0,0,0,.31.765c8.424,3.563,14.331,12.224,15.568,14.149-18.789,18.067-33.19,31.255-33.486,31.526a.584.584,0,0,0-.037.826.576.576,0,0,0,.429.189.584.584,0,0,0,.394-.154c.264-.243,11.738-10.747,27.533-25.822,1.965.39,14.793,3.157,20.511,9.881a.582.582,0,0,0,.443.205.587.587,0,0,0,.38-.138.586.586,0,0,0,.065-.824c-5.505-6.476-16.819-9.339-20.373-10.1,5.739-5.484,12.021-11.547,18.523-17.92,2.114.941,14.436,6.569,22.011,13.64a.577.577,0,0,0,.4.156.578.578,0,0,0,.427-.184.583.583,0,0,0-.028-.824c-7.291-6.805-18.851-12.28-21.913-13.666,5.311-5.213,10.758-10.623,16.172-16.1,2.28.555,17.671,4.457,26.193,10.595a.592.592,0,0,0,.341.11.581.581,0,0,0,.474-.243.583.583,0,0,0-.133-.815c-8.182-5.892-22.07-9.65-25.92-10.614,6.74-6.821,13.4-13.713,19.673-20.415,2.1.488,15.222,3.659,22.835,8.735a.587.587,0,0,0,.324.1.588.588,0,0,0,.485-.259A.585.585,0,0,0-504.586,249.817Z" transform="translate(648.865 -114.334)" fill="#e9f6f8"/>
            </g>
          </g>
          <path id="Path_11" data-name="Path 11" d="M-463.091,275.126c.023,1.61,0,3.43-.07,5.437-.093,2.03-.257,4.271-.513,6.721a226.152,226.152,0,0,1-6.371,34.1c-7.654,29.778-26.837,58.459-65.18,67.56h-.07a115.994,115.994,0,0,1-26.977,2.987c-56.755,0-82.939-34.445-92.227-70.547s-7.281-54.141-5.274-56.382c1.984-2.217,81.492-2.847,97.5-2.847s95.517.63,97.524,2.847C-463.954,265.862-463.184,269.222-463.091,275.126Z" transform="translate(733.463 15.226)" fill="#a5e0e8"/>
          <path id="Path_12" data-name="Path 12" d="M-463.161,280.564c-.093,2.03-.257,4.271-.513,6.721-47.42-5.484-137.22,2.964-156.263,4.877,1.214,32.812,12.159,103.662,84.643,96.778a115.994,115.994,0,0,1-26.977,2.987c-56.755,0-82.939-34.445-92.227-70.547s-7.281-54.141-5.274-56.382c1.984-2.217,81.492-2.847,97.5-2.847s95.517.63,97.524,2.847c.793.863,1.564,4.224,1.657,10.128-11.809-.887-49.941-2.054-156.893,4.737-.047,1.564-.07,3.594-.07,5.974C-602.178,284.228-519.4,277.273-463.161,280.564Z" transform="translate(733.463 15.226)" fill="#6ecbe0"/>
        </g>
        <path id="Path_13" data-name="Path 13" d="M-479.847,129.337l-11.295-6.7a.63.63,0,0,0-.583-.03l-11.918,5.51a.627.627,0,0,1-.875-.707l2.877-12.81a.626.626,0,0,0-.154-.565l-8.922-9.631a.629.629,0,0,1,.4-1.052l13.071-1.223a.628.628,0,0,0,.49-.317l6.4-11.463a.628.628,0,0,1,1.125.058l5.2,12.053a.635.635,0,0,0,.455.369l12.88,2.546a.629.629,0,0,1,.292,1.087l-9.857,8.674a.621.621,0,0,0-.208.544l1.557,13.038A.628.628,0,0,1-479.847,129.337Z" transform="translate(271.865 36.011)" fill="#ff960f"/>
        <path id="Path_14" data-name="Path 14" d="M-483.331,107.7-487.816,103a.316.316,0,0,0-.275-.093l-6.422,1.027a.31.31,0,0,1-.322-.455l3.092-5.722a.309.309,0,0,0,0-.289L-494.7,91.67a.309.309,0,0,1,.331-.446l6.4,1.171a.309.309,0,0,0,.275-.086l4.595-4.6a.311.311,0,0,1,.527.177l.861,6.448a.315.315,0,0,0,.168.236l5.8,2.945a.311.311,0,0,1-.007.558l-5.865,2.812a.309.309,0,0,0-.173.231l-1.011,6.427A.311.311,0,0,1-483.331,107.7Z" transform="translate(293.216 32.786)" fill="#004f82"/>
        <path id="Path_15" data-name="Path 15" d="M-477.935,72.576v114.4a9.551,9.551,0,0,1-9.568,9.568h-25.111l2.287,24.224a1.864,1.864,0,0,1-2.684,1.844l-51.738-26.067h-102.4a9.566,9.566,0,0,1-9.568-9.568V72.576a9.561,9.561,0,0,1,9.568-9.545H-487.5A9.546,9.546,0,0,1-477.935,72.576Z" transform="translate(50.695 0)" fill="#9fdfe6"/>
        <g id="Group_9" data-name="Group 9" transform="translate(-559.765 246.168)">
          <path id="Path_16" data-name="Path 16" d="M-534.041,206.451c-1.587,3.454-9.872,5.157-18.483,5.6a79.92,79.92,0,0,1-14.749-.513c-3.36-.467-5.764-1.19-6.394-2.077-1.05-1.494-2.777-7.188-4.481-13.535-10.852,1.8-13.909-5.2-13.652-10.712.117-2.754,1.073-5.134,2.31-5.881,2.217-1.33,5.251-.14,7.4,1.05v-.047c.117-.793,1.33-10.245,1.68-13.139.373-3.01-4.761-10.011-1.377-12.368,3.384-2.38,40.956-.7,40.956-.7C-538.148,166.615-531.287,200.454-534.041,206.451Z" transform="translate(723.694 -125.439)" fill="#ffc99c"/>
          <path id="Path_17" data-name="Path 17" d="M-531.314,159.276a60.612,60.612,0,0,1-3.8,10.922s-37.572-1.68-40.956.7c-3.384,2.357,1.75,9.358,1.377,12.369-.35,2.894-1.564,12.345-1.68,13.139v.047c-2.147-1.19-5.181-2.38-7.4-1.05-1.237.747-2.194,3.127-2.31,5.881-2.94-4.224-10.5-15.706-9.988-20.63.63-6.138,7.048-10.081,7.048-10.081s-.56-11.248.957-13.489c1.494-2.264,31.878-7.631,32.928-8,1.073-.373,8.121-5.764,8.821-5.624.677.117,2.5,5.741,2.5,5.741s7.374-8,8.378-7.678C-534.441,141.82-529.937,153.395-531.314,159.276Z" transform="translate(717.98 -141.507)" fill="#001b41"/>
          <path id="Path_18" data-name="Path 18" d="M-489.734,212.462c-13.372,13.769-39.043,39.929-40.886,39.929-2.52,0-28.494-25.227-28.494-25.227l-4.224-42.473c1.89,1.307,34.142,40.3,34.142,40.3l24.364-26Z" transform="translate(761.673 -83.913)" fill="#fefefe"/>
          <path id="Path_19" data-name="Path 19" d="M-541.445,227.52s-23.617,30.571-26.627,30.384c-2.24-.14-41.213-18.016-61.026-27.187l9.452-19.7,46.51,21.19s22.123-39.766,23.99-42.38l2.077,1.494Z" transform="translate(673.97 -77.058)" fill="#fefefe"/>
          <path id="Path_20" data-name="Path 20" d="M-508.437,313.37q0,5.531-.14,11.062c-23.874,7.351-48,7.188-72.367,0a619.538,619.538,0,0,0-5.088-71.6c0-.023,0-.023-.023-.023v-.023c-4.107-32.135-9.125-53.745-8.775-54.421.42-.84,13.116-8.238,24.154-12.415l2.24,5.437.023.023,25.9,62.659,1.774-61.959.257-8.658-.047-.023c9.918.77,18.88,2.17,19.206,2.94C-520.782,187.608-508.18,249.871-508.437,313.37Z" transform="translate(719.649 -85.594)" fill="#004f82"/>
          <path id="Path_21" data-name="Path 21" d="M-513.475,273.707q0,5.531-.14,11.062c-23.873,7.351-48,7.188-72.367,0a619.523,619.523,0,0,0-5.088-71.6c.583,1.494,19.813,50.057,45.3,58.925A56.271,56.271,0,0,0-513.475,273.707Z" transform="translate(724.687 -45.93)" fill="#002f47"/>
          <path id="Path_22" data-name="Path 22" d="M-516,243.851c-.28,24.9-3.991,106.509-5.787,144.968-.584,12.462-.957,20.373-.957,20.373h-19.51s-1.33-40.909-2.684-77.758c-1.12-29.451-2.24-56.288-2.754-57.618-.98-2.544-7.328-3.267-8.331.747-.63,2.544-6.068,56.732-9.895,95.587-2.194,21.983-3.85,39.042-3.85,39.042h-19.51s.3-43.476.583-85.9c.21-37.642.42-74.491.327-79.438C-564.006,251.039-539.876,251.2-516,243.851Z" transform="translate(727.074 -5.013)" fill="#008d94"/>
          <path id="Path_23" data-name="Path 23" d="M-588.7,277.891l22.777,46.86c-2.194,21.983-3.85,39.042-3.85,39.042h-19.51S-588.977,320.317-588.7,277.891Z" transform="translate(727.074 40.386)" fill="#005b5b"/>
          <path id="Path_24" data-name="Path 24" d="M-547.13,338.766c-.584,12.462-.957,20.373-.957,20.373H-567.6s-1.33-40.909-2.684-77.758Z" transform="translate(752.414 45.04)" fill="#005b5b"/>
          <path id="Path_25" data-name="Path 25" d="M-564.213,185.428l-.257,8.658c-.653,1.914-2.427,6.791-3.337,7-1.12.257-9.241-9.5-9.241-9.5l4.247-6.674,1.4-2.194.49-.77,6.651,3.454Z" transform="translate(743.388 -87.567)" fill="#f1e9f3"/>
          <path id="Path_26" data-name="Path 26" d="M-567.125,191.616s-6.324,10.385-7,10.385c-.607-.14-7.655-8.1-8.1-8.588l-.023-.023-2.24-5.437.023-.023,7.071-6,.63.607,2.777,2.614Z" transform="translate(733.465 -87.594)" fill="#f1e9f3"/>
          <path id="Path_27" data-name="Path 27" d="M-555.841,188.578l-1.773,61.959-25.9-62.659c.443.49,7.491,8.448,8.1,8.588.677,0,7-10.385,7-10.385s8.121,9.755,9.241,9.5C-558.268,195.369-556.494,190.492-555.841,188.578Z" transform="translate(734.759 -82.059)" fill="#fefefe"/>
          <path id="Path_28" data-name="Path 28" d="M-565.734,187.456l-1.4,2.194-4.247,6.674-6.861-6.464-2.777-2.614-.163-5.181-.117-3.664a79.922,79.922,0,0,0,14.749.513l.583,6.091Z" transform="translate(737.717 -92.302)" fill="#ffc99c"/>
          <path id="Path_29" data-name="Path 29" d="M-565.968,185.005c-4.691.77-11.738-1.61-15.216-2.94l-.117-3.664a79.922,79.922,0,0,0,14.749.513Z" transform="translate(737.717 -92.302)" fill="#e89574"/>
          <path id="Path_30" data-name="Path 30" d="M-613.152,202.232l-9.451,19.7c-6.814-3.15-11.365-5.251-11.365-5.251l8.075-20.256Z" transform="translate(667.475 -68.269)" fill="#f1e9f3"/>
          <path id="Path_31" data-name="Path 31" d="M-515.188,201.677s-3.2,3.337-7.981,8.238l-15.1-13.465,9.218-9.848,1.26,1.377,7.468,8.121,4.574,4.971Z" transform="translate(795.108 -81.366)" fill="#f1e9f3"/>
          <path id="Path_32" data-name="Path 32" d="M-568.606,314.7l-.912,14.261h45.194s1.594-3.944-.656-7.132S-549.1,314.7-549.1,314.7Z" transform="translate(753.429 89.478)" fill="#00264e"/>
          <path id="Path_33" data-name="Path 33" d="M-524.325,320.812l.281,1.407h-18.19l-8.673-1.407v1.407h-18.612v-1.407Z" transform="translate(753.429 97.629)" fill="#004f82"/>
          <path id="Path_34" data-name="Path 34" d="M-588.762,314.7l-.912,14.261h39.565s1.594-3.944-.656-7.132-18.487-7.129-18.487-7.129Z" transform="translate(726.549 89.478)" fill="#00264e"/>
          <path id="Path_35" data-name="Path 35" d="M-550.109,320.812l.281,1.407h-21.628l-4.8-1.407v1.407h-13.42v-1.407Z" transform="translate(726.549 97.629)" fill="#004f82"/>
          <path id="Path_36" data-name="Path 36" d="M-519.455,198.34c.14,1.05-1.12,3.8-2.5,6.464l-.023.047c-1.564,3.01-3.267,5.858-3.267,5.858l-7.468-8.121s-1.26-6.838-1.773-9.335c-.49-2.52,1-17.012,1-17.526,0-.49,3.687,1.377,4.084,3.267.373,1.867,1.307,9.871,1.307,9.871s.933.817,2.17,1.96C-523.422,193.136-519.641,196.846-519.455,198.34Z" transform="translate(800.023 -95.975)" fill="#ffc99c"/>
          <path id="Path_37" data-name="Path 37" d="M-526.9,196.13c.117-.513,1.237-4.971,1.1-6.371-.117-1.494-5.064-7.608-5.064-7.608,2.5,2.31,6.278,6.021,6.464,7.514C-524.266,190.716-525.526,193.469-526.9,196.13Z" transform="translate(804.974 -87.301)" fill="#e89574"/>
          <path id="Path_38" data-name="Path 38" d="M-500.925,198c-1.02.91-9.461,8.305-9.461,8.305l-15.232,14.469-4.574-4.971s6.068-10.128,5.787-12.368c-.187-1.494-3.967-5.2-6.464-7.514l3.5-6.537,9.675-17.549s2,1.552,1.769,2.875c-.187,1.139-3.659,11.738-5.116,16.371l13.643-16.352s1.895,2.17,1.332,3.557c-.478,1.178-6.42,12.735-8.94,17.015l12.313-10.147s1.333,2.152.646,3.309c-.5.847-4.007,5.183-8.107,10.439l9.629-4.252S-499.926,197.085-500.925,198Z" transform="translate(804.977 -101.066)" fill="#ffc99c"/>
          <path id="Path_39" data-name="Path 39" d="M-622.9,211.942l-4.131,10.221s-2.824-2.24-5.437-4.621l-.14-.14c-2.077-1.89-3.944-3.827-4.177-4.784-.35-1.447,1.844-6.184,3.384-9.241a.182.182,0,0,0,.023-.07c.747-1.494,1.33-2.59,1.33-2.59s-1.937-7.818-2.24-9.708,2.5-4.947,2.684-4.481c.163.467,6.674,13.512,7.094,16.056C-624.117,205.1-622.9,211.942-622.9,211.942Z" transform="translate(663.663 -81.526)" fill="#ffc99c"/>
          <path id="Path_40" data-name="Path 40" d="M-632.611,207.746c-2.077-1.89-3.944-3.827-4.177-4.784-.35-1.447,1.844-6.184,3.384-9.241-.257.747-2.4,7.258-2.03,9.381C-635.109,205.086-633.125,207.21-632.611,207.746Z" transform="translate(663.663 -71.87)" fill="#e89574"/>
          <path id="Path_41" data-name="Path 41" d="M-645.353,216.408c1.274.492,11.776,4.45,11.776,4.45l19.346,8.191,2.537-6.261s-9.241-7.349-9.766-9.545c-.35-1.466,1.886-6.268,3.412-9.309l-5.57-4.889-15.227-13.029s-1.325,2.156-.646,3.314c.574,1,7.552,9.7,10.544,13.528l-18.52-10.516s-1.011,2.7,0,3.8c.864.936,10.488,9.666,14.35,12.789l-15.094-5.174s-.49,2.483.56,3.325c.766.618,5.573,3.445,11.258,6.922l-10.506-.6S-646.609,215.907-645.353,216.408Z" transform="translate(648.326 -82.145)" fill="#ffc99c"/>
        </g>
        <g id="Group_16" data-name="Group 16" transform="translate(-319.034 436.793)">
          <g id="Group_15" data-name="Group 15" transform="translate(0 0)">
            <g id="Group_10" data-name="Group 10">
              <rect id="Rectangle_16" data-name="Rectangle 16" width="320.86" height="8.63" fill="#00c7d9"/>
            </g>
            <g id="Group_11" data-name="Group 11" transform="translate(4.251 8.63)">
              <rect id="Rectangle_17" data-name="Rectangle 17" width="312.359" height="21.481" fill="#00c7d9"/>
            </g>
            <g id="Group_12" data-name="Group 12" transform="translate(4.251 8.63)">
              <path id="Path_42" data-name="Path 42" d="M-543.349,226.889h312.359v8.15l-312.359-5Z" transform="translate(543.349 -226.889)" fill="#008d94"/>
            </g>
            <g id="Group_13" data-name="Group 13" transform="translate(4.251 30.112)">
              <rect id="Rectangle_18" data-name="Rectangle 18" width="6.751" height="199.111" fill="#00c7d9"/>
            </g>
            <g id="Group_14" data-name="Group 14" transform="translate(309.858 30.112)">
              <rect id="Rectangle_19" data-name="Rectangle 19" width="6.751" height="199.111" fill="#00c7d9"/>
            </g>
          </g>
        </g>
        <g id="Group_17" data-name="Group 17" transform="translate(-275.708 394.382)">
          <rect id="Rectangle_20" data-name="Rectangle 20" width="30.519" height="5.468" transform="translate(5.9 36.943)" fill="#008e8f"/>
          <rect id="Rectangle_21" data-name="Rectangle 21" width="61.807" height="5.468" transform="translate(36.419 36.943)" fill="#007a7c"/>
          <path id="Path_43" data-name="Path 43" d="M-464.8,205.018h-61.806l5.9,36.943H-458.9Z" transform="translate(526.605 -205.018)" fill="#007a7c"/>
          <path id="Path_44" data-name="Path 44" d="M-468.243,206.062h-57.211l5.121,32.067h57.211Z" transform="translate(528.141 -203.624)" fill="#00264e"/>
        </g>
        <g id="Group_20" data-name="Group 20" transform="translate(-173.859 468.774)">
          <g id="Group_18" data-name="Group 18" transform="translate(0 58.941)">
            <rect id="Rectangle_22" data-name="Rectangle 22" width="5.066" height="126.269" transform="translate(52.289)" fill="#004e7d"/>
            <path id="Path_45" data-name="Path 45" d="M-376.135,325.5c-37.393-13.442-66.62-13.442-104.01,0l-2.817,4.635h109.641Z" transform="translate(482.962 -191.112)" fill="#004e7d"/>
            <path id="Path_46" data-name="Path 46" d="M-430.81,288.261v2.87c7.678,2.637,27.514,9.638,26.067,11.365-.887,1.05-12.672.7-26.067-.28-1.68-.14-3.36-.28-5.064-.4-17.479-1.447-35.752-3.757-35.332-5.321.49-1.937,27.561-5.227,35.332-6.138v-2.73c-8.845.957-40.956,4.667-43.08,8.961-1.914,3.827,20.98,7.794,43.08,9.475,1.7.14,3.384.233,5.064.35,14.375.84,27.561.63,32.228-1.377C-390.181,301.423-421.125,291.295-430.81,288.261Z" transform="translate(488.158 -228.17)" fill="#004e7d"/>
          </g>
          <g id="Group_19" data-name="Group 19" transform="translate(11.794)">
            <path id="Path_47" data-name="Path 47" d="M-380.594,254.825c-1.867,12.742-17.806,36.2-52.508,36.2-30.408,0-42.94-11.808-44.807-16.756,11.085.443,29.288,1,41.236.513,2.054-.093,4.014-.233,5.9-.467h.07c29.381-1.8,50.851-26.441,48.354-31.668A22.648,22.648,0,0,1-380.594,254.825Z" transform="translate(477.908 -229.229)" fill="#008493"/>
            <path id="Path_48" data-name="Path 48" d="M-457.678,281.977c14.7-1.75,23.78-8.238,24.6-26.347a55.781,55.781,0,0,0-.21-7.935,72.7,72.7,0,0,0-1.634-10.2c13.115-2.73,21.937,4.224,25.6,12.812C-406.827,255.536-428.3,280.18-457.678,281.977Z" transform="translate(504.888 -236.895)" fill="#005b5b"/>
          </g>
        </g>
        <g id="Group_22" data-name="Group 22" transform="translate(-238.701 306.758)">
          <path id="Path_49" data-name="Path 49" d="M-423.441,205.7c-3.22,5.577-7.444,12.229-9.848,13.465a10.7,10.7,0,0,1-2.007.7,77.077,77.077,0,0,1-13.722,2.077c-7.374.513-14.725.163-15.962-2.24-1.307-2.544.98-14.516,3.29-24.737.537-2.38,1.074-4.691,1.587-6.744,1.517-6.464,10.782-14.375,10.782-14.375A37.93,37.93,0,0,0-423.441,205.7Z" transform="translate(571.278 -158.97)" fill="#ffc99c"/>
          <path id="Path_50" data-name="Path 50" d="M-390.315,266.868s-11.435,36.125-37.736,25.694v-.023c2.287-7.935,5.134-16.989,6.534-20.653,2.5-6.511,4.131-25.39,3.127-26.254-.513-.467-5.578-1.377-11.388-2.147l.023-.023c1-.934-1-5.157-1.074-5.928-.07-.747,1.19-4.6.373-4.971a16.593,16.593,0,0,0-3.8-.4l-.537-3.8a10.7,10.7,0,0,0,2.007-.7c2.4-1.237,6.628-7.888,9.848-13.465a37.93,37.93,0,0,1-25.88-31.855s-9.265,7.911-10.782,14.375c-.513,2.054-1.05,4.364-1.587,6.744,0,0-6.954-19.86-3.664-27.351,3.291-7.514,26.277-8.751,30.035-8.635s24.387,9.591,28.868,17.993c4.5,8.378-.677,60.886.07,72.134S-390.315,266.868-390.315,266.868Z" transform="translate(570.777 -167.47)" fill="#0066dc"/>
          <path id="Path_51" data-name="Path 51" d="M-464.168,269.635c-1.984,4.084-4.5,9.1-7.211,14.352-8.588,16.662-18.9,35.729-18.9,35.729l-9.568-2.777s5.414-21.19,11.6-43.663c.677-2.59,1.4-5.2,2.124-7.795C-483.094,267.558-476.257,270.825-464.168,269.635Z" transform="translate(525.281 -36.755)" fill="#ffc99c"/>
          <path id="Path_52" data-name="Path 52" d="M-470.8,269.635c-1.984,4.084-4.5,9.1-7.211,14.352l-2.52-10.151s-9.661,1.633-14.352-.56c.677-2.59,1.4-5.2,2.124-7.795C-489.723,267.558-482.885,270.825-470.8,269.635Z" transform="translate(531.909 -36.755)" fill="#e89574"/>
          <path id="Path_53" data-name="Path 53" d="M-427.635,200.1c-2.562,1.75-25.752,40.256-25.752,40.256l-40.2,7.407.751,6.219h42.382c3.561,0,17.25-12.564,17.25-12.564Z" transform="translate(533.64 -123.949)" fill="#ffc99c"/>
          <path id="Path_54" data-name="Path 54" d="M-411.825,224.761a29.911,29.911,0,0,1-1.214,4.387c-1.26,3.29-3.687,10.922-5.811,18.179-.257.84-.49,1.657-.723,2.474v.023c-1.774,6.138-3.244,11.622-3.454,13.349-.35,2.754,4.527,12.018,7.328,24.177a72.7,72.7,0,0,1,1.633,10.2c-5.087-4.154-18.179-7.538-30.361-3.594-2.964.957-8,2.17-14.049,3.547,0,0-5.531-2.217-12.672-5.087.513-1.564,1.447-4.481,2.427-7.841,1.564-5.391,3.29-11.948,3.687-16.009.747-7.888-1.493-27.7-1.493-27.7s-5.927-8.658-5.554-11.692c.467-3.664,9.661-15.542,10.292-16.779.63-1.26,4.621-11.248,5.507-11.505.42-.117,3.617-.56,7.561-.957,1.587-.14,3.314-.3,5.017-.42a1.509,1.509,0,0,0,.093.3,9.566,9.566,0,0,0,7,6c3.454.817,9.125-1.26,12.672-3.267a14.429,14.429,0,0,0,2.637-1.8c.35.047.677.093,1,.14,5.391.723,9.895,1.564,10.385,2.007C-409.094,203.618-410.051,216.594-411.825,224.761Z" transform="translate(562.294 -124.737)" fill="#004e7d"/>
          <g id="Group_21" data-name="Group 21" transform="translate(91.147 74.774)">
            <path id="Path_55" data-name="Path 55" d="M-433.656,200.888c-27.257,25.6-28.4,2.52-28.424-.957,1.587-.14,3.314-.3,5.017-.42a1.5,1.5,0,0,0,.093.3,9.566,9.566,0,0,0,7,6c3.454.817,9.125-1.26,12.672-3.267a14.434,14.434,0,0,0,2.637-1.8C-434.309,200.795-433.983,200.841-433.656,200.888Z" transform="translate(484.507 -199.511)" fill="#002f47"/>
            <path id="Path_56" data-name="Path 56" d="M-416.242,250.968a72.687,72.687,0,0,1,1.634,10.2c-5.087-4.154-18.179-7.538-30.361-3.594-2.964.957-8,2.17-14.049,3.547,0,0-5.531-2.217-12.672-5.087.513-1.564,1.447-4.481,2.427-7.841a23.7,23.7,0,0,0,13.629,3.734c17.246-.187,30.571-21.377,32.065-25.134C-423.92,229.545-419.042,238.809-416.242,250.968Z" transform="translate(471.69 -163.128)" fill="#002f47"/>
            <path id="Path_57" data-name="Path 57" d="M-441.642,211.625a29.914,29.914,0,0,1-1.214,4.387c-1.26,3.291-3.687,10.922-5.811,18.179l-1.027-22.753-.047-1.237,7.585-.84Z" transform="translate(500.964 -186.374)" fill="#002f47"/>
          </g>
          <path id="Path_58" data-name="Path 58" d="M-376.052,211.609s-37.129,46.44-41.189,46.627-25.507-26.627-28.494-29.824c-3.01-3.174-5.671-11.692-3.781-18.459,1.89-6.651,7.911-10.1,10.338-8.845,2.1,1.074,24.13,38.132,24.13,38.132l32.625-33.442,4.107,3.734Z" transform="translate(591.566 -122.95)" fill="#ffc99c"/>
          <path id="Path_59" data-name="Path 59" d="M-384.684,252.51c-.56,12.438-5.017,19.416-12.532,23.1a37.742,37.742,0,0,1-12.065,3.244h-.07c-1.89.233-3.851.373-5.9.467-11.948.49-30.151-.07-41.236-.513-5.788-.233-9.638-.42-9.638-.42s-.117,10.081-1.867,16.989a68.335,68.335,0,0,1-4.014,9.265c-12.088,1.19-18.926-2.077-21.96-4.154,3.407-12.3,6.861-24.317,9.592-32.765,2.17-6.744,3.92-11.225,4.761-11.738,1.33-.77,7.188-2.217,14.959-3.921,2.8-.607,5.811-1.26,8.985-1.914.56-.117,1.12-.233,1.7-.35,6.324-1.354,13.069-2.754,19.206-4.084.84-.187,1.68-.373,2.474-.537,1.027-.233,2.007-.443,2.987-.653,6.044-1.377,11.085-2.59,14.049-3.547,12.182-3.944,25.274-.56,30.361,3.594A55.75,55.75,0,0,1-384.684,252.51Z" transform="translate(533.123 -71.764)" fill="#0066dc"/>
          <path id="Path_60" data-name="Path 60" d="M-413.127,256.848a37.742,37.742,0,0,1-12.065,3.244h-.07c-1.89.233-3.851.373-5.9.467-11.948.49-30.151-.07-41.236-.513-5.788-.233-9.638-.42-9.638-.42V253.3S-433.756,262.892-413.127,256.848Z" transform="translate(549.034 -52.999)" fill="#004e7d"/>
          <line id="Line_1" data-name="Line 1" x1="0.023" transform="translate(148.233 172.816)" fill="none" stroke="#0f0f0f" stroke-miterlimit="10" stroke-width="1"/>
          <path id="Path_61" data-name="Path 61" d="M-465.927,253.331c0,.7-.023,1.517-.07,2.474-.023,1.19-.093,2.544-.187,4.061-1.12,18.693-5.554,59.765-5.554,59.765l-10.922,1.867s-2.007-15.939-4.107-35.565c-.583-5.461-1.19-11.225-1.773-17.036-.28-2.754-.56-5.507-.84-8.238C-485.856,261.009-477.432,260.705-465.927,253.331Z" transform="translate(539.245 -52.959)" fill="#ffc99c"/>
          <path id="Path_62" data-name="Path 62" d="M-465.927,253.331c0,.7-.023,1.517-.07,2.474-3.641,4.761-12.532,14.585-22.543,13.092-.28-2.754-.56-5.507-.84-8.238C-485.856,261.009-477.432,260.705-465.927,253.331Z" transform="translate(539.245 -52.959)" fill="#e89574"/>
          <path id="Path_63" data-name="Path 63" d="M-433.363,251.676c-.98.21-1.96.42-2.987.653-.793.163-1.634.35-2.474.537-6.138,1.33-12.882,2.73-19.206,4.084-.583.117-1.144.233-1.7.35-3.174.653-6.184,1.307-8.985,1.914.98,2.707,4.154,11.832,4.784,18.366a16.131,16.131,0,0,1,.07,1.7c-11.505,7.375-19.93,7.678-23.453,7.328-.373-3.991-.77-7.935-1.12-11.738-.047-.607-.117-1.213-.163-1.82-1.727-18.483-2.847-33.535-2.077-35.1,2.124-4.247,11.738-4.387,13.232-3.874.98.3,18.716,7.421,31.411,12.508C-438.894,249.459-433.363,251.676-433.363,251.676Z" transform="translate(537.183 -78.912)" fill="#0066dc"/>
          <path id="Path_64" data-name="Path 64" d="M-434.692,241.5c-.98.21-1.96.42-2.987.653-.793.163-1.634.35-2.474.537-6.138,1.33-12.882,2.73-19.206,4.084-.583.117-1.144.233-1.7.35-3.174.653-6.184,1.307-8.985,1.914.98,2.707,4.154,11.832,4.784,18.366a16.129,16.129,0,0,1,.07,1.7c-11.505,7.374-19.93,7.678-23.453,7.328-.373-3.991-.77-7.935-1.12-11.738-.047-.607-.117-1.213-.163-1.82,13.582,1.4,15.286-18.716,15.286-18.716Z" transform="translate(538.511 -68.736)" fill="#004e7d"/>
          <path id="Path_65" data-name="Path 65" d="M-443.751,199.862c-2.054,1-7.4,3.431-9.918,2.777a10.749,10.749,0,0,1-4.691-2.707v-4.294a77.075,77.075,0,0,0,13.722-2.077l.257,1.774.28,2.03Z" transform="translate(580.615 -132.673)" fill="#ffc99c"/>
          <path id="Path_66" data-name="Path 66" d="M-444.381,195.335a46.927,46.927,0,0,1-7.841,3.594,7.035,7.035,0,0,1-6.138-.49v-2.8a77.075,77.075,0,0,0,13.722-2.077Z" transform="translate(580.615 -132.673)" fill="#e89574"/>
          <path id="Path_67" data-name="Path 67" d="M-437.482,206.488l-.023.023a14.423,14.423,0,0,1-2.637,1.8c-3.547,2.007-9.218,4.084-12.672,3.267a9.566,9.566,0,0,1-7-6,1.519,1.519,0,0,1-.093-.3c-.327-1.82,1.844-4.9,1.914-5.367.07-.513-.49-2.007-.443-3.08.047-.77,1.47-.91,2.194-.933v1.867a10.749,10.749,0,0,0,4.691,2.707c2.52.653,7.864-1.774,9.918-2.777l-.35-2.5a16.592,16.592,0,0,1,3.8.4c.817.373-.443,4.224-.373,4.971C-438.486,201.331-436.479,205.555-437.482,206.488Z" transform="translate(578.505 -130.496)" fill="#004e7d"/>
          <path id="Path_68" data-name="Path 68" d="M-481.611,290.31s-20.093,14.469-24.737,9.755c7-5.834,15.169-12.532,15.169-12.532Z" transform="translate(516.615 -7.344)" fill="#ffc99c"/>
          <path id="Path_69" data-name="Path 69" d="M-474.32,298.571c-.49.933-30.361,11.808-33.185,12.065-2.824.233-3.874-2.45-2.871-3.687.42-.537,4.854-4.271,9.9-8.471,4.644,4.714,24.737-9.755,24.737-9.755S-473.807,297.638-474.32,298.571Z" transform="translate(510.747 -5.757)" fill="#0066dc"/>
          <path id="Path_70" data-name="Path 70" d="M-472.6,281.743s-5.811,21.937-16.126,19.3c2.31-7.725,5.2-17.433,5.2-17.433Z" transform="translate(540.114 -15.066)" fill="#ffc99c"/>
          <path id="Path_71" data-name="Path 71" d="M-466.467,290.471c-.163,1.05-15.006,20.84-17.5,22.193-3.92,2.147-6.464-.887-5.927-2.38.187-.583,1.4-4.551,2.824-9.241,10.315,2.637,16.126-19.3,16.126-19.3S-466.3,289.421-466.467,290.471Z" transform="translate(538.46 -15.066)" fill="#0066dc"/>
          <path id="Path_72" data-name="Path 72" d="M-471.95,226.745A33.068,33.068,0,0,1-478.139,230c-2.25.656-15.314,2.093-15.314,2.093s-.189-2.033,1.374-2.674,9-2.672,9-2.672h-24.5s-2.126-1.531-1.563-2.28,14.511-1.795,15.948-1.921,20.494-2.019,20.494-2.019Z" transform="translate(512.76 -96.71)" fill="#ffc99c"/>
          <path id="Path_73" data-name="Path 73" d="M-412.355,212.632c0,1.564-2.777,5.718-3.8,7.234l-.023.023c-.233.327-.373.513-.373.513l-4.107-3.734s-.817-7.421-.817-8.658c0-1.26,4.131-14.329,4.387-15.006.257-.7,1.424-.117,1.634.933.163.887.047,8.355.023,11.085-.023.607-.023.98-.023.98a.073.073,0,0,0,.023.047C-415.086,206.588-412.355,210.812-412.355,212.632Z" transform="translate(629.801 -133.821)" fill="#ffc99c"/>
          <path id="Path_74" data-name="Path 74" d="M-403.871,206.876c0,.537-6.884,5.648-8.238,6.278a.466.466,0,0,1-.187.07c-.14,0-.35-.233-.63-.607a39.64,39.64,0,0,1-2.567-4.481c-.14-.257-2.1-1.494-2.077-2.31.047-.607,4.574-5.111,7.118-7.468l.07-.07a2.108,2.108,0,0,0,.233-.21,11.106,11.106,0,0,1,1.377-1.167c.7.047,2.1,1.727,2.287,2.077.187.327-.21,1.494-.21,1.657C-406.695,200.785-403.871,206.316-403.871,206.876Z" transform="translate(635.016 -128.205)" fill="#ffc99c"/>
          <path id="Path_75" data-name="Path 75" d="M-414.326,206.936c.373.257,1.377,4.831,2.217,5.391a.466.466,0,0,1-.187.07c-.14,0-.35-.233-.63-.607a39.639,39.639,0,0,1-2.567-4.481c-.14-.257-2.1-1.494-2.077-2.31.047-.607,4.574-5.111,7.118-7.468-.607.653-5.624,6-5.928,7.024C-416.706,205.629-414.7,206.679-414.326,206.936Z" transform="translate(635.016 -127.378)" fill="#e89574"/>
          <path id="Path_76" data-name="Path 76" d="M-401.072,192.372c-.373,1.12-6.908,14.072-6.908,14.072l.233.747c-2.474,2.264-7.374,7.118-7.421,7.748-.023.817,1.937,2.054,2.077,2.31a39.66,39.66,0,0,0,2.567,4.481l-6.581,4.247-2.264-2.077s4.2-5.834,4.2-7.771-3.1-6.628-3.1-6.628,0-.373.023-.98c2.94-3.384,15.5-17.713,16.242-18.3C-401.165,189.571-400.7,191.251-401.072,192.372Z" transform="translate(632.618 -137.318)" fill="#ffc99c"/>
        </g>
        <path id="Path_77" data-name="Path 77" d="M-441.872,288.991" transform="translate(363.904 301.358)" fill="none" stroke="#0f0f0f" stroke-miterlimit="10" stroke-width="1"/>
        <g id="Group_23" data-name="Group 23" transform="translate(-97.566 116.281)">
          <path id="Path_78" data-name="Path 78" d="M-450.27,95.394v114.4a9.551,9.551,0,0,0,9.568,9.568h25.11l-2.287,24.224a1.864,1.864,0,0,0,2.684,1.844l51.738-26.067h102.4a9.566,9.566,0,0,0,9.568-9.568V95.394a9.561,9.561,0,0,0-9.568-9.545H-440.7A9.546,9.546,0,0,0-450.27,95.394Z" transform="translate(450.27 -85.849)" fill="#9fdfe6"/>
          <path id="Path_79" data-name="Path 79" d="M-315.469,99.686H-431.1a2.372,2.372,0,0,0-2.373,2.373h0a2.374,2.374,0,0,0,2.373,2.376h115.629a2.374,2.374,0,0,0,2.373-2.376h0A2.372,2.372,0,0,0-315.469,99.686Z" transform="translate(472.674 -67.395)" fill="#fff"/>
          <path id="Path_80" data-name="Path 80" d="M-328.614,113.782h-98.9a2.374,2.374,0,0,0-2.373,2.373h0a2.374,2.374,0,0,0,2.373,2.376h98.9a2.376,2.376,0,0,0,2.373-2.376h0A2.375,2.375,0,0,0-328.614,113.782Z" transform="translate(477.456 -48.595)" fill="#fff"/>
          <path id="Path_81" data-name="Path 81" d="M-315.469,127.878H-431.1a2.374,2.374,0,0,0-2.373,2.373h0a2.374,2.374,0,0,0,2.373,2.376h115.629a2.374,2.374,0,0,0,2.373-2.376h0A2.374,2.374,0,0,0-315.469,127.878Z" transform="translate(472.674 -29.796)" fill="#fff"/>
        </g>
        <g id="Group_24" data-name="Group 24" transform="translate(29.785 311.535)">
          <path id="Path_82" data-name="Path 82" d="M-337.684,169.517v58.015H-395.7A58.015,58.015,0,0,1-337.684,169.517Z" transform="translate(395.699 -169.517)" fill="#00517f"/>
          <path id="Path_83" data-name="Path 83" d="M-275.242,231.959a58.015,58.015,0,0,1-58.015,58.015,58.015,58.015,0,0,1-58.015-58.015h58.015V173.944A58.015,58.015,0,0,1-275.242,231.959Z" transform="translate(401.603 -163.613)" fill="#ff960f"/>
        </g>
        <g id="Group_26" data-name="Group 26" transform="translate(-568.187 80.04)">
          <rect id="Rectangle_23" data-name="Rectangle 23" width="27.764" height="32.817" rx="3.436" transform="translate(27.672 64.995)" fill="#004e7d"/>
          <circle id="Ellipse_1" data-name="Ellipse 1" cx="34.51" cy="34.51" r="34.51" transform="translate(0 67.15) rotate(-76.631)" fill="#ff960f"/>
          <path id="Path_84" data-name="Path 84" d="M-634.128,75.651a29.111,29.111,0,0,1,29.11,29.113" transform="translate(675.683 -63.209)" fill="none" stroke="#fff" stroke-linecap="round" stroke-miterlimit="10" stroke-width="2"/>
          <rect id="Rectangle_24" data-name="Rectangle 24" width="31.077" height="3.631" transform="translate(26.016 72.434)" fill="#00264e"/>
          <g id="Group_25" data-name="Group 25" transform="translate(30.865 42.304)">
            <rect id="Rectangle_25" data-name="Rectangle 25" width="1.75" height="30.129" fill="#fefefe"/>
            <rect id="Rectangle_26" data-name="Rectangle 26" width="1.75" height="30.129" transform="translate(19.628)" fill="#fefefe"/>
            <path id="Path_85" data-name="Path 85" d="M-620.081,90.39a20.394,20.394,0,0,1-17.878,0v-1.5a23.315,23.315,0,0,0,17.878,0Z" transform="translate(639.708 -87.858)" fill="#fefefe"/>
          </g>
        </g>
        <path id="Path_87" data-name="Path 87" d="M-542.262,97.263l90.013,463.507h-147.6V97.263Z" transform="translate(153.21 45.655)" fill="#e9f6f8" opacity="0.5" style="mix-blend-mode: multiply;isolation: isolate"/>
      </g>
    </g>
  </g>
</svg>
