<svg xmlns="http://www.w3.org/2000/svg" width="739" height="156" viewBox="0 0 739 156">
  <g id="Group_340" data-name="Group 340" transform="translate(-6903 -7432)">
    <rect id="Rectangle_142" data-name="Rectangle 142" width="665" height="156" rx="21" transform="translate(6977 7432)" fill="#f5f5f5"/>
    <circle id="Ellipse_76" data-name="Ellipse 76" cx="78" cy="78" r="78" transform="translate(6903 7432)" fill="#ff440e"/>
    <text id="Our_Vision" data-name="Our Vision" transform="translate(7088 7474)" font-size="27" font-family="Poppins-Bold, Poppins" font-weight="700"><tspan x="0" y="0">Our Vision</tspan></text>
    <text id="To_be_a_Reliable_IT_Solutions_Partner_for_all_industries." data-name="To be a Reliable IT Solutions Partner
for all industries." transform="translate(7088 7523)" fill="#707070" font-size="25" font-family="Poppins-SemiBold, Poppins" font-weight="600"><tspan x="0" y="0">To be a Reliable IT Solutions Partner</tspan><tspan x="0" y="38">for all industries.</tspan></text>
    <g id="Group_339" data-name="Group 339" transform="translate(6926.732 7449.66)">
      <path id="Path_1859" data-name="Path 1859" d="M180.735,1150.091c-16.593-.475-33.222-8.611-45.358-25.592-2.308-3.229-2.273-5.766-.055-9.084,22.837-34.159,76.09-34.081,98.731.161,2.064,3.122,2.166,5.539.037,8.7C223.35,1140.241,204.765,1150.081,180.735,1150.091Zm-39.35-30.222c17.124,28.377,63.513,32.324,85.446,1.887.645-.894.319-3.234-.43-4.265a48.939,48.939,0,0,0-20.314-16.106C182.779,1091.114,153.449,1099.49,141.385,1119.87Z" transform="translate(-130.776 -1059.624)" fill="#fff"/>
      <path id="Path_1860" data-name="Path 1860" d="M192.284,1069.843c0,2.6.418,5.292-.146,7.762-.354,1.545-2.181,2.751-3.348,4.11-1.229-1.294-3.421-2.52-3.52-3.895a118.632,118.632,0,0,1,.006-16.945c.1-1.357,2.31-2.562,3.55-3.837,1.151,1.363,3.007,2.592,3.3,4.121C192.663,1063.959,192.279,1066.938,192.284,1069.843Z" transform="translate(-134.824 -1057.037)" fill="#fff"/>
      <path id="Path_1861" data-name="Path 1861" d="M149.509,1092.938c-.52.645-1.08,1.99-2,2.32-1.115.4-3.049.456-3.744-.233-4.446-4.4-8.754-8.963-12.827-13.71-.643-.75-.367-3.167.385-3.99.772-.845,3.359-1.4,3.931-.84,4.78,4.7,9.287,9.671,13.839,14.6C149.355,1091.368,149.3,1091.951,149.509,1092.938Z" transform="translate(-130.534 -1058.553)" fill="#fff"/>
      <path id="Path_1862" data-name="Path 1862" d="M246.738,1079.25a21.583,21.583,0,0,1-2.055,3.392c-3.514,3.833-7.13,7.574-10.7,11.359-1.792,1.9-4.107,3.017-5.761.588-.8-1.174-.347-4.177.671-5.433a132.5,132.5,0,0,1,10.988-11.693,5.165,5.165,0,0,1,4.052-1.069C244.968,1076.6,245.726,1078.152,246.738,1079.25Z" transform="translate(-138.203 -1058.558)" fill="#fff"/>
      <path id="Path_1863" data-name="Path 1863" d="M246.405,1164.571c-.52.729-1,2.12-1.916,2.507-1.094.467-3.1.631-3.764-.028-4.553-4.5-8.958-9.169-13.128-14.025-.59-.688-.1-3.176.716-3.953s3.358-1.151,3.991-.528c4.674,4.588,9.067,9.463,13.517,14.277C246.1,1163.123,246.117,1163.67,246.405,1164.571Z" transform="translate(-138.165 -1064.229)" fill="#fff"/>
      <path id="Path_1864" data-name="Path 1864" d="M133.4,1167.931c-.685-.485-2.064-.964-2.459-1.871-.468-1.077-.631-3,.012-3.731,4.136-4.688,8.433-9.25,12.935-13.587.716-.69,3.152-.557,4.024.147s1.563,3.268,1.03,3.879c-4.4,5.037-9.093,9.818-13.735,14.641C134.936,1167.691,134.349,1167.672,133.4,1167.931Z" transform="translate(-130.53 -1064.233)" fill="#fff"/>
      <path id="Path_1865" data-name="Path 1865" d="M192.262,1174.525c0,2.741.378,5.559-.158,8.192-.275,1.348-2.171,3.265-3.353,3.278s-3.38-1.951-3.452-3.15a145.758,145.758,0,0,1,.019-17.8c.073-1.161,2.359-3.089,3.537-3.027s3.024,2.035,3.252,3.392C192.605,1168.377,192.262,1171.48,192.262,1174.525Z" transform="translate(-134.829 -1065.316)" fill="#fff"/>
      <path id="Path_1866" data-name="Path 1866" d="M170.147,1116.266q8.316,7.232,12.8.878c2.814-3.99,1.3-8.02-4.31-11.45,6.011-4.645,15.462-3.695,21.488,2.161a18.216,18.216,0,0,1-20.6,29.493A17.513,17.513,0,0,1,170.147,1116.266Z" transform="translate(-133.591 -1060.642)" fill="#fff"/>
    </g>
  </g>
</svg>
