<svg xmlns="http://www.w3.org/2000/svg" width="94.584" height="94.594" viewBox="0 0 94.584 94.594">
  <g id="Group_296" data-name="Group 296" transform="translate(1698.538 -488.859)">
    <path id="Path_98" data-name="Path 98" d="M-1633.108,511.813h9.889c4.309,0,8.618-.029,12.927.01a5.975,5.975,0,0,1,6.316,6.234q.048,15.235,0,30.47c-.009,3.343-1.674,5.2-5.627,6.393v17.01c.595.037,1.128.094,1.663.1,3.185.041,4,.851,3.961,4.107a11.939,11.939,0,0,1-.318,3.094,5.806,5.806,0,0,1-5.28,4.2c-.245.019-.492.016-.738.016q-40.9,0-81.808-.006c-3.954,0-6.425-2.5-6.378-6.511a44.947,44.947,0,0,1,.6-4.883,33.319,33.319,0,0,1-.6-4.6c-.061-10.4-.032-20.806-.03-31.209,0-4.323,1.373-6.139,5.747-7.365,0-1.57-.028-3.214.005-4.856.082-4.069,2.407-6.394,6.468-6.413,5.971-.028,11.945-.128,17.911.058,2.046.064,2.315-1.18,2.4-2.432a4.451,4.451,0,0,0-1.023-2.757c-.686-.866-2.335-1.3-2.524-2.158a16.893,16.893,0,0,1-.044-5.662c.079-.63,1.075-1.27,1.785-1.67,2.12-1.2,2.463-1.739,1.662-3.934a3.2,3.2,0,0,1,.972-3.955,16.888,16.888,0,0,0,1.7-1.693,3.008,3.008,0,0,1,3.64-.878c2.391.853,2.989.606,4.067-1.652a3.1,3.1,0,0,1,3.358-2,15.044,15.044,0,0,0,2.4,0,3.094,3.094,0,0,1,3.32,2.063c1,2.118,1.719,2.421,3.923,1.617a3.1,3.1,0,0,1,3.8.9,18.676,18.676,0,0,0,1.824,1.829,3.051,3.051,0,0,1,.827,3.665c-.8,2.377-.593,2.893,1.719,4.025a3,3,0,0,1,1.922,3.216C-1632.829,508.025-1632.958,509.864-1633.108,511.813Zm2.023,2.836q-10.24,0-20.479,0c-2.925.006-4.046,1.1-4.049,3.988q-.019,14.668,0,29.336c0,2.855,1.187,4.024,4.055,4.026q20.387.013,40.774,0c2.878,0,4.019-1.127,4.025-4.033q.029-14.668,0-29.336c-.006-2.941-1.075-3.977-4.03-3.982Q-1620.938,514.633-1631.086,514.649Zm-58.925,14.286h2.946a29.5,29.5,0,0,1,.047-3.807c.083-.618.644-1.663,1.015-1.675,4.176-.13,8.358-.13,12.536-.048.378.007,1.019.818,1.029,1.266a1.861,1.861,0,0,1-1.007,1.3,4.434,4.434,0,0,1-1.812.151c-2.937.011-5.874.005-8.892.005v2.951c3.463,0,6.831-.007,10.2,0,4.635.011,6.858,2.253,6.861,6.935q.01,14.126.005,28.251c0,.649.053,1.3.083,1.99h48.59V554.737h-2.354q-15.418,0-30.836,0c-4.436-.006-6.728-2.281-6.74-6.679-.017-6.586,0-13.172,0-19.758v-2.171c-.947,0-1.671,0-2.394,0-2.093,0-4.193.093-6.272-.076-.567-.046-1.07-.889-1.6-1.366.541-.466,1.024-1.207,1.636-1.335a16.456,16.456,0,0,1,3.311-.067c1.754,0,3.508,0,5.173,0v-2.937c-9.557,0-18.966-.03-28.375.026a3.1,3.1,0,0,0-3.129,3.225C-1690.063,525.312-1690.011,527.035-1690.011,528.935Zm-5.73,23.072q0,7.753,0,15.507c0,3.594.913,4.517,4.428,4.519q8.769,0,17.537,0c2.8-.006,3.943-1.112,3.948-3.911q.03-16.153,0-32.306c0-2.844-1.208-4-4.081-4.009q-8.861-.019-17.722,0c-2.992.005-4.1,1.111-4.106,4.144C-1695.754,541.3-1695.741,546.654-1695.741,552.008Zm88.944,23.043a5.485,5.485,0,0,0-.783-.155c-10.218-.009-20.435-.028-30.653.023-.633,0-1.254.587-1.9.861-1.54.653-3.062,1.739-4.64,1.833a114,114,0,0,1-12.916.008c-1.533-.083-3.015-1.1-4.522-1.682a8.764,8.764,0,0,0-2.754-1.014c-9.6-.075-19.2-.048-28.806-.042-.6,0-1.2.053-1.762.08-.687,4.348.451,5.7,4.658,5.7q39.608,0,79.217,0c.615,0,1.234.02,1.844-.041a3.024,3.024,0,0,0,3-2.932C-1606.726,576.846-1606.8,575.987-1606.8,575.051Zm-49.824-62.091a29.65,29.65,0,0,1-3.288-2.863,4.069,4.069,0,0,1,.22-5.542,4.264,4.264,0,0,1,5.7-.407c.511.389.977.838,1.542,1.328.994-1.019,1.869-1.97,2.8-2.86a4.23,4.23,0,0,1,6.114-.223,4.3,4.3,0,0,1-.132,6.255c-.912.95-1.943,1.786-2.92,2.674l.348.483c3.239-.232,6.636.91,9.571-1.808a3.031,3.031,0,0,0,1.279-2.518c-.009-1.107-.1-1.909-1.331-2.468a4.633,4.633,0,0,1-2.555-5.932c.495-1.31.017-2-.815-2.858a2.208,2.208,0,0,0-2.711-.727,4.617,4.617,0,0,1-5.87-2.334,2.4,2.4,0,0,0-2.572-1.526,2.41,2.41,0,0,0-2.587,1.5,4.6,4.6,0,0,1-5.678,2.412,2.329,2.329,0,0,0-2.9.648c-.88.941-1.323,1.67-.775,3.036a4.618,4.618,0,0,1-2.256,5.6,2.487,2.487,0,0,0-1.714,2.623,2.53,2.53,0,0,0,1.676,2.65,4.852,4.852,0,0,1,2.36,5.6c-.16.557-.3,1.119-.47,1.757h4.918Zm-11.169,59.073c.955,0,1.806.071,2.641-.014a5.333,5.333,0,0,1,4.922,1.815,4.49,4.49,0,0,0,2.965,1.055c3.931.118,7.875.17,11.8-.022a6.926,6.926,0,0,0,3.706-1.523,5.082,5.082,0,0,1,3.445-1.337c7.932.053,15.863.026,23.8.026h1.913v-17.2h-2.822c0,3.708,0,7.319,0,10.929,0,3.316,0,3.317-3.228,3.317h-48.263Zm15.2-59.987a7.537,7.537,0,0,0,2.443-.9,39.681,39.681,0,0,0,4.415-4.438,2.335,2.335,0,0,0,.242-2.176c-.655-.977-1.594-.546-2.332.2q-1.757,1.765-3.525,3.518a1.525,1.525,0,0,1-2.416.006,13.312,13.312,0,0,0-2.014-1.878,1.9,1.9,0,0,0-1.654.016,1.69,1.69,0,0,0-.521,1.412C-1657.766,509.235-1654.14,511.912-1652.593,512.047Z" transform="translate(0 0)" fill="#ff440e"/>
    <path id="Path_99" data-name="Path 99" d="M-1571.435,569.522v25.649c.665.03,1.311.084,1.956.085q8.861.01,17.722.006a3.69,3.69,0,0,1,1.633.1c.507.278,1.149.911,1.133,1.369s-.718.968-1.216,1.317c-.252.176-.717.057-1.086.058q-10.246,0-20.492,0c-2.227,0-2.548-.325-2.55-2.575q-.011-13.2,0-26.4c0-2.2.269-2.475,2.426-2.476,10.83-.008,21.661.023,32.49-.029,1.782-.008,2.361.669,2.35,2.4q-.083,13.384-.005,26.768c.008,1.646-.585,2.4-2.267,2.323a41.425,41.425,0,0,1-4.235-.089c-.584-.089-1.057-.911-1.58-1.4.5-.451.951-1.188,1.516-1.291a20.691,20.691,0,0,1,3.594-.061V569.522Z" transform="translate(-78.334 -49.047)" fill="#ff440e"/>
    <path id="Path_100" data-name="Path 100" d="M-1534.133,603.729c1.591-1.666,2.824-3.119,4.245-4.356a2.334,2.334,0,0,1,2.14-.37c.969.675.471,1.588-.26,2.313-1.567,1.554-3.138,3.1-4.675,4.688a1.691,1.691,0,0,1-2.821-.022,12.962,12.962,0,0,1-1.9-1.983c-.36-.613-.653-1.737-.338-2.177.687-.957,1.621-.461,2.311.3C-1535.058,602.529-1534.732,602.98-1534.133,603.729Z" transform="translate(-101.333 -69.385)" fill="#ff440e"/>
    <path id="Path_101" data-name="Path 101" d="M-1465.565,602.053a11.582,11.582,0,0,1,.057-2.732c.14-.562.822-.989,1.261-1.477.469.452,1.3.873,1.343,1.362a33.475,33.475,0,0,1,0,5.662c-.043.507-.87.948-1.337,1.419-.443-.5-1.127-.93-1.271-1.5A11.411,11.411,0,0,1-1465.565,602.053Z" transform="translate(-146.902 -68.739)" fill="#ff440e"/>
    <path id="Path_102" data-name="Path 102" d="M-1680.1,615.858v28.5h14.344a24.63,24.63,0,0,1,.064-3.994c.109-.652.885-1.192,1.36-1.784.467.6,1.24,1.161,1.338,1.821a22.9,22.9,0,0,1,.051,4.236,2.386,2.386,0,0,1-2.664,2.608c-4.923-.013-9.847,0-14.771-.007a2.267,2.267,0,0,1-2.539-2.507q-.033-14.678.013-29.356a2.744,2.744,0,0,1,.509-1.531c1.232-1.65,6.764-1.3,7.837.458,1.274,2.085,1.833,2.034,3.279-.083a2.847,2.847,0,0,1,1.72-1.2,21.633,21.633,0,0,1,4.6-.013,2.234,2.234,0,0,1,2.014,2.475c.025,5.847.054,11.694-.052,17.539-.01.59-.915,1.164-1.4,1.746-.452-.615-1.282-1.221-1.3-1.845-.108-4.983-.061-9.969-.062-14.954v-2.051c-1.756-.3-3.039-.3-4.222,1.321a3.812,3.812,0,0,1-5.978-.04C-1677.1,615.582-1678.4,615.667-1680.1,615.858Z" transform="translate(-9.84 -78.156)" fill="#ff440e"/>
    <path id="Path_103" data-name="Path 103" d="M-1663.231,654.812a16.334,16.334,0,0,1,2.3-2.559c.54-.4,1.458-.281,2.206-.395-.069.749.127,1.7-.26,2.206a35.7,35.7,0,0,1-3.194,3.289,1.578,1.578,0,0,1-2.546.028c-.474-.479-1.12-.876-1.383-1.45a6.906,6.906,0,0,1-.267-2.087,19.387,19.387,0,0,1,2.1.077C-1664.024,653.954-1663.818,654.292-1663.231,654.812Z" transform="translate(-20.285 -102.806)" fill="#ff440e"/>
  </g>
</svg>
