<svg xmlns="http://www.w3.org/2000/svg" width="155" height="156" viewBox="0 0 155 156">
  <g id="Group_315" data-name="Group 315" transform="translate(-1208 -3996)">
    <ellipse id="Ellipse_63" data-name="Ellipse 63" cx="77.5" cy="78" rx="77.5" ry="78" transform="translate(1208 3996)" fill="#fff"/>
    <g id="Group_299" data-name="Group 299" transform="translate(1240.706 4029.222)">
      <path id="Path_190" data-name="Path 190" d="M3663.341,1033.9c-2.038,0-4.076-.036-6.112.013-.872.021-1.22-.2-1.216-1.152q.074-16.066.077-32.133c1.4-.872,2.949-.375,4.431-.5.727-.064,1.542.206,2.07-.568a11.916,11.916,0,0,0,.206-3.643,5.884,5.884,0,0,1,.542-2.706.237.237,0,0,1,.112-.254c.973.316.788,1.182.844,1.886.093,1.16.013,2.328.054,3.492a1.179,1.179,0,0,0,1.282,1.309c.582.02,1.164.032,1.746.032H3734.1c.291,0,.582,0,.873,0,2.132-.049,2.27-.185,2.314-2.3.023-1.106-.035-2.213.055-3.318a2.324,2.324,0,0,1,.3-.947.431.431,0,0,1,.558-.2.283.283,0,0,1,.085.275c.7,1.335.491,2.783.525,4.2a5.384,5.384,0,0,0,.246,2.188c.542.752,1.35.485,2.072.548,1.471.128,3.013-.364,4.4.5q.028,16.067.077,32.133c0,.956-.343,1.173-1.215,1.152-2.037-.05-4.075-.014-6.113-.013a3.688,3.688,0,0,1-2.5.559q-34.963.014-69.925,0A3.687,3.687,0,0,1,3663.341,1033.9Z" transform="translate(-3656.013 -956.895)" fill="#c9373d"/>
      <path id="Path_191" data-name="Path 191" d="M3751.686,926.827c.009,1.747-.029,3.5.043,5.239.045,1.081-.375,1.5-1.423,1.387a8.118,8.118,0,0,0-.873,0q-34.848,0-69.7.038c-1.715,0-2.377-.344-2.263-2.192a13.46,13.46,0,0,0-.211-5.171q0-15.125,0-30.25c0-4.1,1.735-5.81,5.87-5.81q25,0,50.006.007a4.545,4.545,0,0,1,.616,2.841c0,4.3-.016,8.6.007,12.9.011,2.055.135,2.181,2.175,2.192,4.3.024,8.6.011,12.9,0a5.454,5.454,0,0,1,2.868.56c.484.4.328.963.329,1.465q0,8.027-.018,16.053l-.155.006-.154,0c-.673-.658-.5-1.516-.506-2.309-.022-4.077,0-8.153-.015-12.23-.008-1.959-.121-2.073-2.086-2.077-4.589-.01-9.179-.013-13.882,0a3.392,3.392,0,0,0,1.126,1.4q6.783,6.806,13.589,13.59A7.449,7.449,0,0,1,3751.686,926.827Z" transform="translate(-3669.825 -890.063)" fill="#fe5359"/>
      <path id="Path_192" data-name="Path 192" d="M3676.951,1110.023q18.952-.02,37.9-.037,18.514,0,37.029.036c-.036,2.384-.077,4.768-.109,7.151-.047,3.53-1.889,5.392-5.4,5.393q-31.956.01-63.909,0c-3.516,0-5.357-1.864-5.4-5.393C3677.029,1114.79,3676.988,1112.406,3676.951,1110.023Z" transform="translate(-3669.623 -1033.016)" fill="#fe5359"/>
      <path id="Path_193" data-name="Path 193" d="M3855.481,908.577c-5.687.016-11.374,0-17.06.075-1.2.016-1.445-.422-1.442-1.51.018-5.686-.032-11.372-.059-17.057a16.585,16.585,0,0,1,2.9,2.707Q3847.672,900.664,3855.481,908.577Z" transform="translate(-3773.604 -890.077)" fill="#fed6d8"/>
      <path id="Path_194" data-name="Path 194" d="M3663.845,993.823l.036,7.015a24.794,24.794,0,0,1-7.09.025A93.31,93.31,0,0,1,3663.845,993.823Z" transform="translate(-3656.519 -957.508)" fill="#832429"/>
      <path id="Path_195" data-name="Path 195" d="M3890.953,1000.8q.024-3.518.046-7.036c2.455,2.249,4.819,4.586,7.047,7.061A24.808,24.808,0,0,1,3890.953,1000.8Z" transform="translate(-3808.727 -957.468)" fill="#832429"/>
      <path id="Path_196" data-name="Path 196" d="M3656.386,1013.892l7.091-.025c-1.268.815-2.671.271-4.007.38-1.087.088-2.186.023-3.28.026C3656.135,1014.084,3656.175,1013.944,3656.386,1013.892Z" transform="translate(-3656.114 -970.537)" fill="#c94d53"/>
      <path id="Path_197" data-name="Path 197" d="M3890.953,1013.865l7.093.025c.21.053.25.193.193.382-1.9,0-3.8.007-5.7-.017C3891.993,1014.248,3891.369,1014.452,3890.953,1013.865Z" transform="translate(-3808.727 -970.536)" fill="#c94d53"/>
      <path id="Path_198" data-name="Path 198" d="M3762.357,1043.663c.064,2.911.1,5.822.205,8.731.034.978-.3,1.291-1.294,1.316-3.47.089-3.469.129-3.469-3.294,0-5.067.032-10.134-.024-15.2-.012-1.126.292-1.467,1.448-1.474,4.864-.029,4.859-.068,6.307,4.5.946,2.986,1.91,5.967,2.977,9.3,1.4-4.355,2.751-8.353,3.957-12.392.335-1.124.842-1.479,1.949-1.4a28.13,28.13,0,0,0,3.666,0c.943-.056,1.176.307,1.171,1.2q-.05,8.735,0,17.47c.008,1.006-.323,1.263-1.3,1.282-3.551.07-3.586.107-3.533-3.418.039-2.56.189-5.119.289-7.679.006-.508.553-1.164-.384-1.416-1.271,3.728-2.6,7.437-3.775,11.195-.364,1.167-.983,1.333-2.023,1.321-1.012-.012-1.672-.1-2.044-1.3-1.172-3.759-2.509-7.467-3.78-11.195-.195.1-.282-.616-.382-.143A5.24,5.24,0,0,0,3762.357,1043.663Z" transform="translate(-3722.16 -983.453)" fill="#fefefe"/>
      <path id="Path_199" data-name="Path 199" d="M3720.636,1053.5a2.648,2.648,0,0,1-.389.148c-4.923.248-4.921.246-7.123-4.169-.38-.761-.788-1.507-1.3-2.49-1.008,2.019-1.924,3.756-2.741,5.538a1.7,1.7,0,0,1-1.867,1.174c-1.277-.082-2.562-.02-3.969-.02.244-1.416,1.146-2.426,1.738-3.57,1.146-2.217,3.431-4.3,3.343-6.566-.084-2.181-2.127-4.285-3.308-6.424-.559-1.012-1.116-2.024-1.839-3.335,1.816,0,3.4-.014,4.988.006.68.009.747.645.972,1.087.86,1.7,1.7,3.41,2.7,5.41.916-1.835,1.782-3.395,2.479-5.027a2.143,2.143,0,0,1,2.337-1.531c3.913.078,3.913.015,1.948,3.5a14.992,14.992,0,0,1-1.292,2.274c-2.267,2.734-2.312,5.313-.049,8.164A44.662,44.662,0,0,1,3720.636,1053.5Z" transform="translate(-3686.67 -983.449)" fill="#fefefe"/>
      <path id="Path_200" data-name="Path 200" d="M3857.291,961.864q-8.732-8.678-17.458-17.361c-.064-.063-.046-.207-.1-.51h9.209c2.271,0,4.545.062,6.813-.024,1.247-.047,1.585.408,1.573,1.607-.051,5.182-.018,10.365-.015,15.548Q3857.3,961.493,3857.291,961.864Z" transform="translate(-3775.43 -925.1)" fill="#e82f36"/>
      <path id="Path_201" data-name="Path 201" d="M3827.859,1043.736c0-2.852.035-5.705-.017-8.556-.019-.986.14-1.427,1.3-1.433,3.53-.018,3.529-.077,3.529,3.414,0,3.783.043,7.568-.026,11.35-.021,1.153.328,1.507,1.467,1.454,1.858-.087,3.73.07,5.584-.051,1.616-.105,1.27.956,1.256,1.822-.013.9.417,2.028-1.306,1.98-3.489-.1-6.984-.072-10.475,0-1.129.022-1.354-.406-1.335-1.421C3827.9,1049.441,3827.859,1046.588,3827.859,1043.736Z" transform="translate(-3767.702 -983.457)" fill="#fefdfd"/>
      <path id="Path_202" data-name="Path 202" d="M3770.185,1055.224c-.486-1.137-.187-2.326-.368-3.7a1.687,1.687,0,0,1,.714,1.26C3769.918,1053.526,3770.5,1054.439,3770.185,1055.224Z" transform="translate(-3729.987 -995.014)" fill="#e08689"/>
      <path id="Path_203" data-name="Path 203" d="M3805.013,1053.316c-.09-.444.024-.762.6-.935a4.134,4.134,0,0,1-.217,2.351C3805.156,1054.291,3805.537,1053.68,3805.013,1053.316Z" transform="translate(-3752.847 -995.572)" fill="#e28d91"/>
      <path id="Path_204" data-name="Path 204" d="M3720.2,961.969q9.354,0,18.708,0c1.291,0,2.549.049,2.662,1.765.086,1.321-.809,2.011-2.666,2.013q-18.708.018-37.417.007c-1.1,0-2.151-.135-2.589-1.336-.507-1.389.438-2.431,2.244-2.438,5.362-.021,10.724-.008,16.085-.008Z" transform="translate(-3683.802 -936.8)" fill="#fed5d7"/>
      <path id="Path_205" data-name="Path 205" d="M3720.5,982.088q9.091,0,18.183,0a6.628,6.628,0,0,1,1.394.049,1.791,1.791,0,0,1,1.614,1.952,1.768,1.768,0,0,1-1.795,1.775,11.272,11.272,0,0,1-1.223.017h-36.717a11.094,11.094,0,0,1-1.223-.018,1.754,1.754,0,0,1-1.782-1.784,1.811,1.811,0,0,1,1.794-1.967,9.819,9.819,0,0,1,1.4-.025Z" transform="translate(-3683.924 -949.873)" fill="#fed6d8"/>
      <path id="Path_206" data-name="Path 206" d="M3711.915,945.394c-3.551,0-7.1-.01-10.654.006-1.24.006-2.259-.28-2.3-1.75-.043-1.58,1.014-1.892,2.332-1.89q10.565.016,21.133,0c1.314,0,2.421.292,2.407,1.83s-1.138,1.824-2.441,1.816C3718.9,945.381,3715.407,945.395,3711.915,945.394Z" transform="translate(-3683.93 -923.664)" fill="#fed6d8"/>
    </g>
  </g>
</svg>
